<svg xmlns="http://www.w3.org/2000/svg" xmlns:xlink="http://www.w3.org/1999/xlink" xmlns:lucid="lucid" width="1080" height="260"><g transform="translate(-120 -260)" lucid:page-tab-id="0_0"><path d="M360 286a6 6 0 0 1 6-6h588a6 6 0 0 1 6 6v208a6 6 0 0 1-6 6H366a6 6 0 0 1-6-6z" fill="#fff" fill-opacity="0"/><path d="M382.73 280.07h11.78m11.8 0h11.77m11.77 0h11.78m11.78 0h11.78m11.78 0h11.78m11.78 0h11.78m11.77-.02h11.78m11.78 0h11.78m11.8 0h11.77m11.78 0h11.78m11.77 0h11.78m11.78 0h11.78m11.78 0l11.78-.02m11.78 0h11.78m11.78 0h11.77m11.8 0h11.77m11.78 0h11.78m11.78 0H795m11.77 0h11.77m11.78 0l11.78-.02m11.78 0h11.78m11.78 0h11.78m11.78 0h11.77m11.78 0h11.78m11.78 0h5.9l.94.07.9.22.88.35.8.5.72.6.6.72.5.8.37.88.23.9v5.82m0 11.6v11.6m0 11.62v11.6m.02 11.6v11.6m0 11.62v11.6m.02 11.6v11.62m0 11.6v11.62m0 11.6l.02 11.6m0 11.62v11.6m0 11.62v5.8l-.07.94-.22.9-.35.88-.5.8-.6.72-.72.6-.8.5-.88.37-.9.23h-5.9m-11.78 0H925.5m-11.8 0h-11.77m-11.77 0h-11.78m-11.78 0h-11.78m-11.78 0h-11.78m-11.78 0H807.7m-11.77.02h-11.78m-11.78 0H760.6m-11.8 0h-11.77m-11.78 0h-11.78m-11.77 0h-11.78m-11.78 0h-11.78m-11.78 0l-11.78.02m-11.78 0h-11.78m-11.78 0H595.7m-11.8 0h-11.77m-11.78 0h-11.78m-11.78 0H525m-11.77 0h-11.77m-11.78 0l-11.78.02m-11.78 0h-11.78m-11.78 0h-11.78M419 500h-11.77m-11.78 0h-11.78m-11.78 0H366l-.94-.07-.9-.22-.88-.35-.8-.5-.72-.6-.6-.72-.5-.8-.37-.88-.23-.9v-5.82m0-11.6v-11.6m0-11.62v-11.6m-.02-11.6v-11.6m0-11.62v-11.6m-.02-11.6v-11.62m0-11.6v-11.62m0-11.6l-.02-11.6m0-11.62v-11.6m0-11.62V286l.07-.94.22-.9.35-.88.5-.8.6-.72.72-.6.8-.5.88-.37.9-.23h5.9" stroke="#5a6c86" stroke-width="3" fill="none"/><path d="M1020 286a6 6 0 0 1 6-6h148a6 6 0 0 1 6 6v208a6 6 0 0 1-6 6h-148a6 6 0 0 1-6-6z" fill="#fff" fill-opacity="0"/><path d="M1043.68 280.06h12.4m12.42 0h12.4m12.42-.02h12.42m12.4 0l12.42-.02m12.4 0h12.42m12.4-.02h6.22l.94.07.9.22.88.35.8.5.72.6.6.72.5.8.37.88.23.9v5.82m0 11.6v11.6m0 11.62v11.6m.02 11.6v11.6m0 11.62v11.6m.02 11.6v11.62m0 11.6v11.62m0 11.6l.02 11.6m0 11.62v11.6m0 11.62v5.8l-.07.94-.22.9-.35.88-.5.8-.6.72-.72.6-.8.5-.88.37-.9.23h-6.22m-12.4 0h-12.42m-12.4.02h-12.4m-12.42 0l-12.42.02m-12.4 0h-12.42m-12.4 0l-12.42.02m-12.4 0H1026l-.94-.07-.9-.22-.88-.35-.8-.5-.72-.6-.6-.72-.5-.8-.37-.88-.23-.9v-5.82m0-11.6v-11.6m0-11.62v-11.6m-.02-11.6v-11.6m0-11.62v-11.6m-.02-11.6v-11.62m0-11.6v-11.62m0-11.6l-.02-11.6m0-11.62v-11.6m0-11.62V286l.07-.94.22-.9.35-.88.5-.8.6-.72.72-.6.8-.5.88-.37.9-.23h6.22" stroke="#5a6c86" stroke-width="3" fill="none"/><path d="M140 346a6 6 0 0 1 6-6h148a6 6 0 0 1 6 6v48a6 6 0 0 1-6 6H146a6 6 0 0 1-6-6z" stroke="#5e5e5e" stroke-width="3" fill="#f2f3f5"/><use xlink:href="#a" transform="matrix(1,0,0,1,145,345) translate(39.845679012345684 30.27777777777778)"/><path d="M448.35 424.78a11.88 11.88 0 0 1-10.7 0l-50.52-25.5a9.75 9.75 0 0 1-5.36-8.7v-49.84a9.75 9.75 0 0 1 5.36-8.7l50.5-25.52a11.88 11.88 0 0 1 10.72 0l50.5 25.5a9.75 9.75 0 0 1 5.36 8.72v49.83a9.75 9.75 0 0 1-5.35 8.7z" stroke="#5e5e5e" stroke-width="3" fill="#fff"/><path d="M437.75 304.42a10.75 10.75 0 0 1 10.48 0l52.52 29.32a3.35 3.35 0 0 1 0 5.85l-52.52 29.3a10.75 10.75 0 0 1-10.48 0l-52.5-29.3a3.35 3.35 0 0 1 0-5.86z" stroke="#5e5e5e" stroke-width="3" fill="#fcfcca"/><path d="M416.38 377.83a6 6 0 0 1 6-6h41.23a6 6 0 0 1 6 6v34.38a6 6 0 0 1-6 6H422.4a6 6 0 0 1-6-6z" stroke="#000" stroke-opacity="0" stroke-width="3" fill="#fff" fill-opacity="0"/><use xlink:href="#b" transform="matrix(1,0,0,1,421.3757347233004,376.83476643640404) translate(1.0432098765432123 22.40277777777778)"/><path d="M668.35 423.28a11.88 11.88 0 0 1-10.7 0l-50.52-25.5a9.75 9.75 0 0 1-5.36-8.7v-49.84a9.75 9.75 0 0 1 5.36-8.7l50.5-25.52a11.88 11.88 0 0 1 10.72 0l50.5 25.5a9.75 9.75 0 0 1 5.36 8.72v49.83a9.75 9.75 0 0 1-5.35 8.7z" stroke="#5e5e5e" stroke-width="3" fill="#fff"/><path d="M657.75 302.92a10.75 10.75 0 0 1 10.48 0l52.52 29.32a3.35 3.35 0 0 1 0 5.85l-52.52 29.3a10.75 10.75 0 0 1-10.48 0l-52.5-29.3a3.35 3.35 0 0 1 0-5.86z" stroke="#5e5e5e" stroke-width="3" fill="#fcfcca"/><path d="M636.38 376.33a6 6 0 0 1 6-6h41.23a6 6 0 0 1 6 6v34.38a6 6 0 0 1-6 6H642.4a6 6 0 0 1-6-6z" stroke="#000" stroke-opacity="0" stroke-width="3" fill="#fff" fill-opacity="0"/><use xlink:href="#c" transform="matrix(1,0,0,1,641.3757347233004,375.3347664364041) translate(1.0432098765432123 22.40277777777778)"/><path d="M888.35 423.28a11.88 11.88 0 0 1-10.7 0l-50.52-25.5a9.75 9.75 0 0 1-5.36-8.7v-49.84a9.75 9.75 0 0 1 5.36-8.7l50.5-25.52a11.88 11.88 0 0 1 10.72 0l50.5 25.5a9.75 9.75 0 0 1 5.36 8.72v49.83a9.75 9.75 0 0 1-5.35 8.7z" stroke="#5e5e5e" stroke-width="3" fill="#fff"/><path d="M877.75 302.92a10.75 10.75 0 0 1 10.48 0l52.52 29.32a3.35 3.35 0 0 1 0 5.85l-52.52 29.3a10.75 10.75 0 0 1-10.48 0l-52.5-29.3a3.35 3.35 0 0 1 0-5.86z" stroke="#5e5e5e" stroke-width="3" fill="#fcfcca"/><path d="M856.38 376.33a6 6 0 0 1 6-6h41.23a6 6 0 0 1 6 6v34.38a6 6 0 0 1-6 6H862.4a6 6 0 0 1-6-6z" stroke="#000" stroke-opacity="0" stroke-width="3" fill="#fff" fill-opacity="0"/><use xlink:href="#d" transform="matrix(1,0,0,1,861.3757347233004,375.3347664364041) translate(1.0432098765432123 22.40277777777778)"/><path d="M1108.35 423.28a11.88 11.88 0 0 1-10.7 0l-50.52-25.5a9.75 9.75 0 0 1-5.36-8.7v-49.84a9.75 9.75 0 0 1 5.36-8.7l50.5-25.52a11.88 11.88 0 0 1 10.72 0l50.5 25.5a9.75 9.75 0 0 1 5.36 8.72v49.83a9.75 9.75 0 0 1-5.35 8.7z" stroke="#5e5e5e" stroke-width="3" fill="#fff"/><path d="M1097.75 302.92a10.75 10.75 0 0 1 10.48 0l52.52 29.32a3.35 3.35 0 0 1 0 5.85l-52.52 29.3a10.75 10.75 0 0 1-10.48 0l-52.5-29.3a3.35 3.35 0 0 1 0-5.86z" stroke="#5e5e5e" stroke-width="3" fill="#cfe4ff"/><path d="M1076.38 376.33a6 6 0 0 1 6-6h41.23a6 6 0 0 1 6 6v34.38a6 6 0 0 1-6 6h-41.22a6 6 0 0 1-6-6z" stroke="#000" stroke-opacity="0" stroke-width="3" fill="#fff" fill-opacity="0"/><use xlink:href="#e" transform="matrix(1,0,0,1,1081.3757347233004,375.3347664364041) translate(1.0432098765432123 22.40277777777778)"/><path d="M302.46 370h33a6 6 0 0 1 6 6v78a6 6 0 0 0 6 6H437a6 6 0 0 0 6-6v-7.94" stroke="#5e5e5e" stroke-width="2" fill="none"/><path d="M302.5 371h-1.03v-2h1.02z" stroke="#5e5e5e" stroke-width=".05" fill="#5e5e5e"/><path d="M443 430.8l4.63 14.26h-9.27z" stroke="#5e5e5e" stroke-width="2" fill="#5e5e5e"/><path d="M506.68 365.65h33a6 6 0 0 1 6 6V454a6 6 0 0 0 6 6h105.3a6 6 0 0 0 6-6v-9.44" stroke="#5e5e5e" stroke-width="2" fill="none"/><path d="M506.7 366.65h-1.02v-2h1.03z" stroke="#5e5e5e" stroke-width=".05" fill="#5e5e5e"/><path d="M663 429.3l4.63 14.26h-9.27z" stroke="#5e5e5e" stroke-width="2" fill="#5e5e5e"/><path d="M726.68 364.15h33a6 6 0 0 1 6 6V454a6 6 0 0 0 6 6h105.3a6 6 0 0 0 6-6v-9.44" stroke="#5e5e5e" stroke-width="2" fill="none"/><path d="M726.7 365.15h-1.02v-2h1.03z" stroke="#5e5e5e" stroke-width=".05" fill="#5e5e5e"/><path d="M883 429.3l4.63 14.26h-9.27z" stroke="#5e5e5e" stroke-width="2" fill="#5e5e5e"/><path d="M946.68 364.15h33a6 6 0 0 1 6 6V454a6 6 0 0 0 6 6h105.3a6 6 0 0 0 6-6v-9.44" stroke="#5e5e5e" stroke-width="2" fill="none"/><path d="M946.7 365.15h-1.02v-2h1.03z" stroke="#5e5e5e" stroke-width=".05" fill="#5e5e5e"/><path d="M1103 429.3l4.63 14.26h-9.27z" stroke="#5e5e5e" stroke-width="2" fill="#5e5e5e"/><path d="M340 466a6 6 0 0 1 6-6h108a6 6 0 0 1 6 6v28a6 6 0 0 1-6 6H346a6 6 0 0 1-6-6z" stroke="#000" stroke-opacity="0" stroke-width="3" fill="#fff" fill-opacity="0"/><use xlink:href="#f" transform="matrix(1,0,0,1,345,465) translate(35.89506172839506 19.65277777777778)"/><path d="M1000 466a6 6 0 0 1 6-6h108a6 6 0 0 1 6 6v28a6 6 0 0 1-6 6h-108a6 6 0 0 1-6-6z" stroke="#000" stroke-opacity="0" stroke-width="3" fill="#fff" fill-opacity="0"/><use xlink:href="#g" transform="matrix(1,0,0,1,1005,465) translate(26.049382716049386 19.65277777777778)"/><defs><path fill="#333" d="M185-189c-5-48-123-54-124 2 14 75 158 14 163 119 3 78-121 87-175 55-17-10-28-26-33-46l33-7c5 56 141 63 141-1 0-78-155-14-162-118-5-82 145-84 179-34 5 7 8 16 11 25" id="h"/><path fill="#333" d="M100-194c63 0 86 42 84 106H49c0 40 14 67 53 68 26 1 43-12 49-29l28 8c-11 28-37 45-77 45C44 4 14-33 15-96c1-61 26-98 85-98zm52 81c6-60-76-77-97-28-3 7-6 17-6 28h103" id="i"/><path fill="#333" d="M117-194c89-4 53 116 60 194h-32v-121c0-31-8-49-39-48C34-167 62-67 57 0H25l-1-190h30c1 10-1 24 2 32 11-22 29-35 61-36" id="j"/><path fill="#333" d="M135-143c-3-34-86-38-87 0 15 53 115 12 119 90S17 21 10-45l28-5c4 36 97 45 98 0-10-56-113-15-118-90-4-57 82-63 122-42 12 7 21 19 24 35" id="k"/><path fill="#333" d="M100-194c62-1 85 37 85 99 1 63-27 99-86 99S16-35 15-95c0-66 28-99 85-99zM99-20c44 1 53-31 53-75 0-43-8-75-51-75s-53 32-53 75 10 74 51 75" id="l"/><path fill="#333" d="M114-163C36-179 61-72 57 0H25l-1-190h30c1 12-1 29 2 39 6-27 23-49 58-41v29" id="m"/><g id="a"><use transform="matrix(0.06172839506172839,0,0,0.06172839506172839,0,0)" xlink:href="#h"/><use transform="matrix(0.06172839506172839,0,0,0.06172839506172839,14.814814814814813,0)" xlink:href="#i"/><use transform="matrix(0.06172839506172839,0,0,0.06172839506172839,27.160493827160494,0)" xlink:href="#j"/><use transform="matrix(0.06172839506172839,0,0,0.06172839506172839,39.50617283950617,0)" xlink:href="#k"/><use transform="matrix(0.06172839506172839,0,0,0.06172839506172839,50.61728395061728,0)" xlink:href="#l"/><use transform="matrix(0.06172839506172839,0,0,0.06172839506172839,62.962962962962955,0)" xlink:href="#m"/></g><path fill="#333" d="M210-169c-67 3-38 105-44 169h-31v-121c0-29-5-50-35-48C34-165 62-65 56 0H25l-1-190h30c1 10-1 24 2 32 10-44 99-50 107 0 11-21 27-35 58-36 85-2 47 119 55 194h-31v-121c0-29-5-49-35-48" id="n"/><path fill="#333" d="M101-251c68 0 85 55 85 127S166 4 100 4C33 4 14-52 14-124c0-73 17-127 87-127zm-1 229c47 0 54-49 54-102s-4-102-53-102c-51 0-55 48-55 102 0 53 5 102 54 102" id="o"/><g id="b"><use transform="matrix(0.06172839506172839,0,0,0.06172839506172839,0,0)" xlink:href="#n"/><use transform="matrix(0.06172839506172839,0,0,0.06172839506172839,18.456790123456788,0)" xlink:href="#k"/><use transform="matrix(0.06172839506172839,0,0,0.06172839506172839,29.5679012345679,0)" xlink:href="#o"/></g><path fill="#333" d="M27 0v-27h64v-190l-56 39v-29l58-41h29v221h61V0H27" id="p"/><g id="c"><use transform="matrix(0.06172839506172839,0,0,0.06172839506172839,0,0)" xlink:href="#n"/><use transform="matrix(0.06172839506172839,0,0,0.06172839506172839,18.456790123456788,0)" xlink:href="#k"/><use transform="matrix(0.06172839506172839,0,0,0.06172839506172839,29.5679012345679,0)" xlink:href="#p"/></g><path fill="#333" d="M101-251c82-7 93 87 43 132L82-64C71-53 59-42 53-27h129V0H18c2-99 128-94 128-182 0-28-16-43-45-43s-46 15-49 41l-32-3c6-41 34-60 81-64" id="q"/><g id="d"><use transform="matrix(0.06172839506172839,0,0,0.06172839506172839,0,0)" xlink:href="#n"/><use transform="matrix(0.06172839506172839,0,0,0.06172839506172839,18.456790123456788,0)" xlink:href="#k"/><use transform="matrix(0.06172839506172839,0,0,0.06172839506172839,29.5679012345679,0)" xlink:href="#q"/></g><path fill="#333" d="M126-127c33 6 58 20 58 59 0 88-139 92-164 29-3-8-5-16-6-25l32-3c6 27 21 44 54 44 32 0 52-15 52-46 0-38-36-46-79-43v-28c39 1 72-4 72-42 0-27-17-43-46-43-28 0-47 15-49 41l-32-3c6-42 35-63 81-64 48-1 79 21 79 65 0 36-21 52-52 59" id="r"/><g id="e"><use transform="matrix(0.06172839506172839,0,0,0.06172839506172839,0,0)" xlink:href="#n"/><use transform="matrix(0.06172839506172839,0,0,0.06172839506172839,18.456790123456788,0)" xlink:href="#k"/><use transform="matrix(0.06172839506172839,0,0,0.06172839506172839,29.5679012345679,0)" xlink:href="#r"/></g><path fill="#333" d="M87-220l-18 92h140l-5 28H64L45 0H11l48-248h178l-5 28H87" id="s"/><path fill="#333" d="M30-147c31-64 166-65 159 27C183-49 158 1 86 4 9 8 1-88 30-147zM88-20c53 0 68-48 68-100 0-31-11-51-44-50-52 1-68 46-68 97 0 32 13 53 44 53" id="t"/><path fill="#333" d="M103-194c29 0 47 14 56 36 2-11 5-23 8-32h30L160-5C157 61 82 97 21 62 9 55 4 45 1 30l28-7c7 42 83 31 92-3 4-16 9-38 13-55-13 20-29 36-62 36-40 0-60-25-60-64 0-71 23-131 91-131zm4 24c-53 0-58 54-61 104-2 27 10 44 36 44 49 0 65-50 67-102 1-29-15-46-42-46" id="u"/><g id="f"><use transform="matrix(0.06172839506172839,0,0,0.06172839506172839,0,0)" xlink:href="#s"/><use transform="matrix(0.06172839506172839,0,0,0.06172839506172839,13.518518518518517,0)" xlink:href="#t"/><use transform="matrix(0.06172839506172839,0,0,0.06172839506172839,25.864197530864196,0)" xlink:href="#u"/></g><path fill="#333" d="M125-24c46 0 70-25 89-51l25 16C214-24 183 4 123 4 8 4-5-146 60-208c32-50 158-61 191-5 5 7 9 14 11 22l-32 10c-9-28-33-43-69-43-74 0-108 51-108 125 0 46 24 75 72 75" id="v"/><path fill="#333" d="M6 0l50-261h32L37 0H6" id="w"/><path fill="#333" d="M67 3c-93-2-31-127-26-193h32L48-50c-3 39 53 32 70 12 30-34 30-101 43-152h32L157 0h-30c1-10 6-24 4-33-14 20-29 37-64 36" id="x"/><path fill="#333" d="M133-28C103 26-5 8 13-77c13-62 24-115 90-117 29-1 46 15 56 35l19-102h32L160 0h-30zM45-64c-2 27 10 43 35 43 54-1 69-50 69-103 0-29-15-46-42-46-53-1-58 58-62 106" id="y"/><g id="g"><use transform="matrix(0.06172839506172839,0,0,0.06172839506172839,0,0)" xlink:href="#v"/><use transform="matrix(0.06172839506172839,0,0,0.06172839506172839,15.987654320987653,0)" xlink:href="#w"/><use transform="matrix(0.06172839506172839,0,0,0.06172839506172839,20.864197530864196,0)" xlink:href="#t"/><use transform="matrix(0.06172839506172839,0,0,0.06172839506172839,33.20987654320987,0)" xlink:href="#x"/><use transform="matrix(0.06172839506172839,0,0,0.06172839506172839,45.55555555555555,0)" xlink:href="#y"/></g></defs></g></svg>