<svg version="1.1" viewBox="0.0 0.0 416.0 257.0" fill="none" stroke="none" stroke-linecap="square" stroke-miterlimit="10" width="416" height="257" xmlns:xlink="http://www.w3.org/1999/xlink" xmlns="http://www.w3.org/2000/svg"><path fill="#ffffff" d="M0 0L416.0 0L416.0 257.0L0 257.0L0 0Z" fill-rule="nonzero"/><path stroke="#333333" stroke-width="1.0" stroke-linecap="butt" d="M71.5 224.5L403.5 224.5" fill-rule="nonzero"/><path stroke="#cccccc" stroke-width="1.0" stroke-linecap="butt" d="M71.5 185.5L403.5 185.5" fill-rule="nonzero"/><path stroke="#cccccc" stroke-width="1.0" stroke-linecap="butt" d="M71.5 147.5L403.5 147.5" fill-rule="nonzero"/><path stroke="#cccccc" stroke-width="1.0" stroke-linecap="butt" d="M71.5 108.5L403.5 108.5" fill-rule="nonzero"/><path stroke="#cccccc" stroke-width="1.0" stroke-linecap="butt" d="M71.5 69.5L403.5 69.5" fill-rule="nonzero"/><clipPath id="id_0"><path d="M71.85 69.98333L403.15 69.98333L403.15 224.15L71.85 224.15L71.85 69.98333Z" clip-rule="nonzero"/></clipPath><path stroke="#000000" stroke-width="2.0" stroke-linecap="butt" stroke-opacity="0.0" clip-path="url(#id_0)" d="M138.0 224.0L108.0 224.0L108.0 109.0C108.0 107.89543 108.89543 107.0 110.0 107.0L136.0 107.0C137.10457 107.0 138.0 107.89543 138.0 109.0Z" fill-rule="nonzero"/><path fill="#4285f4" clip-path="url(#id_0)" d="M138.0 224.0L108.0 224.0L108.0 109.0C108.0 107.89543 108.89543 107.0 110.0 107.0L136.0 107.0C137.10457 107.0 138.0 107.89543 138.0 109.0Z" fill-rule="nonzero"/><path stroke="#000000" stroke-width="2.0" stroke-linecap="butt" stroke-opacity="0.0" clip-path="url(#id_0)" d="M237.0 224.0L207.0 224.0L207.0 90.0C207.0 88.89543 207.89543 88.0 209.0 88.0L235.0 88.0C236.10457 88.0 237.0 88.89543 237.0 90.0Z" fill-rule="nonzero"/><path fill="#4285f4" clip-path="url(#id_0)" d="M237.0 224.0L207.0 224.0L207.0 90.0C207.0 88.89543 207.89543 88.0 209.0 88.0L235.0 88.0C236.10457 88.0 237.0 88.89543 237.0 90.0Z" fill-rule="nonzero"/><path stroke="#000000" stroke-width="2.0" stroke-linecap="butt" stroke-opacity="0.0" clip-path="url(#id_0)" d="M335.0 224.0L305.0 224.0L305.0 77.0C305.0 75.89543 305.89542 75.0 307.0 75.0L333.0 75.0C334.10458 75.0 335.0 75.89543 335.0 77.0Z" fill-rule="nonzero"/><path fill="#4285f4" clip-path="url(#id_0)" d="M335.0 224.0L305.0 224.0L305.0 77.0C305.0 75.89543 305.89542 75.0 307.0 75.0L333.0 75.0C334.10458 75.0 335.0 75.89543 335.0 77.0Z" fill-rule="nonzero"/><path stroke="#000000" stroke-width="2.0" stroke-linecap="butt" stroke-opacity="0.0" clip-path="url(#id_0)" d="M170.0 224.0L140.0 224.0L140.0 142.0C140.0 140.89543 140.89543 140.0 142.0 140.0L168.0 140.0C169.10457 140.0 170.0 140.89543 170.0 142.0Z" fill-rule="nonzero"/><path fill="#ea4335" clip-path="url(#id_0)" d="M170.0 224.0L140.0 224.0L140.0 142.0C140.0 140.89543 140.89543 140.0 142.0 140.0L168.0 140.0C169.10457 140.0 170.0 140.89543 170.0 142.0Z" fill-rule="nonzero"/><path stroke="#000000" stroke-width="2.0" stroke-linecap="butt" stroke-opacity="0.0" clip-path="url(#id_0)" d="M269.0 224.0L239.0 224.0L239.0 121.0C239.0 119.89543 239.89543 119.0 241.0 119.0L267.0 119.0C268.10458 119.0 269.0 119.89543 269.0 121.0Z" fill-rule="nonzero"/><path fill="#ea4335" clip-path="url(#id_0)" d="M269.0 224.0L239.0 224.0L239.0 121.0C239.0 119.89543 239.89543 119.0 241.0 119.0L267.0 119.0C268.10458 119.0 269.0 119.89543 269.0 121.0Z" fill-rule="nonzero"/><path stroke="#000000" stroke-width="2.0" stroke-linecap="butt" stroke-opacity="0.0" clip-path="url(#id_0)" d="M367.0 224.0L337.0 224.0L337.0 116.0C337.0 114.89543 337.89542 114.0 339.0 114.0L365.0 114.0C366.10458 114.0 367.0 114.89543 367.0 116.0Z" fill-rule="nonzero"/><path fill="#ea4335" clip-path="url(#id_0)" d="M367.0 224.0L337.0 224.0L337.0 116.0C337.0 114.89543 337.89542 114.0 339.0 114.0L365.0 114.0C366.10458 114.0 367.0 114.89543 367.0 116.0Z" fill-rule="nonzero"/><path fill="#000000" d="M23.849995 201.67604L15.256244 201.67604L15.256244 199.95729L21.33437 197.92604Q22.193745 197.64479 22.61562 197.51979Q22.14687 197.37917 21.24062 197.06667L15.256244 195.00417L15.256244 193.47292L23.849995 193.47292L23.849995 194.56667L16.662495 194.56667L23.849995 197.06667L23.849995 198.09792L16.537495 200.58229L23.849995 200.58229L23.849995 201.67604ZM16.474995 192.76979L15.256244 192.76979L15.256244 191.70729L16.474995 191.70729L16.474995 192.76979ZM23.849995 192.76979L17.631245 192.76979L17.631245 191.70729L23.849995 191.70729L23.849995 192.76979ZM23.849995 189.80104L15.256244 189.80104L15.256244 188.73854L23.849995 188.73854L23.849995 189.80104ZM23.849995 186.80104L15.256244 186.80104L15.256244 185.73854L23.849995 185.73854L23.849995 186.80104ZM16.474995 183.76979L15.256244 183.76979L15.256244 182.70729L16.474995 182.70729L16.474995 183.76979ZM23.849995 183.76979L17.631245 183.76979L17.631245 182.70729L23.849995 182.70729L23.849995 183.76979ZM21.99062 181.19167L21.83437 180.16042Q22.45937 180.06667 22.787495 179.67604Q23.11562 179.26979 23.11562 178.53542Q23.11562 177.81667 22.83437 177.47292Q22.537495 177.11354 22.131245 177.11354Q21.77187 177.11354 21.568745 177.42604Q21.42812 177.64479 21.20937 178.50417Q20.912495 179.66042 20.70937 180.11354Q20.49062 180.55104 20.11562 180.78542Q19.74062 181.01979 19.27187 181.01979Q18.86562 181.01979 18.506245 180.83229Q18.14687 180.64479 17.912495 180.31667Q17.74062 180.06667 17.61562 179.64479Q17.49062 179.22292 17.49062 178.72292Q17.49062 178.00417 17.70937 177.45729Q17.912495 176.89479 18.27187 176.62917Q18.631245 176.36354 19.224995 176.26979L19.36562 177.30104Q18.89687 177.36354 18.631245 177.70729Q18.349995 178.03542 18.349995 178.66042Q18.349995 179.37917 18.599995 179.69167Q18.83437 180.00417 19.162495 180.00417Q19.36562 180.00417 19.52187 179.87917Q19.693745 179.73854 19.80312 179.47292Q19.86562 179.31667 20.068745 178.53542Q20.381245 177.41042 20.568745 176.97292Q20.756245 176.53542 21.11562 176.28542Q21.474995 176.03542 22.02187 176.03542Q22.55312 176.03542 23.02187 176.34792Q23.474995 176.64479 23.74062 177.22292Q23.99062 177.80104 23.99062 178.53542Q23.99062 179.75417 23.49062 180.39479Q22.974995 181.01979 21.99062 181.19167ZM21.849995 169.51979L21.974995 168.42604Q22.92812 168.67604 23.45937 169.37917Q23.99062 170.08229 23.99062 171.16042Q23.99062 172.51979 23.14687 173.33229Q22.30312 174.12917 20.787495 174.12917Q19.224995 174.12917 18.36562 173.31667Q17.49062 172.50417 17.49062 171.22292Q17.49062 169.97292 18.33437 169.19167Q19.17812 168.39479 20.724995 168.39479Q20.818745 168.39479 21.006245 168.39479L21.006245 173.03542Q22.037495 172.97292 22.58437 172.45729Q23.11562 171.94167 23.11562 171.16042Q23.11562 170.58229 22.818745 170.17604Q22.506245 169.75417 21.849995 169.51979ZM20.14687 172.97292L20.14687 169.50417Q19.349995 169.56667 18.95937 169.89479Q18.349995 170.41042 18.349995 171.20729Q18.349995 171.94167 18.83437 172.44167Q19.318745 172.92604 20.14687 172.97292ZM21.568745 162.70729L21.70937 161.67604Q22.77187 161.84792 23.381245 162.55104Q23.99062 163.25417 23.99062 164.26979Q23.99062 165.55104 23.162495 166.33229Q22.318745 167.09792 20.756245 167.09792Q19.756245 167.09792 19.006245 166.76979Q18.24062 166.42604 17.86562 165.75417Q17.49062 165.06667 17.49062 164.25417Q17.49062 163.25417 18.006245 162.61354Q18.506245 161.95729 19.45937 161.76979L19.61562 162.80104Q18.99062 162.94167 18.67812 163.31667Q18.349995 163.69167 18.349995 164.22292Q18.349995 165.01979 18.92812 165.51979Q19.49062 166.01979 20.724995 166.01979Q21.99062 166.01979 22.55312 165.53542Q23.11562 165.05104 23.11562 164.28542Q23.11562 163.66042 22.74062 163.25417Q22.36562 162.83229 21.568745 162.70729ZM20.74062 161.16042Q19.006245 161.16042 18.17812 160.20729Q17.49062 159.41042 17.49062 158.25417Q17.49062 156.97292 18.33437 156.16042Q19.162495 155.33229 20.64687 155.33229Q21.849995 155.33229 22.537495 155.69167Q23.224995 156.05104 23.61562 156.75417Q23.99062 157.44167 23.99062 158.25417Q23.99062 159.55104 23.162495 160.36354Q22.318745 161.16042 20.74062 161.16042ZM20.74062 160.08229Q21.92812 160.08229 22.52187 159.56667Q23.11562 159.03542 23.11562 158.25417Q23.11562 157.45729 22.52187 156.94167Q21.92812 156.42604 20.70937 156.42604Q19.55312 156.42604 18.95937 156.95729Q18.36562 157.47292 18.36562 158.25417Q18.36562 159.03542 18.95937 159.56667Q19.537495 160.08229 20.74062 160.08229ZM23.849995 153.76979L17.631245 153.76979L17.631245 152.83229L18.506245 152.83229Q17.49062 152.14479 17.49062 150.84792Q17.49062 150.28542 17.693745 149.81667Q17.89687 149.33229 18.224995 149.09792Q18.55312 148.86354 18.99062 148.76979Q19.287495 148.72292 20.02187 148.72292L23.849995 148.72292L23.849995 149.76979L20.068745 149.76979Q19.412495 149.76979 19.099995 149.89479Q18.787495 150.01979 18.599995 150.33229Q18.39687 150.64479 18.39687 151.06667Q18.39687 151.73854 18.83437 152.23854Q19.256245 152.72292 20.443745 152.72292L23.849995 152.72292L23.849995 153.76979ZM23.849995 142.73854L23.068745 142.73854Q23.99062 143.33229 23.99062 144.47292Q23.99062 145.22292 23.58437 145.84792Q23.162495 146.47292 22.42812 146.81667Q21.693745 147.16042 20.74062 147.16042Q19.818745 147.16042 19.05312 146.84792Q18.287495 146.53542 17.89687 145.91042Q17.49062 145.28542 17.49062 144.51979Q17.49062 143.95729 17.724995 143.51979Q17.95937 143.08229 18.33437 142.80104L15.256244 142.80104L15.256244 141.75417L23.849995 141.75417L23.849995 142.73854ZM20.74062 146.06667Q21.943745 146.06667 22.537495 145.56667Q23.11562 145.06667 23.11562 144.37917Q23.11562 143.69167 22.55312 143.20729Q21.99062 142.72292 20.83437 142.72292Q19.55312 142.72292 18.95937 143.22292Q18.36562 143.70729 18.36562 144.42604Q18.36562 145.12917 18.943745 145.59792Q19.506245 146.06667 20.74062 146.06667ZM21.99062 140.19167L21.83437 139.16042Q22.45937 139.06667 22.787495 138.67604Q23.11562 138.26979 23.11562 137.53542Q23.11562 136.81667 22.83437 136.47292Q22.537495 136.11354 22.131245 136.11354Q21.77187 136.11354 21.568745 136.42604Q21.42812 136.64479 21.20937 137.50417Q20.912495 138.66042 20.70937 139.11354Q20.49062 139.55104 20.11562 139.78542Q19.74062 140.01979 19.27187 140.01979Q18.86562 140.01979 18.506245 139.83229Q18.14687 139.64479 17.912495 139.31667Q17.74062 139.06667 17.61562 138.64479Q17.49062 138.22292 17.49062 137.72292Q17.49062 137.00417 17.70937 136.45729Q17.912495 135.89479 18.27187 135.62917Q18.631245 135.36354 19.224995 135.26979L19.36562 136.30104Q18.89687 136.36354 18.631245 136.70729Q18.349995 137.03542 18.349995 137.66042Q18.349995 138.37917 18.599995 138.69167Q18.83437 139.00417 19.162495 139.00417Q19.36562 139.00417 19.52187 138.87917Q19.693745 138.73854 19.80312 138.47292Q19.86562 138.31667 20.068745 137.53542Q20.381245 136.41042 20.568745 135.97292Q20.756245 135.53542 21.11562 135.28542Q21.474995 135.03542 22.02187 135.03542Q22.55312 135.03542 23.02187 135.34792Q23.474995 135.64479 23.74062 136.22292Q23.99062 136.80104 23.99062 137.53542Q23.99062 138.75417 23.49062 139.39479Q22.974995 140.01979 21.99062 140.19167ZM26.381245 127.754166Q25.27187 128.62917 23.80312 129.23854Q22.318745 129.83229 20.74062 129.83229Q19.349995 129.83229 18.068745 129.39479Q16.58437 128.86354 15.115619 127.754166L15.115619 127.004166Q16.33437 127.70729 16.849995 127.941666Q17.662495 128.30104 18.537495 128.50417Q19.631245 128.75417 20.74062 128.75417Q23.568745 128.75417 26.381245 127.004166L26.381245 127.754166ZM23.849995 125.76979L17.631245 125.76979L17.631245 124.83229L18.506245 124.83229Q18.037495 124.535416 17.77187 124.05104Q17.49062 123.566666 17.49062 122.941666Q17.49062 122.254166 17.77187 121.816666Q18.05312 121.36354 18.568745 121.191666Q17.49062 120.441666 17.49062 119.26979Q17.49062 118.33229 18.006245 117.847916Q18.506245 117.347916 19.58437 117.347916L23.849995 117.347916L23.849995 118.39479L19.92812 118.39479Q19.30312 118.39479 19.02187 118.504166Q18.74062 118.597916 18.568745 118.86354Q18.39687 119.129166 18.39687 119.504166Q18.39687 120.160416 18.83437 120.597916Q19.27187 121.01979 20.24062 121.01979L23.849995 121.01979L23.849995 122.08229L19.80312 122.08229Q19.099995 122.08229 18.756245 122.347916Q18.39687 122.597916 18.39687 123.17604Q18.39687 123.629166 18.631245 124.004166Q18.86562 124.379166 19.318745 124.55104Q19.77187 124.722916 20.61562 124.722916L23.849995 124.722916L23.849995 125.76979ZM21.99062 115.191666L21.83437 114.160416Q22.45937 114.066666 22.787495 113.67604Q23.11562 113.26979 23.11562 112.535416Q23.11562 111.816666 22.83437 111.472916Q22.537495 111.11354 22.131245 111.11354Q21.77187 111.11354 21.568745 111.42604Q21.42812 111.64479 21.20937 112.504166Q20.912495 113.660416 20.70937 114.11354Q20.49062 114.55104 20.11562 114.785416Q19.74062 115.01979 19.27187 115.01979Q18.86562 115.01979 18.506245 114.83229Q18.14687 114.64479 17.912495 114.316666Q17.74062 114.066666 17.61562 113.64479Q17.49062 113.222916 17.49062 112.722916Q17.49062 112.004166 17.70937 111.45729Q17.912495 110.89479 18.27187 110.629166Q18.631245 110.36354 19.224995 110.26979L19.36562 111.30104Q18.89687 111.36354 18.631245 111.70729Q18.349995 112.035416 18.349995 112.660416Q18.349995 113.379166 18.599995 113.691666Q18.83437 114.004166 19.162495 114.004166Q19.36562 114.004166 19.52187 113.879166Q19.693745 113.73854 19.80312 113.472916Q19.86562 113.316666 20.068745 112.535416Q20.381245 111.410416 20.568745 110.972916Q20.756245 110.535416 21.11562 110.285416Q21.474995 110.035416 22.02187 110.035416Q22.55312 110.035416 23.02187 110.347916Q23.474995 110.64479 23.74062 111.222916Q23.99062 111.80104 23.99062 112.535416Q23.99062 113.754166 23.49062 114.39479Q22.974995 115.01979 21.99062 115.191666ZM26.381245 107.08229L26.381245 107.83229Q23.568745 106.08229 20.74062 106.08229Q19.64687 106.08229 18.55312 106.33229Q17.67812 106.535416 16.86562 106.89479Q16.349995 107.129166 15.115619 107.83229L15.115619 107.08229Q16.58437 105.98854 18.068745 105.45729Q19.349995 105.004166 20.74062 105.004166Q22.318745 105.004166 23.80312 105.61354Q25.27187 106.222916 26.381245 107.08229Z" fill-rule="nonzero"/><path fill="#000000" d="M59.35 223.91562Q59.35 222.38437 59.6625 221.4625Q59.975 220.525 60.584373 220.025Q61.209373 219.525 62.146873 219.525Q62.834373 219.525 63.35 219.80624Q63.88125 220.0875 64.225 220.61874Q64.56875 221.13437 64.75625 221.88437Q64.94375 222.63437 64.94375 223.91562Q64.94375 225.43124 64.63125 226.35312Q64.33437 227.275 63.709373 227.79062Q63.1 228.29062 62.146873 228.29062Q60.9125 228.29062 60.19375 227.4Q59.35 226.3375 59.35 223.91562ZM60.428123 223.91562Q60.428123 226.025 60.928123 226.72812Q61.428123 227.43124 62.146873 227.43124Q62.88125 227.43124 63.365623 226.72812Q63.865623 226.025 63.865623 223.91562Q63.865623 221.79062 63.365623 221.10312Q62.88125 220.4 62.13125 220.4Q61.4125 220.4 60.975 221.00937Q60.428123 221.79062 60.428123 223.91562Z" fill-rule="nonzero"/><path fill="#000000" d="M49.31875 189.60834L48.271873 189.60834L48.271873 182.88959Q47.88125 183.24896 47.25625 183.62396Q46.646873 183.98334 46.1625 184.15521L46.1625 183.13959Q47.0375 182.71771 47.69375 182.13959Q48.365623 181.54584 48.646873 180.98334L49.31875 180.98334L49.31875 189.60834ZM52.35 185.37396Q52.35 183.84271 52.6625 182.92084Q52.975 181.98334 53.584373 181.48334Q54.209373 180.98334 55.146873 180.98334Q55.834373 180.98334 56.35 181.26459Q56.88125 181.54584 57.225 182.07709Q57.56875 182.59271 57.75625 183.34271Q57.94375 184.09271 57.94375 185.37396Q57.94375 186.88959 57.63125 187.81146Q57.334373 188.73334 56.709373 189.24896Q56.1 189.74896 55.146873 189.74896Q53.9125 189.74896 53.19375 188.85834Q52.35 187.79584 52.35 185.37396ZM53.428123 185.37396Q53.428123 187.48334 53.928123 188.18646Q54.428123 188.88959 55.146873 188.88959Q55.88125 188.88959 56.365623 188.18646Q56.865623 187.48334 56.865623 185.37396Q56.865623 183.24896 56.365623 182.56146Q55.88125 181.85834 55.13125 181.85834Q54.4125 181.85834 53.975 182.46771Q53.428123 183.24896 53.428123 185.37396ZM59.35 185.37396Q59.35 183.84271 59.6625 182.92084Q59.975 181.98334 60.584373 181.48334Q61.209373 180.98334 62.146873 180.98334Q62.834373 180.98334 63.35 181.26459Q63.88125 181.54584 64.225 182.07709Q64.56875 182.59271 64.75625 183.34271Q64.94375 184.09271 64.94375 185.37396Q64.94375 186.88959 64.63125 187.81146Q64.33437 188.73334 63.709373 189.24896Q63.1 189.74896 62.146873 189.74896Q60.9125 189.74896 60.19375 188.85834Q59.35 187.79584 59.35 185.37396ZM60.428123 185.37396Q60.428123 187.48334 60.928123 188.18646Q61.428123 188.88959 62.146873 188.88959Q62.88125 188.88959 63.365623 188.18646Q63.865623 187.48334 63.865623 185.37396Q63.865623 183.24896 63.365623 182.56146Q62.88125 181.85834 62.13125 181.85834Q61.4125 181.85834 60.975 182.46771Q60.428123 183.24896 60.428123 185.37396Z" fill-rule="nonzero"/><path fill="#000000" d="M50.896873 150.05104L50.896873 151.06667L45.209373 151.06667Q45.209373 150.69167 45.334373 150.33229Q45.553123 149.75417 46.021873 149.19167Q46.50625 148.62917 47.4125 147.89479Q48.81875 146.73854 49.303123 146.06667Q49.803123 145.39479 49.803123 144.80104Q49.803123 144.17604 49.35 143.75417Q48.896873 143.31667 48.178123 143.31667Q47.4125 143.31667 46.959373 143.76979Q46.50625 144.22292 46.490623 145.03542L45.4125 144.92604Q45.521873 143.70729 46.240623 143.08229Q46.975 142.44167 48.209373 142.44167Q49.44375 142.44167 50.1625 143.12917Q50.88125 143.81667 50.88125 144.83229Q50.88125 145.34792 50.6625 145.84792Q50.459373 146.33229 49.959373 146.89479Q49.475 147.44167 48.35 148.39479Q47.396873 149.19167 47.115623 149.48854Q46.85 149.76979 46.678123 150.05104L50.896873 150.05104ZM52.35 146.83229Q52.35 145.30104 52.6625 144.37917Q52.975 143.44167 53.584373 142.94167Q54.209373 142.44167 55.146873 142.44167Q55.834373 142.44167 56.35 142.72292Q56.88125 143.00417 57.225 143.53542Q57.56875 144.05104 57.75625 144.80104Q57.94375 145.55104 57.94375 146.83229Q57.94375 148.34792 57.63125 149.26979Q57.334373 150.19167 56.709373 150.70729Q56.1 151.20729 55.146873 151.20729Q53.9125 151.20729 53.19375 150.31667Q52.35 149.25417 52.35 146.83229ZM53.428123 146.83229Q53.428123 148.94167 53.928123 149.64479Q54.428123 150.34792 55.146873 150.34792Q55.88125 150.34792 56.365623 149.64479Q56.865623 148.94167 56.865623 146.83229Q56.865623 144.70729 56.365623 144.01979Q55.88125 143.31667 55.13125 143.31667Q54.4125 143.31667 53.975 143.92604Q53.428123 144.70729 53.428123 146.83229ZM59.35 146.83229Q59.35 145.30104 59.6625 144.37917Q59.975 143.44167 60.584373 142.94167Q61.209373 142.44167 62.146873 142.44167Q62.834373 142.44167 63.35 142.72292Q63.88125 143.00417 64.225 143.53542Q64.56875 144.05104 64.75625 144.80104Q64.94375 145.55104 64.94375 146.83229Q64.94375 148.34792 64.63125 149.26979Q64.33437 150.19167 63.709373 150.70729Q63.1 151.20729 62.146873 151.20729Q60.9125 151.20729 60.19375 150.31667Q59.35 149.25417 59.35 146.83229ZM60.428123 146.83229Q60.428123 148.94167 60.928123 149.64479Q61.428123 150.34792 62.146873 150.34792Q62.88125 150.34792 63.365623 149.64479Q63.865623 148.94167 63.865623 146.83229Q63.865623 144.70729 63.365623 144.01979Q62.88125 143.31667 62.13125 143.31667Q61.4125 143.31667 60.975 143.92604Q60.428123 144.70729 60.428123 146.83229Z" fill-rule="nonzero"/><path fill="#000000" d="M45.35 110.25938L46.4125 110.11875Q46.584373 111.00938 47.021873 111.41563Q47.459373 111.80625 48.084373 111.80625Q48.834373 111.80625 49.35 111.29063Q49.865623 110.775 49.865623 110.00938Q49.865623 109.29063 49.38125 108.82188Q48.9125 108.3375 48.178123 108.3375Q47.88125 108.3375 47.428123 108.4625L47.553123 107.525Q47.6625 107.54063 47.725 107.54063Q48.396873 107.54063 48.928123 107.19688Q49.475 106.8375 49.475 106.10313Q49.475 105.525 49.084373 105.15Q48.69375 104.75938 48.06875 104.75938Q47.459373 104.75938 47.0375 105.15Q46.63125 105.54063 46.521873 106.30625L45.459373 106.11875Q45.646873 105.07188 46.334373 104.49375Q47.021873 103.9 48.0375 103.9Q48.740623 103.9 49.334373 104.2125Q49.928123 104.50938 50.240623 105.025Q50.553123 105.54063 50.553123 106.13438Q50.553123 106.68125 50.25625 107.15Q49.959373 107.60313 49.38125 107.86875Q50.13125 108.04063 50.553123 108.60313Q50.975 109.15 50.975 109.99375Q50.975 111.11875 50.146873 111.9Q49.334373 112.68125 48.084373 112.68125Q46.959373 112.68125 46.209373 112.00938Q45.459373 111.32188 45.35 110.25938ZM52.35 108.29063Q52.35 106.75938 52.6625 105.8375Q52.975 104.9 53.584373 104.4Q54.209373 103.9 55.146873 103.9Q55.834373 103.9 56.35 104.18125Q56.88125 104.4625 57.225 104.99375Q57.56875 105.50938 57.75625 106.25938Q57.94375 107.00938 57.94375 108.29063Q57.94375 109.80625 57.63125 110.72813Q57.334373 111.65 56.709373 112.16563Q56.1 112.66563 55.146873 112.66563Q53.9125 112.66563 53.19375 111.775Q52.35 110.7125 52.35 108.29063ZM53.428123 108.29063Q53.428123 110.4 53.928123 111.10313Q54.428123 111.80625 55.146873 111.80625Q55.88125 111.80625 56.365623 111.10313Q56.865623 110.4 56.865623 108.29063Q56.865623 106.16563 56.365623 105.47813Q55.88125 104.775 55.13125 104.775Q54.4125 104.775 53.975 105.38438Q53.428123 106.16563 53.428123 108.29063ZM59.35 108.29063Q59.35 106.75938 59.6625 105.8375Q59.975 104.9 60.584373 104.4Q61.209373 103.9 62.146873 103.9Q62.834373 103.9 63.35 104.18125Q63.88125 104.4625 64.225 104.99375Q64.56875 105.50938 64.75625 106.25938Q64.94375 107.00938 64.94375 108.29063Q64.94375 109.80625 64.63125 110.72813Q64.33437 111.65 63.709373 112.16563Q63.1 112.66563 62.146873 112.66563Q60.9125 112.66563 60.19375 111.775Q59.35 110.7125 59.35 108.29063ZM60.428123 108.29063Q60.428123 110.4 60.928123 111.10313Q61.428123 111.80625 62.146873 111.80625Q62.88125 111.80625 63.365623 111.10313Q63.865623 110.4 63.865623 108.29063Q63.865623 106.16563 63.365623 105.47813Q62.88125 104.775 62.13125 104.775Q61.4125 104.775 60.975 105.38438Q60.428123 106.16563 60.428123 108.29063Z" fill-rule="nonzero"/><path fill="#000000" d="M48.725 73.98333L48.725 71.92083L45.00625 71.92083L45.00625 70.95208L48.928123 65.38958L49.7875 65.38958L49.7875 70.95208L50.94375 70.95208L50.94375 71.92083L49.7875 71.92083L49.7875 73.98333L48.725 73.98333ZM48.725 70.95208L48.725 67.092705L46.0375 70.95208L48.725 70.95208ZM52.35 69.748955Q52.35 68.217705 52.6625 67.29583Q52.975 66.35833 53.584373 65.85833Q54.209373 65.35833 55.146873 65.35833Q55.834373 65.35833 56.35 65.63958Q56.88125 65.92083 57.225 66.45208Q57.56875 66.967705 57.75625 67.717705Q57.94375 68.467705 57.94375 69.748955Q57.94375 71.26458 57.63125 72.186455Q57.334373 73.10833 56.709373 73.623955Q56.1 74.123955 55.146873 74.123955Q53.9125 74.123955 53.19375 73.23333Q52.35 72.17083 52.35 69.748955ZM53.428123 69.748955Q53.428123 71.85833 53.928123 72.561455Q54.428123 73.26458 55.146873 73.26458Q55.88125 73.26458 56.365623 72.561455Q56.865623 71.85833 56.865623 69.748955Q56.865623 67.623955 56.365623 66.936455Q55.88125 66.23333 55.13125 66.23333Q54.4125 66.23333 53.975 66.842705Q53.428123 67.623955 53.428123 69.748955ZM59.35 69.748955Q59.35 68.217705 59.6625 67.29583Q59.975 66.35833 60.584373 65.85833Q61.209373 65.35833 62.146873 65.35833Q62.834373 65.35833 63.35 65.63958Q63.88125 65.92083 64.225 66.45208Q64.56875 66.967705 64.75625 67.717705Q64.94375 68.467705 64.94375 69.748955Q64.94375 71.26458 64.63125 72.186455Q64.33437 73.10833 63.709373 73.623955Q63.1 74.123955 62.146873 74.123955Q60.9125 74.123955 60.19375 73.23333Q59.35 72.17083 59.35 69.748955ZM60.428123 69.748955Q60.428123 71.85833 60.928123 72.561455Q61.428123 73.26458 62.146873 73.26458Q62.88125 73.26458 63.365623 72.561455Q63.865623 71.85833 63.865623 69.748955Q63.865623 67.623955 63.365623 66.936455Q62.88125 66.23333 62.13125 66.23333Q61.4125 66.23333 60.975 66.842705Q60.428123 67.623955 60.428123 69.748955Z" fill-rule="nonzero"/><path fill="#000000" d="M127.57323 241.15L126.52635 241.15L126.52635 234.43124Q126.13573 234.79062 125.51073 235.16562Q124.90135 235.525 124.41698 235.69687L124.41698 234.68124Q125.29198 234.25937 125.94823 233.68124Q126.6201 233.0875 126.90135 232.525L127.57323 232.525L127.57323 241.15ZM137.96385 240.38437Q137.3701 240.88437 136.82323 241.0875Q136.29198 241.29062 135.66698 241.29062Q134.63573 241.29062 134.08885 240.79062Q133.54198 240.29062 133.54198 239.50937Q133.54198 239.05624 133.7451 238.68124Q133.94823 238.29062 134.29198 238.07187Q134.63573 237.8375 135.0576 237.72812Q135.35448 237.63437 135.9951 237.55624Q137.26073 237.41562 137.8701 237.19687Q137.8701 236.97812 137.8701 236.93124Q137.8701 236.275 137.57323 236.00937Q137.16698 235.66562 136.3701 235.66562Q135.63573 235.66562 135.27635 235.93124Q134.91698 236.18124 134.7451 236.8375L133.71385 236.69687Q133.85448 236.04062 134.1826 235.63437Q134.51073 235.22812 135.1201 235.00937Q135.72948 234.79062 136.52635 234.79062Q137.32323 234.79062 137.82323 234.97812Q138.32323 235.16562 138.5576 235.44687Q138.79198 235.72812 138.88573 236.16562Q138.9326 236.43124 138.9326 237.13437L138.9326 238.54062Q138.9326 240.00937 138.9951 240.4Q139.07323 240.79062 139.27635 241.15L138.16698 241.15Q138.01073 240.82187 137.96385 240.38437ZM137.8701 238.025Q137.29198 238.25937 136.15135 238.43124Q135.4951 238.525 135.22948 238.65Q134.96385 238.75937 134.8076 238.97812Q134.66698 239.19687 134.66698 239.47812Q134.66698 239.9 134.97948 240.18124Q135.3076 240.4625 135.91698 240.4625Q136.52635 240.4625 136.9951 240.19687Q137.47948 239.93124 137.69823 239.4625Q137.8701 239.10312 137.8701 238.41562L137.8701 238.025ZM140.90135 243.54062L140.90135 234.93124L141.85448 234.93124L141.85448 235.72812Q142.19823 235.25937 142.6201 235.025Q143.0576 234.79062 143.66698 234.79062Q144.46385 234.79062 145.07323 235.19687Q145.6826 235.60312 145.97948 236.35312Q146.29198 237.10312 146.29198 237.99374Q146.29198 238.94687 145.94823 239.7125Q145.6201 240.47812 144.96385 240.88437Q144.3076 241.29062 143.58885 241.29062Q143.0576 241.29062 142.63573 241.07187Q142.21385 240.8375 141.94823 240.50937L141.94823 243.54062L140.90135 243.54062ZM141.85448 238.07187Q141.85448 239.275 142.33885 239.85312Q142.82323 240.41562 143.51073 240.41562Q144.21385 240.41562 144.71385 239.82187Q145.21385 239.22812 145.21385 237.97812Q145.21385 236.79062 144.72948 236.2125Q144.2451 235.61874 143.5576 235.61874Q142.88573 235.61874 142.3701 236.24374Q141.85448 236.86874 141.85448 238.07187ZM147.90135 243.54062L147.90135 234.93124L148.85448 234.93124L148.85448 235.72812Q149.19823 235.25937 149.6201 235.025Q150.0576 234.79062 150.66698 234.79062Q151.46385 234.79062 152.07323 235.19687Q152.6826 235.60312 152.97948 236.35312Q153.29198 237.10312 153.29198 237.99374Q153.29198 238.94687 152.94823 239.7125Q152.6201 240.47812 151.96385 240.88437Q151.3076 241.29062 150.58885 241.29062Q150.0576 241.29062 149.63573 241.07187Q149.21385 240.8375 148.94823 240.50937L148.94823 243.54062L147.90135 243.54062ZM148.85448 238.07187Q148.85448 239.275 149.33885 239.85312Q149.82323 240.41562 150.51073 240.41562Q151.21385 240.41562 151.71385 239.82187Q152.21385 239.22812 152.21385 237.97812Q152.21385 236.79062 151.72948 236.2125Q151.2451 235.61874 150.5576 235.61874Q149.88573 235.61874 149.3701 236.24374Q148.85448 236.86874 148.85448 238.07187Z" fill-rule="nonzero"/><path fill="#000000" d="M219.0 238.9L220.10938 238.80624Q220.23438 239.61874 220.67188 240.025Q221.125 240.43124 221.76562 240.43124Q222.51562 240.43124 223.04688 239.85312Q223.57812 239.275 223.57812 238.3375Q223.57812 237.43124 223.0625 236.91562Q222.5625 236.38437 221.73438 236.38437Q221.23438 236.38437 220.8125 236.61874Q220.40625 236.85312 220.17188 237.2125L219.1875 237.0875L220.01562 232.68124L224.29688 232.68124L224.29688 233.68124L220.85938 233.68124L220.40625 235.99374Q221.17188 235.44687 222.01562 235.44687Q223.14062 235.44687 223.90625 236.22812Q224.6875 237.00937 224.6875 238.24374Q224.6875 239.4 224.01562 240.25937Q223.1875 241.29062 221.76562 241.29062Q220.59375 241.29062 219.84375 240.63437Q219.10938 239.97812 219.0 238.9ZM233.35938 240.38437Q232.76562 240.88437 232.21875 241.0875Q231.6875 241.29062 231.0625 241.29062Q230.03125 241.29062 229.48438 240.79062Q228.9375 240.29062 228.9375 239.50937Q228.9375 239.05624 229.14062 238.68124Q229.34375 238.29062 229.6875 238.07187Q230.03125 237.8375 230.45312 237.72812Q230.75 237.63437 231.39062 237.55624Q232.65625 237.41562 233.26562 237.19687Q233.26562 236.97812 233.26562 236.93124Q233.26562 236.275 232.96875 236.00937Q232.5625 235.66562 231.76562 235.66562Q231.03125 235.66562 230.67188 235.93124Q230.3125 236.18124 230.14062 236.8375L229.10938 236.69687Q229.25 236.04062 229.57812 235.63437Q229.90625 235.22812 230.51562 235.00937Q231.125 234.79062 231.92188 234.79062Q232.71875 234.79062 233.21875 234.97812Q233.71875 235.16562 233.95312 235.44687Q234.1875 235.72812 234.28125 236.16562Q234.32812 236.43124 234.32812 237.13437L234.32812 238.54062Q234.32812 240.00937 234.39062 240.4Q234.46875 240.79062 234.67188 241.15L233.5625 241.15Q233.40625 240.82187 233.35938 240.38437ZM233.26562 238.025Q232.6875 238.25937 231.54688 238.43124Q230.89062 238.525 230.625 238.65Q230.35938 238.75937 230.20312 238.97812Q230.0625 239.19687 230.0625 239.47812Q230.0625 239.9 230.375 240.18124Q230.70312 240.4625 231.3125 240.4625Q231.92188 240.4625 232.39062 240.19687Q232.875 239.93124 233.09375 239.4625Q233.26562 239.10312 233.26562 238.41562L233.26562 238.025ZM236.29688 243.54062L236.29688 234.93124L237.25 234.93124L237.25 235.72812Q237.59375 235.25937 238.01562 235.025Q238.45312 234.79062 239.0625 234.79062Q239.85938 234.79062 240.46875 235.19687Q241.07812 235.60312 241.375 236.35312Q241.6875 237.10312 241.6875 237.99374Q241.6875 238.94687 241.34375 239.7125Q241.01562 240.47812 240.35938 240.88437Q239.70312 241.29062 238.98438 241.29062Q238.45312 241.29062 238.03125 241.07187Q237.60938 240.8375 237.34375 240.50937L237.34375 243.54062L236.29688 243.54062ZM237.25 238.07187Q237.25 239.275 237.73438 239.85312Q238.21875 240.41562 238.90625 240.41562Q239.60938 240.41562 240.10938 239.82187Q240.60938 239.22812 240.60938 237.97812Q240.60938 236.79062 240.125 236.2125Q239.64062 235.61874 238.95312 235.61874Q238.28125 235.61874 237.76562 236.24374Q237.25 236.86874 237.25 238.07187ZM243.29688 243.54062L243.29688 234.93124L244.25 234.93124L244.25 235.72812Q244.59375 235.25937 245.01562 235.025Q245.45312 234.79062 246.0625 234.79062Q246.85938 234.79062 247.46875 235.19687Q248.07812 235.60312 248.375 236.35312Q248.6875 237.10312 248.6875 237.99374Q248.6875 238.94687 248.34375 239.7125Q248.01562 240.47812 247.35938 240.88437Q246.70312 241.29062 245.98438 241.29062Q245.45312 241.29062 245.03125 241.07187Q244.60938 240.8375 244.34375 240.50937L244.34375 243.54062L243.29688 243.54062ZM244.25 238.07187Q244.25 239.275 244.73438 239.85312Q245.21875 240.41562 245.90625 240.41562Q246.60938 240.41562 247.10938 239.82187Q247.60938 239.22812 247.60938 237.97812Q247.60938 236.79062 247.125 236.2125Q246.64062 235.61874 245.95312 235.61874Q245.28125 235.61874 244.76562 236.24374Q244.25 236.86874 244.25 238.07187ZM249.875 239.29062L250.90625 239.13437Q251.0 239.75937 251.39062 240.0875Q251.79688 240.41562 252.53125 240.41562Q253.25 240.41562 253.59375 240.13437Q253.95312 239.8375 253.95312 239.43124Q253.95312 239.07187 253.64062 238.86874Q253.42188 238.72812 252.5625 238.50937Q251.40625 238.2125 250.95312 238.00937Q250.51562 237.79062 250.28125 237.41562Q250.04688 237.04062 250.04688 236.57187Q250.04688 236.16562 250.23438 235.80624Q250.42188 235.44687 250.75 235.2125Q251.0 235.04062 251.42188 234.91562Q251.84375 234.79062 252.34375 234.79062Q253.0625 234.79062 253.60938 235.00937Q254.17188 235.2125 254.4375 235.57187Q254.70312 235.93124 254.79688 236.525L253.76562 236.66562Q253.70312 236.19687 253.35938 235.93124Q253.03125 235.65 252.40625 235.65Q251.6875 235.65 251.375 235.9Q251.0625 236.13437 251.0625 236.4625Q251.0625 236.66562 251.1875 236.82187Q251.32812 236.99374 251.59375 237.10312Q251.75 237.16562 252.53125 237.36874Q253.65625 237.68124 254.09375 237.86874Q254.53125 238.05624 254.78125 238.41562Q255.03125 238.775 255.03125 239.32187Q255.03125 239.85312 254.71875 240.32187Q254.42188 240.775 253.84375 241.04062Q253.26562 241.29062 252.53125 241.29062Q251.3125 241.29062 250.67188 240.79062Q250.04688 240.275 249.875 239.29062Z" fill-rule="nonzero"/><path fill="#000000" d="M318.36426 241.15L317.31738 241.15L317.31738 234.43124Q316.92676 234.79062 316.30176 235.16562Q315.69238 235.525 315.208 235.69687L315.208 234.68124Q316.083 234.25937 316.73926 233.68124Q317.41113 233.0875 317.69238 232.525L318.36426 232.525L318.36426 241.15ZM321.3955 236.91562Q321.3955 235.38437 321.708 234.4625Q322.0205 233.525 322.62988 233.025Q323.25488 232.525 324.19238 232.525Q324.87988 232.525 325.3955 232.80624Q325.92676 233.0875 326.2705 233.61874Q326.61426 234.13437 326.80176 234.88437Q326.98926 235.63437 326.98926 236.91562Q326.98926 238.43124 326.67676 239.35312Q326.37988 240.275 325.75488 240.79062Q325.1455 241.29062 324.19238 241.29062Q322.958 241.29062 322.23926 240.4Q321.3955 239.3375 321.3955 236.91562ZM322.47363 236.91562Q322.47363 239.025 322.97363 239.72812Q323.47363 240.43124 324.19238 240.43124Q324.92676 240.43124 325.41113 239.72812Q325.91113 239.025 325.91113 236.91562Q325.91113 234.79062 325.41113 234.10312Q324.92676 233.4 324.17676 233.4Q323.458 233.4 323.0205 234.00937Q322.47363 234.79062 322.47363 236.91562ZM335.75488 240.38437Q335.16113 240.88437 334.61426 241.0875Q334.083 241.29062 333.458 241.29062Q332.42676 241.29062 331.87988 240.79062Q331.333 240.29062 331.333 239.50937Q331.333 239.05624 331.53613 238.68124Q331.73926 238.29062 332.083 238.07187Q332.42676 237.8375 332.84863 237.72812Q333.1455 237.63437 333.78613 237.55624Q335.05176 237.41562 335.66113 237.19687Q335.66113 236.97812 335.66113 236.93124Q335.66113 236.275 335.36426 236.00937Q334.958 235.66562 334.16113 235.66562Q333.42676 235.66562 333.06738 235.93124Q332.708 236.18124 332.53613 236.8375L331.50488 236.69687Q331.6455 236.04062 331.97363 235.63437Q332.30176 235.22812 332.91113 235.00937Q333.5205 234.79062 334.31738 234.79062Q335.11426 234.79062 335.61426 234.97812Q336.11426 235.16562 336.34863 235.44687Q336.583 235.72812 336.67676 236.16562Q336.72363 236.43124 336.72363 237.13437L336.72363 238.54062Q336.72363 240.00937 336.78613 240.4Q336.86426 240.79062 337.06738 241.15L335.958 241.15Q335.80176 240.82187 335.75488 240.38437ZM335.66113 238.025Q335.083 238.25937 333.94238 238.43124Q333.28613 238.525 333.0205 238.65Q332.75488 238.75937 332.59863 238.97812Q332.458 239.19687 332.458 239.47812Q332.458 239.9 332.7705 240.18124Q333.09863 240.4625 333.708 240.4625Q334.31738 240.4625 334.78613 240.19687Q335.2705 239.93124 335.48926 239.4625Q335.66113 239.10312 335.66113 238.41562L335.66113 238.025ZM338.69238 243.54062L338.69238 234.93124L339.6455 234.93124L339.6455 235.72812Q339.98926 235.25937 340.41113 235.025Q340.84863 234.79062 341.458 234.79062Q342.25488 234.79062 342.86426 235.19687Q343.47363 235.60312 343.7705 236.35312Q344.083 237.10312 344.083 237.99374Q344.083 238.94687 343.73926 239.7125Q343.41113 240.47812 342.75488 240.88437Q342.09863 241.29062 341.37988 241.29062Q340.84863 241.29062 340.42676 241.07187Q340.00488 240.8375 339.73926 240.50937L339.73926 243.54062L338.69238 243.54062ZM339.6455 238.07187Q339.6455 239.275 340.12988 239.85312Q340.61426 240.41562 341.30176 240.41562Q342.00488 240.41562 342.50488 239.82187Q343.00488 239.22812 343.00488 237.97812Q343.00488 236.79062 342.5205 236.2125Q342.03613 235.61874 341.34863 235.61874Q340.67676 235.61874 340.16113 236.24374Q339.6455 236.86874 339.6455 238.07187ZM345.69238 243.54062L345.69238 234.93124L346.6455 234.93124L346.6455 235.72812Q346.98926 235.25937 347.41113 235.025Q347.84863 234.79062 348.458 234.79062Q349.25488 234.79062 349.86426 235.19687Q350.47363 235.60312 350.7705 236.35312Q351.083 237.10312 351.083 237.99374Q351.083 238.94687 350.73926 239.7125Q350.41113 240.47812 349.75488 240.88437Q349.09863 241.29062 348.37988 241.29062Q347.84863 241.29062 347.42676 241.07187Q347.00488 240.8375 346.73926 240.50937L346.73926 243.54062L345.69238 243.54062ZM346.6455 238.07187Q346.6455 239.275 347.12988 239.85312Q347.61426 240.41562 348.30176 240.41562Q349.00488 240.41562 349.50488 239.82187Q350.00488 239.22812 350.00488 237.97812Q350.00488 236.79062 349.5205 236.2125Q349.03613 235.61874 348.34863 235.61874Q347.67676 235.61874 347.16113 236.24374Q346.6455 236.86874 346.6455 238.07187ZM352.2705 239.29062L353.30176 239.13437Q353.3955 239.75937 353.78613 240.0875Q354.19238 240.41562 354.92676 240.41562Q355.6455 240.41562 355.98926 240.13437Q356.34863 239.8375 356.34863 239.43124Q356.34863 239.07187 356.03613 238.86874Q355.81738 238.72812 354.958 238.50937Q353.80176 238.2125 353.34863 238.00937Q352.91113 237.79062 352.67676 237.41562Q352.44238 237.04062 352.44238 236.57187Q352.44238 236.16562 352.62988 235.80624Q352.81738 235.44687 353.1455 235.2125Q353.3955 235.04062 353.81738 234.91562Q354.23926 234.79062 354.73926 234.79062Q355.458 234.79062 356.00488 235.00937Q356.56738 235.2125 356.833 235.57187Q357.09863 235.93124 357.19238 236.525L356.16113 236.66562Q356.09863 236.19687 355.75488 235.93124Q355.42676 235.65 354.80176 235.65Q354.083 235.65 353.7705 235.9Q353.458 236.13437 353.458 236.4625Q353.458 236.66562 353.583 236.82187Q353.72363 236.99374 353.98926 237.10312Q354.1455 237.16562 354.92676 237.36874Q356.05176 237.68124 356.48926 237.86874Q356.92676 238.05624 357.17676 238.41562Q357.42676 238.775 357.42676 239.32187Q357.42676 239.85312 357.11426 240.32187Q356.81738 240.775 356.23926 241.04062Q355.66113 241.29062 354.92676 241.29062Q353.708 241.29062 353.06738 240.79062Q352.44238 240.275 352.2705 239.29062Z" fill-rule="nonzero"/><path fill="#4285f4" d="M83.5 42.416668C83.5 41.864384 83.947716 41.416668 84.5 41.416668L94.5 41.416668C95.052284 41.416668 95.5 41.864384 95.5 42.416668L95.5 52.416668C95.5 52.968952 95.052284 53.416668 94.5 53.416668L84.5 53.416668C83.947716 53.416668 83.5 52.968952 83.5 52.416668Z" fill-rule="nonzero"/><path fill="#1a1a1a" d="M108.453125 48.041668L108.453125 47.041668L112.078125 47.026043L112.078125 50.213543Q111.25 50.885418 110.359375 51.229168Q109.46875 51.557293 108.53125 51.557293Q107.265625 51.557293 106.21875 51.026043Q105.1875 50.479168 104.65625 49.463543Q104.140625 48.432293 104.140625 47.166668Q104.140625 45.901043 104.65625 44.822918Q105.1875 43.729168 106.171875 43.213543Q107.15625 42.682293 108.4375 42.682293Q109.375 42.682293 110.125 42.979168Q110.875 43.276043 111.296875 43.822918Q111.734375 44.354168 111.953125 45.229168L110.9375 45.510418Q110.734375 44.854168 110.4375 44.479168Q110.15625 44.104168 109.625 43.885418Q109.09375 43.651043 108.453125 43.651043Q107.671875 43.651043 107.09375 43.885418Q106.53125 44.119793 106.171875 44.510418Q105.828125 44.901043 105.640625 45.369793Q105.3125 46.166668 105.3125 47.088543Q105.3125 48.244793 105.703125 49.026043Q106.109375 49.791668 106.859375 50.166668Q107.609375 50.541668 108.46875 50.541668Q109.203125 50.541668 109.90625 50.260418Q110.609375 49.963543 110.96875 49.651043L110.96875 48.041668L108.453125 48.041668ZM113.453125 51.416668L113.453125 42.822918L119.65625 42.822918L119.65625 43.838543L114.59375 43.838543L114.59375 46.463543L119.34375 46.463543L119.34375 47.479168L114.59375 47.479168L114.59375 50.401043L119.859375 50.401043L119.859375 51.416668L113.453125 51.416668ZM121.078125 47.229168Q121.078125 45.088543 122.21875 43.885418Q123.375 42.666668 125.1875 42.666668Q126.390625 42.666668 127.34375 43.244793Q128.29688 43.807293 128.79688 44.822918Q129.29688 45.838543 129.29688 47.135418Q129.29688 48.432293 128.76562 49.463543Q128.23438 50.494793 127.265625 51.026043Q126.3125 51.557293 125.1875 51.557293Q123.96875 51.557293 123.015625 50.979168Q122.0625 50.385418 121.5625 49.385418Q121.078125 48.369793 121.078125 47.229168ZM122.25 47.244793Q122.25 48.807293 123.078125 49.697918Q123.921875 50.588543 125.1875 50.588543Q126.46875 50.588543 127.296875 49.697918Q128.125 48.791668 128.125 47.119793Q128.125 46.072918 127.765625 45.291668Q127.421875 44.510418 126.734375 44.088543Q126.046875 43.651043 125.203125 43.651043Q124.0 43.651043 123.125 44.479168Q122.25 45.307293 122.25 47.244793ZM129.875 48.838543L129.875 47.776043L133.125 47.776043L133.125 48.838543L129.875 48.838543ZM140.5625 48.401043L141.6875 48.697918Q141.32812 50.088543 140.40625 50.822918Q139.48438 51.557293 138.14062 51.557293Q136.75 51.557293 135.875 50.994793Q135.0 50.432293 134.54688 49.369793Q134.09375 48.291668 134.09375 47.057293Q134.09375 45.713543 134.60938 44.713543Q135.125 43.713543 136.0625 43.197918Q137.01562 42.682293 138.15625 42.682293Q139.4375 42.682293 140.3125 43.338543Q141.20312 43.994793 141.54688 45.182293L140.42188 45.447918Q140.125 44.510418 139.54688 44.088543Q138.98438 43.651043 138.125 43.651043Q137.14062 43.651043 136.46875 44.135418Q135.8125 44.604168 135.53125 45.401043Q135.26562 46.197918 135.26562 47.057293Q135.26562 48.151043 135.57812 48.963543Q135.90625 49.776043 136.57812 50.182293Q137.25 50.588543 138.04688 50.588543Q139.0 50.588543 139.65625 50.041668Q140.32812 49.494793 140.5625 48.401043ZM143.26562 51.416668L143.26562 42.822918L144.32812 42.822918L144.32812 51.416668L143.26562 51.416668ZM150.375 51.416668L150.375 50.494793Q149.64062 51.557293 148.39062 51.557293Q147.84375 51.557293 147.35938 51.354168Q146.89062 51.135418 146.65625 50.822918Q146.42188 50.494793 146.32812 50.026043Q146.26562 49.729168 146.26562 49.041668L146.26562 45.197918L147.32812 45.197918L147.32812 48.651043Q147.32812 49.463543 147.39062 49.760418Q147.48438 50.166668 147.79688 50.416668Q148.125 50.651043 148.60938 50.651043Q149.07812 50.651043 149.48438 50.416668Q149.90625 50.166668 150.07812 49.744793Q150.26562 49.322918 150.26562 48.526043L150.26562 45.197918L151.3125 45.197918L151.3125 51.416668L150.375 51.416668ZM152.875 49.557293L153.90625 49.401043Q154.0 50.026043 154.39062 50.354168Q154.79688 50.682293 155.53125 50.682293Q156.25 50.682293 156.59375 50.401043Q156.95312 50.104168 156.95312 49.697918Q156.95312 49.338543 156.64062 49.135418Q156.42188 48.994793 155.5625 48.776043Q154.40625 48.479168 153.95312 48.276043Q153.51562 48.057293 153.28125 47.682293Q153.04688 47.307293 153.04688 46.838543Q153.04688 46.432293 153.23438 46.072918Q153.42188 45.713543 153.75 45.479168Q154.0 45.307293 154.42188 45.182293Q154.84375 45.057293 155.34375 45.057293Q156.0625 45.057293 156.60938 45.276043Q157.17188 45.479168 157.4375 45.838543Q157.70312 46.197918 157.79688 46.791668L156.76562 46.932293Q156.70312 46.463543 156.35938 46.197918Q156.03125 45.916668 155.40625 45.916668Q154.6875 45.916668 154.375 46.166668Q154.0625 46.401043 154.0625 46.729168Q154.0625 46.932293 154.1875 47.088543Q154.32812 47.260418 154.59375 47.369793Q154.75 47.432293 155.53125 47.635418Q156.65625 47.947918 157.09375 48.135418Q157.53125 48.322918 157.78125 48.682293Q158.03125 49.041668 158.03125 49.588543Q158.03125 50.119793 157.71875 50.588543Q157.42188 51.041668 156.84375 51.307293Q156.26562 51.557293 155.53125 51.557293Q154.3125 51.557293 153.67188 51.057293Q153.04688 50.541668 152.875 49.557293ZM162.59375 50.479168L162.75 51.401043Q162.29688 51.494793 161.95312 51.494793Q161.375 51.494793 161.0625 51.322918Q160.75 51.135418 160.60938 50.838543Q160.48438 50.541668 160.48438 49.588543L160.48438 46.010418L159.71875 46.010418L159.71875 45.197918L160.48438 45.197918L160.48438 43.651043L161.53125 43.026043L161.53125 45.197918L162.59375 45.197918L162.59375 46.010418L161.53125 46.010418L161.53125 49.651043Q161.53125 50.104168 161.57812 50.229168Q161.64062 50.354168 161.76562 50.432293Q161.89062 50.510418 162.125 50.510418Q162.3125 50.510418 162.59375 50.479168ZM167.54688 49.416668L168.64062 49.541668Q168.39062 50.494793 167.6875 51.026043Q166.98438 51.557293 165.90625 51.557293Q164.54688 51.557293 163.73438 50.713543Q162.9375 49.869793 162.9375 48.354168Q162.9375 46.791668 163.75 45.932293Q164.5625 45.057293 165.84375 45.057293Q167.09375 45.057293 167.875 45.901043Q168.67188 46.744793 168.67188 48.291668Q168.67188 48.385418 168.67188 48.572918L164.03125 48.572918Q164.09375 49.604168 164.60938 50.151043Q165.125 50.682293 165.90625 50.682293Q166.48438 50.682293 166.89062 50.385418Q167.3125 50.072918 167.54688 49.416668ZM164.09375 47.713543L167.5625 47.713543Q167.5 46.916668 167.17188 46.526043Q166.65625 45.916668 165.85938 45.916668Q165.125 45.916668 164.625 46.401043Q164.14062 46.885418 164.09375 47.713543ZM170.28125 51.416668L170.28125 45.197918L171.23438 45.197918L171.23438 46.135418Q171.59375 45.479168 171.89062 45.276043Q172.20312 45.057293 172.57812 45.057293Q173.10938 45.057293 173.65625 45.385418L173.29688 46.369793Q172.90625 46.135418 172.53125 46.135418Q172.17188 46.135418 171.89062 46.354168Q171.625 46.557293 171.51562 46.932293Q171.32812 47.494793 171.32812 48.151043L171.32812 51.416668L170.28125 51.416668Z" fill-rule="nonzero"/><path fill="#ea4335" d="M189.5 42.416668C189.5 41.864384 189.94771 41.416668 190.5 41.416668L200.5 41.416668C201.05229 41.416668 201.5 41.864384 201.5 42.416668L201.5 52.416668C201.5 52.968952 201.05229 53.416668 200.5 53.416668L190.5 53.416668C189.94771 53.416668 189.5 52.968952 189.5 52.416668Z" fill-rule="nonzero"/><path fill="#1a1a1a" d="M214.45312 48.041668L214.45312 47.041668L218.07812 47.026043L218.07812 50.213543Q217.25 50.885418 216.35938 51.229168Q215.46875 51.557293 214.53125 51.557293Q213.26562 51.557293 212.21875 51.026043Q211.1875 50.479168 210.65625 49.463543Q210.14062 48.432293 210.14062 47.166668Q210.14062 45.901043 210.65625 44.822918Q211.1875 43.729168 212.17188 43.213543Q213.15625 42.682293 214.4375 42.682293Q215.375 42.682293 216.125 42.979168Q216.875 43.276043 217.29688 43.822918Q217.73438 44.354168 217.95312 45.229168L216.9375 45.510418Q216.73438 44.854168 216.4375 44.479168Q216.15625 44.104168 215.625 43.885418Q215.09375 43.651043 214.45312 43.651043Q213.67188 43.651043 213.09375 43.885418Q212.53125 44.119793 212.17188 44.510418Q211.82812 44.901043 211.64062 45.369793Q211.3125 46.166668 211.3125 47.088543Q211.3125 48.244793 211.70312 49.026043Q212.10938 49.791668 212.85938 50.166668Q213.60938 50.541668 214.46875 50.541668Q215.20312 50.541668 215.90625 50.260418Q216.60938 49.963543 216.96875 49.651043L216.96875 48.041668L214.45312 48.041668ZM219.45312 51.416668L219.45312 42.822918L225.65625 42.822918L225.65625 43.838543L220.59375 43.838543L220.59375 46.463543L225.34375 46.463543L225.34375 47.479168L220.59375 47.479168L220.59375 50.401043L225.85938 50.401043L225.85938 51.416668L219.45312 51.416668ZM227.07812 47.229168Q227.07812 45.088543 228.21875 43.885418Q229.375 42.666668 231.1875 42.666668Q232.39062 42.666668 233.34375 43.244793Q234.29688 43.807293 234.79688 44.822918Q235.29688 45.838543 235.29688 47.135418Q235.29688 48.432293 234.76562 49.463543Q234.23438 50.494793 233.26562 51.026043Q232.3125 51.557293 231.1875 51.557293Q229.96875 51.557293 229.01562 50.979168Q228.0625 50.385418 227.5625 49.385418Q227.07812 48.369793 227.07812 47.229168ZM228.25 47.244793Q228.25 48.807293 229.07812 49.697918Q229.92188 50.588543 231.1875 50.588543Q232.46875 50.588543 233.29688 49.697918Q234.125 48.791668 234.125 47.119793Q234.125 46.072918 233.76562 45.291668Q233.42188 44.510418 232.73438 44.088543Q232.04688 43.651043 231.20312 43.651043Q230.0 43.651043 229.125 44.479168Q228.25 45.307293 228.25 47.244793ZM243.35938 50.651043Q242.76562 51.151043 242.21875 51.354168Q241.6875 51.557293 241.0625 51.557293Q240.03125 51.557293 239.48438 51.057293Q238.9375 50.557293 238.9375 49.776043Q238.9375 49.322918 239.14062 48.947918Q239.34375 48.557293 239.6875 48.338543Q240.03125 48.104168 240.45312 47.994793Q240.75 47.901043 241.39062 47.822918Q242.65625 47.682293 243.26562 47.463543Q243.26562 47.244793 243.26562 47.197918Q243.26562 46.541668 242.96875 46.276043Q242.5625 45.932293 241.76562 45.932293Q241.03125 45.932293 240.67188 46.197918Q240.3125 46.447918 240.14062 47.104168L239.10938 46.963543Q239.25 46.307293 239.57812 45.901043Q239.90625 45.494793 240.51562 45.276043Q241.125 45.057293 241.92188 45.057293Q242.71875 45.057293 243.21875 45.244793Q243.71875 45.432293 243.95312 45.713543Q244.1875 45.994793 244.28125 46.432293Q244.32812 46.697918 244.32812 47.401043L244.32812 48.807293Q244.32812 50.276043 244.39062 50.666668Q244.46875 51.057293 244.67188 51.416668L243.5625 51.416668Q243.40625 51.088543 243.35938 50.651043ZM243.26562 48.291668Q242.6875 48.526043 241.54688 48.697918Q240.89062 48.791668 240.625 48.916668Q240.35938 49.026043 240.20312 49.244793Q240.0625 49.463543 240.0625 49.744793Q240.0625 50.166668 240.375 50.447918Q240.70312 50.729168 241.3125 50.729168Q241.92188 50.729168 242.39062 50.463543Q242.875 50.197918 243.09375 49.729168Q243.26562 49.369793 243.26562 48.682293L243.26562 48.291668ZM246.29688 51.416668L246.29688 45.197918L247.23438 45.197918L247.23438 46.072918Q247.92188 45.057293 249.21875 45.057293Q249.78125 45.057293 250.25 45.260418Q250.73438 45.463543 250.96875 45.791668Q251.20312 46.119793 251.29688 46.557293Q251.34375 46.854168 251.34375 47.588543L251.34375 51.416668L250.29688 51.416668L250.29688 47.635418Q250.29688 46.979168 250.17188 46.666668Q250.04688 46.354168 249.73438 46.166668Q249.42188 45.963543 249.0 45.963543Q248.32812 45.963543 247.82812 46.401043Q247.34375 46.822918 247.34375 48.010418L247.34375 51.416668L246.29688 51.416668ZM257.32812 51.416668L257.32812 50.635418Q256.73438 51.557293 255.59375 51.557293Q254.84375 51.557293 254.21875 51.151043Q253.59375 50.729168 253.25 49.994793Q252.90625 49.260418 252.90625 48.307293Q252.90625 47.385418 253.21875 46.619793Q253.53125 45.854168 254.15625 45.463543Q254.78125 45.057293 255.54688 45.057293Q256.10938 45.057293 256.54688 45.291668Q256.98438 45.526043 257.26562 45.901043L257.26562 42.822918L258.3125 42.822918L258.3125 51.416668L257.32812 51.416668ZM254.0 48.307293Q254.0 49.510418 254.5 50.104168Q255.0 50.682293 255.6875 50.682293Q256.375 50.682293 256.85938 50.119793Q257.34375 49.557293 257.34375 48.401043Q257.34375 47.119793 256.84375 46.526043Q256.35938 45.932293 255.64062 45.932293Q254.9375 45.932293 254.46875 46.510418Q254.0 47.072918 254.0 48.307293ZM269.5625 48.401043L270.6875 48.697918Q270.32812 50.088543 269.40625 50.822918Q268.48438 51.557293 267.14062 51.557293Q265.75 51.557293 264.875 50.994793Q264.0 50.432293 263.54688 49.369793Q263.09375 48.291668 263.09375 47.057293Q263.09375 45.713543 263.60938 44.713543Q264.125 43.713543 265.0625 43.197918Q266.01562 42.682293 267.15625 42.682293Q268.4375 42.682293 269.3125 43.338543Q270.20312 43.994793 270.54688 45.182293L269.42188 45.447918Q269.125 44.510418 268.54688 44.088543Q267.98438 43.651043 267.125 43.651043Q266.14062 43.651043 265.46875 44.135418Q264.8125 44.604168 264.53125 45.401043Q264.26562 46.197918 264.26562 47.057293Q264.26562 48.151043 264.57812 48.963543Q264.90625 49.776043 265.57812 50.182293Q266.25 50.588543 267.04688 50.588543Q268.0 50.588543 268.65625 50.041668Q269.32812 49.494793 269.5625 48.401043ZM272.42188 51.416668L272.42188 42.822918L275.67188 42.822918Q276.51562 42.822918 276.96875 42.901043Q277.60938 43.010418 278.03125 43.307293Q278.46875 43.604168 278.71875 44.135418Q278.98438 44.666668 278.98438 45.307293Q278.98438 46.401043 278.28125 47.166668Q277.59375 47.916668 275.76562 47.916668L273.5625 47.916668L273.5625 51.416668L272.42188 51.416668ZM273.5625 46.916668L275.78125 46.916668Q276.89062 46.916668 277.34375 46.510418Q277.8125 46.088543 277.8125 45.338543Q277.8125 44.807293 277.53125 44.432293Q277.26562 44.041668 276.82812 43.916668Q276.53125 43.838543 275.76562 43.838543L273.5625 43.838543L273.5625 46.916668ZM286.0625 42.822918L287.20312 42.822918L287.20312 47.791668Q287.20312 49.088543 286.90625 49.854168Q286.60938 50.604168 285.84375 51.088543Q285.07812 51.557293 283.84375 51.557293Q282.64062 51.557293 281.85938 51.151043Q281.09375 50.729168 280.76562 49.947918Q280.4375 49.151043 280.4375 47.791668L280.4375 42.822918L281.57812 42.822918L281.57812 47.776043Q281.57812 48.901043 281.78125 49.432293Q282.0 49.963543 282.5 50.260418Q283.01562 50.541668 283.75 50.541668Q285.0 50.541668 285.53125 49.979168Q286.0625 49.401043 286.0625 47.776043L286.0625 42.822918ZM288.875 48.838543L288.875 47.776043L292.125 47.776043L292.125 48.838543L288.875 48.838543ZM299.5625 48.401043L300.6875 48.697918Q300.32812 50.088543 299.40625 50.822918Q298.48438 51.557293 297.14062 51.557293Q295.75 51.557293 294.875 50.994793Q294.0 50.432293 293.54688 49.369793Q293.09375 48.291668 293.09375 47.057293Q293.09375 45.713543 293.60938 44.713543Q294.125 43.713543 295.0625 43.197918Q296.01562 42.682293 297.15625 42.682293Q298.4375 42.682293 299.3125 43.338543Q300.20312 43.994793 300.54688 45.182293L299.42188 45.447918Q299.125 44.510418 298.54688 44.088543Q297.98438 43.651043 297.125 43.651043Q296.14062 43.651043 295.46875 44.135418Q294.8125 44.604168 294.53125 45.401043Q294.26562 46.197918 294.26562 47.057293Q294.26562 48.151043 294.57812 48.963543Q294.90625 49.776043 295.57812 50.182293Q296.25 50.588543 297.04688 50.588543Q298.0 50.588543 298.65625 50.041668Q299.32812 49.494793 299.5625 48.401043ZM302.26562 51.416668L302.26562 42.822918L303.32812 42.822918L303.32812 51.416668L302.26562 51.416668ZM309.375 51.416668L309.375 50.494793Q308.64062 51.557293 307.39062 51.557293Q306.84375 51.557293 306.35938 51.354168Q305.89062 51.135418 305.65625 50.822918Q305.42188 50.494793 305.32812 50.026043Q305.26562 49.729168 305.26562 49.041668L305.26562 45.197918L306.32812 45.197918L306.32812 48.651043Q306.32812 49.463543 306.39062 49.760418Q306.48438 50.166668 306.79688 50.416668Q307.125 50.651043 307.60938 50.651043Q308.07812 50.651043 308.48438 50.416668Q308.90625 50.166668 309.07812 49.744793Q309.26562 49.322918 309.26562 48.526043L309.26562 45.197918L310.3125 45.197918L310.3125 51.416668L309.375 51.416668ZM311.875 49.557293L312.90625 49.401043Q313.0 50.026043 313.39062 50.354168Q313.79688 50.682293 314.53125 50.682293Q315.25 50.682293 315.59375 50.401043Q315.95312 50.104168 315.95312 49.697918Q315.95312 49.338543 315.64062 49.135418Q315.42188 48.994793 314.5625 48.776043Q313.40625 48.479168 312.95312 48.276043Q312.51562 48.057293 312.28125 47.682293Q312.04688 47.307293 312.04688 46.838543Q312.04688 46.432293 312.23438 46.072918Q312.42188 45.713543 312.75 45.479168Q313.0 45.307293 313.42188 45.182293Q313.84375 45.057293 314.34375 45.057293Q315.0625 45.057293 315.60938 45.276043Q316.17188 45.479168 316.4375 45.838543Q316.70312 46.197918 316.79688 46.791668L315.76562 46.932293Q315.70312 46.463543 315.35938 46.197918Q315.03125 45.916668 314.40625 45.916668Q313.6875 45.916668 313.375 46.166668Q313.0625 46.401043 313.0625 46.729168Q313.0625 46.932293 313.1875 47.088543Q313.32812 47.260418 313.59375 47.369793Q313.75 47.432293 314.53125 47.635418Q315.65625 47.947918 316.09375 48.135418Q316.53125 48.322918 316.78125 48.682293Q317.03125 49.041668 317.03125 49.588543Q317.03125 50.119793 316.71875 50.588543Q316.42188 51.041668 315.84375 51.307293Q315.26562 51.557293 314.53125 51.557293Q313.3125 51.557293 312.67188 51.057293Q312.04688 50.541668 311.875 49.557293ZM321.59375 50.479168L321.75 51.401043Q321.29688 51.494793 320.95312 51.494793Q320.375 51.494793 320.0625 51.322918Q319.75 51.135418 319.60938 50.838543Q319.48438 50.541668 319.48438 49.588543L319.48438 46.010418L318.71875 46.010418L318.71875 45.197918L319.48438 45.197918L319.48438 43.651043L320.53125 43.026043L320.53125 45.197918L321.59375 45.197918L321.59375 46.010418L320.53125 46.010418L320.53125 49.651043Q320.53125 50.104168 320.57812 50.229168Q320.64062 50.354168 320.76562 50.432293Q320.89062 50.510418 321.125 50.510418Q321.3125 50.510418 321.59375 50.479168ZM326.54688 49.416668L327.64062 49.541668Q327.39062 50.494793 326.6875 51.026043Q325.98438 51.557293 324.90625 51.557293Q323.54688 51.557293 322.73438 50.713543Q321.9375 49.869793 321.9375 48.354168Q321.9375 46.791668 322.75 45.932293Q323.5625 45.057293 324.84375 45.057293Q326.09375 45.057293 326.875 45.901043Q327.67188 46.744793 327.67188 48.291668Q327.67188 48.385418 327.67188 48.572918L323.03125 48.572918Q323.09375 49.604168 323.60938 50.151043Q324.125 50.682293 324.90625 50.682293Q325.48438 50.682293 325.89062 50.385418Q326.3125 50.072918 326.54688 49.416668ZM323.09375 47.713543L326.5625 47.713543Q326.5 46.916668 326.17188 46.526043Q325.65625 45.916668 324.85938 45.916668Q324.125 45.916668 323.625 46.401043Q323.14062 46.885418 323.09375 47.713543ZM329.28125 51.416668L329.28125 45.197918L330.23438 45.197918L330.23438 46.135418Q330.59375 45.479168 330.89062 45.276043Q331.20312 45.057293 331.57812 45.057293Q332.10938 45.057293 332.65625 45.385418L332.29688 46.369793Q331.90625 46.135418 331.53125 46.135418Q331.17188 46.135418 330.89062 46.354168Q330.625 46.557293 330.51562 46.932293Q330.32812 47.494793 330.32812 48.151043L330.32812 51.416668L329.28125 51.416668Z" fill-rule="nonzero"/><path fill="#757575" d="M130.40625 23.834375L131.92188 24.209375Q131.45312 26.084375 130.20312 27.06875Q128.96875 28.053125 127.1875 28.053125Q125.328125 28.053125 124.171875 27.303125Q123.015625 26.5375 122.40625 25.115625Q121.796875 23.678125 121.796875 22.0375Q121.796875 20.240625 122.484375 18.9125Q123.171875 17.584375 124.421875 16.896875Q125.6875 16.19375 127.203125 16.19375Q128.92188 16.19375 130.09375 17.06875Q131.26562 17.94375 131.73438 19.5375L130.23438 19.88125Q129.84375 18.63125 129.07812 18.06875Q128.32812 17.490625 127.171875 17.490625Q125.859375 17.490625 124.96875 18.13125Q124.078125 18.75625 123.71875 19.834375Q123.359375 20.896875 123.359375 22.021875Q123.359375 23.490625 123.78125 24.584375Q124.21875 25.6625 125.109375 26.209375Q126.015625 26.740625 127.0625 26.740625Q128.32812 26.740625 129.20312 26.00625Q130.09375 25.271875 130.40625 23.834375ZM134.23438 27.85L134.23438 16.396875L138.5625 16.396875Q139.70312 16.396875 140.29688 16.50625Q141.14062 16.646875 141.70312 17.0375Q142.28125 17.428125 142.625 18.146875Q142.98438 18.85 142.98438 19.709375Q142.98438 21.1625 142.04688 22.178125Q141.125 23.19375 138.6875 23.19375L135.75 23.19375L135.75 27.85L134.23438 27.85ZM135.75 21.834375L138.71875 21.834375Q140.1875 21.834375 140.79688 21.2875Q141.42188 20.740625 141.42188 19.75625Q141.42188 19.0375 141.04688 18.521875Q140.6875 18.00625 140.09375 17.85Q139.71875 17.740625 138.6875 17.740625L135.75 17.740625L135.75 21.834375ZM152.75 16.396875L154.26562 16.396875L154.26562 23.00625Q154.26562 24.740625 153.875 25.75625Q153.48438 26.771875 152.46875 27.4125Q151.45312 28.053125 149.79688 28.053125Q148.1875 28.053125 147.15625 27.490625Q146.14062 26.928125 145.70312 25.88125Q145.26562 24.834375 145.26562 23.00625L145.26562 16.396875L146.78125 16.396875L146.78125 23.00625Q146.78125 24.490625 147.04688 25.209375Q147.32812 25.9125 148.0 26.303125Q148.6875 26.678125 149.65625 26.678125Q151.32812 26.678125 152.03125 25.928125Q152.75 25.1625 152.75 23.00625L152.75 16.396875ZM155.51562 24.4125L155.51562 22.990625L159.82812 22.990625L159.82812 24.4125L155.51562 24.4125ZM161.17188 27.85L161.17188 16.396875L165.46875 16.396875Q166.78125 16.396875 167.57812 16.740625Q168.375 17.084375 168.8125 17.81875Q169.26562 18.5375 169.26562 19.31875Q169.26562 20.053125 168.85938 20.709375Q168.46875 21.35 167.67188 21.75625Q168.70312 22.053125 169.26562 22.7875Q169.82812 23.521875 169.82812 24.521875Q169.82812 25.334375 169.48438 26.021875Q169.14062 26.709375 168.64062 27.084375Q168.14062 27.459375 167.39062 27.6625Q166.64062 27.85 165.54688 27.85L161.17188 27.85ZM162.6875 21.209375L165.17188 21.209375Q166.17188 21.209375 166.60938 21.06875Q167.1875 20.896875 167.48438 20.50625Q167.78125 20.1 167.78125 19.50625Q167.78125 18.928125 167.5 18.50625Q167.23438 18.06875 166.71875 17.9125Q166.21875 17.740625 164.98438 17.740625L162.6875 17.740625L162.6875 21.209375ZM162.6875 26.490625L165.54688 26.490625Q166.28125 26.490625 166.57812 26.44375Q167.09375 26.35 167.4375 26.13125Q167.79688 25.9125 168.01562 25.490625Q168.25 25.06875 168.25 24.521875Q168.25 23.88125 167.92188 23.4125Q167.59375 22.94375 167.01562 22.75625Q166.4375 22.553125 165.34375 22.553125L162.6875 22.553125L162.6875 26.490625ZM171.53125 23.69375Q171.53125 21.396875 172.8125 20.2875Q173.89062 19.365625 175.42188 19.365625Q177.14062 19.365625 178.21875 20.490625Q179.3125 21.6 179.3125 23.584375Q179.3125 25.178125 178.82812 26.1Q178.34375 27.021875 177.42188 27.5375Q176.51562 28.0375 175.42188 28.0375Q173.6875 28.0375 172.60938 26.928125Q171.53125 25.803125 171.53125 23.69375ZM172.98438 23.69375Q172.98438 25.2875 173.67188 26.084375Q174.375 26.88125 175.42188 26.88125Q176.46875 26.88125 177.15625 26.084375Q177.85938 25.2875 177.85938 23.646875Q177.85938 22.115625 177.15625 21.31875Q176.46875 20.521875 175.42188 20.521875Q174.375 20.521875 173.67188 21.31875Q172.98438 22.1 172.98438 23.69375ZM186.5 27.85L186.5 26.63125Q185.53125 28.0375 183.85938 28.0375Q183.125 28.0375 182.48438 27.75625Q181.85938 27.475 181.54688 27.053125Q181.23438 26.615625 181.10938 26.00625Q181.03125 25.584375 181.03125 24.69375L181.03125 19.553125L182.4375 19.553125L182.4375 24.146875Q182.4375 25.25625 182.51562 25.63125Q182.65625 26.19375 183.07812 26.50625Q183.51562 26.81875 184.14062 26.81875Q184.78125 26.81875 185.32812 26.50625Q185.89062 26.178125 186.10938 25.615625Q186.34375 25.053125 186.34375 23.990625L186.34375 19.553125L187.75 19.553125L187.75 27.85L186.5 27.85ZM189.0625 27.85L189.0625 19.553125L190.32812 19.553125L190.32812 20.725Q191.23438 19.365625 192.96875 19.365625Q193.71875 19.365625 194.34375 19.63125Q194.96875 19.896875 195.28125 20.334375Q195.59375 20.771875 195.71875 21.38125Q195.79688 21.771875 195.79688 22.740625L195.79688 27.85L194.39062 27.85L194.39062 22.803125Q194.39062 21.94375 194.21875 21.521875Q194.0625 21.084375 193.64062 20.834375Q193.23438 20.584375 192.67188 20.584375Q191.76562 20.584375 191.10938 21.1625Q190.46875 21.725 190.46875 23.31875L190.46875 27.85L189.0625 27.85ZM202.4375 27.85L202.4375 26.803125Q201.65625 28.0375 200.125 28.0375Q199.125 28.0375 198.29688 27.490625Q197.46875 26.94375 197.0 25.959375Q196.54688 24.975 196.54688 23.709375Q196.54688 22.459375 196.95312 21.459375Q197.375 20.44375 198.20312 19.9125Q199.03125 19.365625 200.0625 19.365625Q200.8125 19.365625 201.39062 19.678125Q201.98438 19.990625 202.34375 20.50625L202.34375 16.396875L203.75 16.396875L203.75 27.85L202.4375 27.85ZM198.0 23.709375Q198.0 25.303125 198.67188 26.1Q199.34375 26.88125 200.25 26.88125Q201.17188 26.88125 201.8125 26.13125Q202.46875 25.365625 202.46875 23.81875Q202.46875 22.115625 201.8125 21.31875Q201.15625 20.521875 200.1875 20.521875Q199.25 20.521875 198.625 21.2875Q198.0 22.053125 198.0 23.709375ZM208.96875 27.85L213.375 16.396875L215.01562 16.396875L219.70312 27.85L217.96875 27.85L216.64062 24.38125L211.84375 24.38125L210.59375 27.85L208.96875 27.85ZM212.28125 23.146875L216.17188 23.146875L214.96875 19.975Q214.42188 18.521875 214.15625 17.6Q213.9375 18.69375 213.54688 19.7875L212.28125 23.146875ZM221.0625 31.0375L221.0625 19.553125L222.34375 19.553125L222.34375 20.63125Q222.79688 19.990625 223.35938 19.678125Q223.9375 19.365625 224.75 19.365625Q225.8125 19.365625 226.625 19.9125Q227.4375 20.459375 227.84375 21.459375Q228.26562 22.44375 228.26562 23.63125Q228.26562 24.9125 227.79688 25.928125Q227.34375 26.94375 226.46875 27.490625Q225.60938 28.0375 224.64062 28.0375Q223.9375 28.0375 223.375 27.740625Q222.82812 27.44375 222.46875 26.990625L222.46875 31.0375L221.0625 31.0375ZM222.32812 23.740625Q222.32812 25.35 222.96875 26.115625Q223.625 26.88125 224.54688 26.88125Q225.48438 26.88125 226.15625 26.084375Q226.82812 25.2875 226.82812 23.63125Q226.82812 22.0375 226.17188 21.25625Q225.51562 20.459375 224.60938 20.459375Q223.71875 20.459375 223.01562 21.303125Q222.32812 22.146875 222.32812 23.740625ZM230.0625 31.0375L230.0625 19.553125L231.34375 19.553125L231.34375 20.63125Q231.79688 19.990625 232.35938 19.678125Q232.9375 19.365625 233.75 19.365625Q234.8125 19.365625 235.625 19.9125Q236.4375 20.459375 236.84375 21.459375Q237.26562 22.44375 237.26562 23.63125Q237.26562 24.9125 236.79688 25.928125Q236.34375 26.94375 235.46875 27.490625Q234.60938 28.0375 233.64062 28.0375Q232.9375 28.0375 232.375 27.740625Q231.82812 27.44375 231.46875 26.990625L231.46875 31.0375L230.0625 31.0375ZM231.32812 23.740625Q231.32812 25.35 231.96875 26.115625Q232.625 26.88125 233.54688 26.88125Q234.48438 26.88125 235.15625 26.084375Q235.82812 25.2875 235.82812 23.63125Q235.82812 22.0375 235.17188 21.25625Q234.51562 20.459375 233.60938 20.459375Q232.71875 20.459375 232.01562 21.303125Q231.32812 22.146875 231.32812 23.740625ZM239.03125 27.85L239.03125 16.396875L240.4375 16.396875L240.4375 27.85L239.03125 27.85ZM242.0625 18.00625L242.0625 16.396875L243.46875 16.396875L243.46875 18.00625L242.0625 18.00625ZM242.0625 27.85L242.0625 19.553125L243.46875 19.553125L243.46875 27.85L242.0625 27.85ZM251.46875 24.803125L252.85938 24.990625Q252.625 26.4125 251.6875 27.225Q250.76562 28.0375 249.40625 28.0375Q247.70312 28.0375 246.65625 26.928125Q245.625 25.803125 245.625 23.725Q245.625 22.38125 246.0625 21.38125Q246.51562 20.365625 247.42188 19.865625Q248.34375 19.365625 249.40625 19.365625Q250.76562 19.365625 251.625 20.053125Q252.48438 20.725 252.71875 21.990625L251.35938 22.19375Q251.15625 21.365625 250.65625 20.94375Q250.17188 20.521875 249.46875 20.521875Q248.40625 20.521875 247.73438 21.2875Q247.07812 22.0375 247.07812 23.69375Q247.07812 25.365625 247.71875 26.13125Q248.35938 26.88125 249.39062 26.88125Q250.21875 26.88125 250.76562 26.38125Q251.32812 25.865625 251.46875 24.803125ZM259.46875 26.81875Q258.6875 27.490625 257.96875 27.771875Q257.25 28.0375 256.42188 28.0375Q255.04688 28.0375 254.3125 27.365625Q253.57812 26.69375 253.57812 25.6625Q253.57812 25.053125 253.85938 24.553125Q254.14062 24.0375 254.57812 23.740625Q255.03125 23.428125 255.59375 23.271875Q256.01562 23.1625 256.84375 23.06875Q258.54688 22.865625 259.35938 22.584375Q259.35938 22.2875 259.35938 22.209375Q259.35938 21.35 258.96875 21.00625Q258.42188 20.521875 257.35938 20.521875Q256.375 20.521875 255.89062 20.88125Q255.42188 21.225 255.20312 22.1L253.82812 21.9125Q254.01562 21.0375 254.4375 20.490625Q254.875 19.94375 255.6875 19.6625Q256.5 19.365625 257.5625 19.365625Q258.625 19.365625 259.28125 19.615625Q259.95312 19.865625 260.26562 20.240625Q260.57812 20.615625 260.70312 21.19375Q260.78125 21.553125 260.78125 22.490625L260.78125 24.365625Q260.78125 26.334375 260.85938 26.85Q260.95312 27.365625 261.21875 27.85L259.75 27.85Q259.53125 27.4125 259.46875 26.81875ZM259.35938 23.678125Q258.59375 23.990625 257.0625 24.209375Q256.1875 24.334375 255.82812 24.490625Q255.46875 24.646875 255.26562 24.959375Q255.07812 25.25625 255.07812 25.615625Q255.07812 26.178125 255.5 26.553125Q255.9375 26.928125 256.75 26.928125Q257.5625 26.928125 258.1875 26.584375Q258.82812 26.225 259.125 25.6Q259.35938 25.13125 259.35938 24.19375L259.35938 23.678125ZM266.125 26.584375L266.32812 27.834375Q265.73438 27.959375 265.26562 27.959375Q264.5 27.959375 264.07812 27.725Q263.65625 27.475 263.48438 27.084375Q263.3125 26.678125 263.3125 25.4125L263.3125 20.646875L262.28125 20.646875L262.28125 19.553125L263.3125 19.553125L263.3125 17.490625L264.71875 16.646875L264.71875 19.553125L266.125 19.553125L266.125 20.646875L264.71875 20.646875L264.71875 25.490625Q264.71875 26.1 264.78125 26.271875Q264.85938 26.44375 265.03125 26.553125Q265.20312 26.646875 265.51562 26.646875Q265.75 26.646875 266.125 26.584375ZM267.0625 18.00625L267.0625 16.396875L268.46875 16.396875L268.46875 18.00625L267.0625 18.00625ZM267.0625 27.85L267.0625 19.553125L268.46875 19.553125L268.46875 27.85L267.0625 27.85ZM270.53125 23.69375Q270.53125 21.396875 271.8125 20.2875Q272.89062 19.365625 274.42188 19.365625Q276.14062 19.365625 277.21875 20.490625Q278.3125 21.6 278.3125 23.584375Q278.3125 25.178125 277.82812 26.1Q277.34375 27.021875 276.42188 27.5375Q275.51562 28.0375 274.42188 28.0375Q272.6875 28.0375 271.60938 26.928125Q270.53125 25.803125 270.53125 23.69375ZM271.98438 23.69375Q271.98438 25.2875 272.67188 26.084375Q273.375 26.88125 274.42188 26.88125Q275.46875 26.88125 276.15625 26.084375Q276.85938 25.2875 276.85938 23.646875Q276.85938 22.115625 276.15625 21.31875Q275.46875 20.521875 274.42188 20.521875Q273.375 20.521875 272.67188 21.31875Q271.98438 22.1 271.98438 23.69375ZM280.0625 27.85L280.0625 19.553125L281.32812 19.553125L281.32812 20.725Q282.23438 19.365625 283.96875 19.365625Q284.71875 19.365625 285.34375 19.63125Q285.96875 19.896875 286.28125 20.334375Q286.59375 20.771875 286.71875 21.38125Q286.79688 21.771875 286.79688 22.740625L286.79688 27.85L285.39062 27.85L285.39062 22.803125Q285.39062 21.94375 285.21875 21.521875Q285.0625 21.084375 284.64062 20.834375Q284.23438 20.584375 283.67188 20.584375Q282.76562 20.584375 282.10938 21.1625Q281.46875 21.725 281.46875 23.31875L281.46875 27.85L280.0625 27.85ZM287.5 25.365625L288.89062 25.146875Q289.0 25.990625 289.53125 26.44375Q290.07812 26.88125 291.03125 26.88125Q292.0 26.88125 292.46875 26.490625Q292.9375 26.084375 292.9375 25.553125Q292.9375 25.084375 292.53125 24.803125Q292.23438 24.615625 291.09375 24.334375Q289.54688 23.94375 288.9375 23.6625Q288.34375 23.365625 288.03125 22.865625Q287.73438 22.365625 287.73438 21.75625Q287.73438 21.19375 287.98438 20.725Q288.23438 20.25625 288.67188 19.94375Q289.0 19.69375 289.5625 19.5375Q290.14062 19.365625 290.78125 19.365625Q291.76562 19.365625 292.5 19.646875Q293.23438 19.928125 293.57812 20.4125Q293.9375 20.88125 294.07812 21.69375L292.70312 21.88125Q292.60938 21.240625 292.15625 20.88125Q291.70312 20.521875 290.89062 20.521875Q289.92188 20.521875 289.5 20.85Q289.09375 21.1625 289.09375 21.584375Q289.09375 21.865625 289.26562 22.084375Q289.4375 22.303125 289.79688 22.459375Q290.01562 22.5375 291.04688 22.81875Q292.53125 23.209375 293.125 23.475Q293.71875 23.725 294.04688 24.209375Q294.39062 24.69375 294.39062 25.4125Q294.39062 26.115625 293.96875 26.740625Q293.5625 27.35 292.78125 27.69375Q292.01562 28.0375 291.04688 28.0375Q289.42188 28.0375 288.57812 27.365625Q287.73438 26.69375 287.5 25.365625Z" fill-rule="nonzero"/></svg>