<svg version="1.1" viewBox="0.0 0.0 416.0 263.0" fill="none" stroke="none" stroke-linecap="square" stroke-miterlimit="10" width="416" height="263" xmlns:xlink="http://www.w3.org/1999/xlink" xmlns="http://www.w3.org/2000/svg"><path fill="#ffffff" d="M0 0L416.0 0L416.0 263.0L0 263.0L0 0Z" fill-rule="nonzero"/><path stroke="#333333" stroke-width="1.0" stroke-linecap="butt" d="M72.5 229.5L402.5 229.5" fill-rule="nonzero"/><path stroke="#cccccc" stroke-width="1.0" stroke-linecap="butt" d="M72.5 190.5L402.5 190.5" fill-rule="nonzero"/><path stroke="#cccccc" stroke-width="1.0" stroke-linecap="butt" d="M72.5 150.5L402.5 150.5" fill-rule="nonzero"/><path stroke="#cccccc" stroke-width="1.0" stroke-linecap="butt" d="M72.5 110.5L402.5 110.5" fill-rule="nonzero"/><path stroke="#cccccc" stroke-width="1.0" stroke-linecap="butt" d="M72.5 70.5L402.5 70.5" fill-rule="nonzero"/><clipPath id="id_0"><path d="M72.15 70.683334L402.85 70.683334L402.85 229.85L72.15 229.85L72.15 70.683334Z" clip-rule="nonzero"/></clipPath><path stroke="#000000" stroke-width="2.0" stroke-linecap="butt" stroke-opacity="0.0" clip-path="url(#id_0)" d="M138.0 230.0L108.0 230.0L108.0 122.0C108.0 120.89543 108.89543 120.0 110.0 120.0L136.0 120.0C137.10457 120.0 138.0 120.89543 138.0 122.0Z" fill-rule="nonzero"/><path fill="#4285f4" clip-path="url(#id_0)" d="M138.0 230.0L108.0 230.0L108.0 122.0C108.0 120.89543 108.89543 120.0 110.0 120.0L136.0 120.0C137.10457 120.0 138.0 120.89543 138.0 122.0Z" fill-rule="nonzero"/><path stroke="#000000" stroke-width="2.0" stroke-linecap="butt" stroke-opacity="0.0" clip-path="url(#id_0)" d="M237.0 230.0L207.0 230.0L207.0 105.0C207.0 103.89543 207.89543 103.0 209.0 103.0L235.0 103.0C236.10457 103.0 237.0 103.89543 237.0 105.0Z" fill-rule="nonzero"/><path fill="#4285f4" clip-path="url(#id_0)" d="M237.0 230.0L207.0 230.0L207.0 105.0C207.0 103.89543 207.89543 103.0 209.0 103.0L235.0 103.0C236.10457 103.0 237.0 103.89543 237.0 105.0Z" fill-rule="nonzero"/><path stroke="#000000" stroke-width="2.0" stroke-linecap="butt" stroke-opacity="0.0" clip-path="url(#id_0)" d="M335.0 230.0L305.0 230.0L305.0 95.0C305.0 93.89543 305.89542 93.0 307.0 93.0L333.0 93.0C334.10458 93.0 335.0 93.89543 335.0 95.0Z" fill-rule="nonzero"/><path fill="#4285f4" clip-path="url(#id_0)" d="M335.0 230.0L305.0 230.0L305.0 95.0C305.0 93.89543 305.89542 93.0 307.0 93.0L333.0 93.0C334.10458 93.0 335.0 93.89543 335.0 95.0Z" fill-rule="nonzero"/><path stroke="#000000" stroke-width="2.0" stroke-linecap="butt" stroke-opacity="0.0" clip-path="url(#id_0)" d="M170.0 230.0L140.0 230.0L140.0 154.0C140.0 152.89543 140.89543 152.0 142.0 152.0L168.0 152.0C169.10457 152.0 170.0 152.89543 170.0 154.0Z" fill-rule="nonzero"/><path fill="#ea4335" clip-path="url(#id_0)" d="M170.0 230.0L140.0 230.0L140.0 154.0C140.0 152.89543 140.89543 152.0 142.0 152.0L168.0 152.0C169.10457 152.0 170.0 152.89543 170.0 154.0Z" fill-rule="nonzero"/><path stroke="#000000" stroke-width="2.0" stroke-linecap="butt" stroke-opacity="0.0" clip-path="url(#id_0)" d="M269.0 230.0L239.0 230.0L239.0 148.0C239.0 146.89543 239.89543 146.0 241.0 146.0L267.0 146.0C268.10458 146.0 269.0 146.89543 269.0 148.0Z" fill-rule="nonzero"/><path fill="#ea4335" clip-path="url(#id_0)" d="M269.0 230.0L239.0 230.0L239.0 148.0C239.0 146.89543 239.89543 146.0 241.0 146.0L267.0 146.0C268.10458 146.0 269.0 146.89543 269.0 148.0Z" fill-rule="nonzero"/><path stroke="#000000" stroke-width="2.0" stroke-linecap="butt" stroke-opacity="0.0" clip-path="url(#id_0)" d="M367.0 230.0L337.0 230.0L337.0 129.0C337.0 127.89543 337.89542 127.0 339.0 127.0L365.0 127.0C366.10458 127.0 367.0 127.89543 367.0 129.0Z" fill-rule="nonzero"/><path fill="#ea4335" clip-path="url(#id_0)" d="M367.0 230.0L337.0 230.0L337.0 129.0C337.0 127.89543 337.89542 127.0 339.0 127.0L365.0 127.0C366.10458 127.0 367.0 127.89543 367.0 129.0Z" fill-rule="nonzero"/><path fill="#000000" d="M24.150005 204.87604L15.556256 204.87604L15.556256 203.15729L21.63438 201.12604Q22.493755 200.84479 22.91563 200.71979Q22.44688 200.57916 21.54063 200.26666L15.556256 198.20416L15.556256 196.67291L24.150005 196.67291L24.150005 197.76666L16.962505 197.76666L24.150005 200.26666L24.150005 201.29791L16.837505 203.78229L24.150005 203.78229L24.150005 204.87604ZM16.775005 195.96979L15.556256 195.96979L15.556256 194.90729L16.775005 194.90729L16.775005 195.96979ZM24.150005 195.96979L17.931255 195.96979L17.931255 194.90729L24.150005 194.90729L24.150005 195.96979ZM24.150005 193.00104L15.556256 193.00104L15.556256 191.93854L24.150005 191.93854L24.150005 193.00104ZM24.150005 190.00104L15.556256 190.00104L15.556256 188.93854L24.150005 188.93854L24.150005 190.00104ZM16.775005 186.96979L15.556256 186.96979L15.556256 185.90729L16.775005 185.90729L16.775005 186.96979ZM24.150005 186.96979L17.931255 186.96979L17.931255 185.90729L24.150005 185.90729L24.150005 186.96979ZM22.29063 184.39166L22.13438 183.36041Q22.75938 183.26666 23.087505 182.87604Q23.41563 182.46979 23.41563 181.73541Q23.41563 181.01666 23.13438 180.67291Q22.837505 180.31354 22.431255 180.31354Q22.07188 180.31354 21.868755 180.62604Q21.72813 180.84479 21.50938 181.70416Q21.212505 182.86041 21.00938 183.31354Q20.79063 183.75104 20.41563 183.98541Q20.04063 184.21979 19.57188 184.21979Q19.16563 184.21979 18.806255 184.03229Q18.44688 183.84479 18.212505 183.51666Q18.04063 183.26666 17.91563 182.84479Q17.79063 182.42291 17.79063 181.92291Q17.79063 181.20416 18.00938 180.65729Q18.212505 180.09479 18.57188 179.82916Q18.931255 179.56354 19.525005 179.46979L19.66563 180.50104Q19.19688 180.56354 18.931255 180.90729Q18.650005 181.23541 18.650005 181.86041Q18.650005 182.57916 18.900005 182.89166Q19.13438 183.20416 19.462505 183.20416Q19.66563 183.20416 19.82188 183.07916Q19.993755 182.93854 20.10313 182.67291Q20.16563 182.51666 20.368755 181.73541Q20.681255 180.61041 20.868755 180.17291Q21.056255 179.73541 21.41563 179.48541Q21.775005 179.23541 22.32188 179.23541Q22.85313 179.23541 23.32188 179.54791Q23.775005 179.84479 24.04063 180.42291Q24.29063 181.00104 24.29063 181.73541Q24.29063 182.95416 23.79063 183.59479Q23.275005 184.21979 22.29063 184.39166ZM22.150005 172.71979L22.275005 171.62604Q23.22813 171.87604 23.75938 172.57916Q24.29063 173.28229 24.29063 174.36041Q24.29063 175.71979 23.44688 176.53229Q22.60313 177.32916 21.087505 177.32916Q19.525005 177.32916 18.66563 176.51666Q17.79063 175.70416 17.79063 174.42291Q17.79063 173.17291 18.63438 172.39166Q19.47813 171.59479 21.025005 171.59479Q21.118755 171.59479 21.306255 171.59479L21.306255 176.23541Q22.337505 176.17291 22.88438 175.65729Q23.41563 175.14166 23.41563 174.36041Q23.41563 173.78229 23.118755 173.37604Q22.806255 172.95416 22.150005 172.71979ZM20.44688 176.17291L20.44688 172.70416Q19.650005 172.76666 19.25938 173.09479Q18.650005 173.61041 18.650005 174.40729Q18.650005 175.14166 19.13438 175.64166Q19.618755 176.12604 20.44688 176.17291ZM21.868755 165.90729L22.00938 164.87604Q23.07188 165.04791 23.681255 165.75104Q24.29063 166.45416 24.29063 167.46979Q24.29063 168.75104 23.462505 169.53229Q22.618755 170.29791 21.056255 170.29791Q20.056255 170.29791 19.306255 169.96979Q18.54063 169.62604 18.16563 168.95416Q17.79063 168.26666 17.79063 167.45416Q17.79063 166.45416 18.306255 165.81354Q18.806255 165.15729 19.75938 164.96979L19.91563 166.00104Q19.29063 166.14166 18.97813 166.51666Q18.650005 166.89166 18.650005 167.42291Q18.650005 168.21979 19.22813 168.71979Q19.79063 169.21979 21.025005 169.21979Q22.29063 169.21979 22.85313 168.73541Q23.41563 168.25104 23.41563 167.48541Q23.41563 166.86041 23.04063 166.45416Q22.66563 166.03229 21.868755 165.90729ZM21.04063 164.36041Q19.306255 164.36041 18.47813 163.40729Q17.79063 162.61041 17.79063 161.45416Q17.79063 160.17291 18.63438 159.36041Q19.462505 158.53229 20.94688 158.53229Q22.150005 158.53229 22.837505 158.89166Q23.525005 159.25104 23.91563 159.95416Q24.29063 160.64166 24.29063 161.45416Q24.29063 162.75104 23.462505 163.56354Q22.618755 164.36041 21.04063 164.36041ZM21.04063 163.28229Q22.22813 163.28229 22.82188 162.76666Q23.41563 162.23541 23.41563 161.45416Q23.41563 160.65729 22.82188 160.14166Q22.22813 159.62604 21.00938 159.62604Q19.85313 159.62604 19.25938 160.15729Q18.66563 160.67291 18.66563 161.45416Q18.66563 162.23541 19.25938 162.76666Q19.837505 163.28229 21.04063 163.28229ZM24.150005 156.96979L17.931255 156.96979L17.931255 156.03229L18.806255 156.03229Q17.79063 155.34479 17.79063 154.04791Q17.79063 153.48541 17.993755 153.01666Q18.19688 152.53229 18.525005 152.29791Q18.85313 152.06354 19.29063 151.96979Q19.587505 151.92291 20.32188 151.92291L24.150005 151.92291L24.150005 152.96979L20.368755 152.96979Q19.712505 152.96979 19.400005 153.09479Q19.087505 153.21979 18.900005 153.53229Q18.69688 153.84479 18.69688 154.26666Q18.69688 154.93854 19.13438 155.43854Q19.556255 155.92291 20.743755 155.92291L24.150005 155.92291L24.150005 156.96979ZM24.150005 145.93854L23.368755 145.93854Q24.29063 146.53229 24.29063 147.67291Q24.29063 148.42291 23.88438 149.04791Q23.462505 149.67291 22.72813 150.01666Q21.993755 150.36041 21.04063 150.36041Q20.118755 150.36041 19.35313 150.04791Q18.587505 149.73541 18.19688 149.11041Q17.79063 148.48541 17.79063 147.71979Q17.79063 147.15729 18.025005 146.71979Q18.25938 146.28229 18.63438 146.00104L15.556256 146.00104L15.556256 144.95416L24.150005 144.95416L24.150005 145.93854ZM21.04063 149.26666Q22.243755 149.26666 22.837505 148.76666Q23.41563 148.26666 23.41563 147.57916Q23.41563 146.89166 22.85313 146.40729Q22.29063 145.92291 21.13438 145.92291Q19.85313 145.92291 19.25938 146.42291Q18.66563 146.90729 18.66563 147.62604Q18.66563 148.32916 19.243755 148.79791Q19.806255 149.26666 21.04063 149.26666ZM22.29063 143.39166L22.13438 142.36041Q22.75938 142.26666 23.087505 141.87604Q23.41563 141.46979 23.41563 140.73541Q23.41563 140.01666 23.13438 139.67291Q22.837505 139.31354 22.431255 139.31354Q22.07188 139.31354 21.868755 139.62604Q21.72813 139.84479 21.50938 140.70416Q21.212505 141.86041 21.00938 142.31354Q20.79063 142.75104 20.41563 142.98541Q20.04063 143.21979 19.57188 143.21979Q19.16563 143.21979 18.806255 143.03229Q18.44688 142.84479 18.212505 142.51666Q18.04063 142.26666 17.91563 141.84479Q17.79063 141.42291 17.79063 140.92291Q17.79063 140.20416 18.00938 139.65729Q18.212505 139.09479 18.57188 138.82916Q18.931255 138.56354 19.525005 138.46979L19.66563 139.50104Q19.19688 139.56354 18.931255 139.90729Q18.650005 140.23541 18.650005 140.86041Q18.650005 141.57916 18.900005 141.89166Q19.13438 142.20416 19.462505 142.20416Q19.66563 142.20416 19.82188 142.07916Q19.993755 141.93854 20.10313 141.67291Q20.16563 141.51666 20.368755 140.73541Q20.681255 139.61041 20.868755 139.17291Q21.056255 138.73541 21.41563 138.48541Q21.775005 138.23541 22.32188 138.23541Q22.85313 138.23541 23.32188 138.54791Q23.775005 138.84479 24.04063 139.42291Q24.29063 140.00104 24.29063 140.73541Q24.29063 141.95416 23.79063 142.59479Q23.275005 143.21979 22.29063 143.39166ZM26.681255 130.95416Q25.57188 131.82916 24.10313 132.43854Q22.618755 133.03229 21.04063 133.03229Q19.650005 133.03229 18.368755 132.59479Q16.88438 132.06354 15.415631 130.95416L15.415631 130.20416Q16.63438 130.90729 17.150005 131.14166Q17.962505 131.50104 18.837505 131.70416Q19.931255 131.95416 21.04063 131.95416Q23.868755 131.95416 26.681255 130.20416L26.681255 130.95416ZM24.150005 128.96979L17.931255 128.96979L17.931255 128.03229L18.806255 128.03229Q18.337505 127.73541 18.07188 127.25104Q17.79063 126.76666 17.79063 126.14166Q17.79063 125.45416 18.07188 125.01666Q18.35313 124.56354 18.868755 124.39166Q17.79063 123.64166 17.79063 122.46979Q17.79063 121.53229 18.306255 121.04791Q18.806255 120.54791 19.88438 120.54791L24.150005 120.54791L24.150005 121.59479L20.22813 121.59479Q19.60313 121.59479 19.32188 121.70416Q19.04063 121.79791 18.868755 122.06354Q18.69688 122.32916 18.69688 122.70416Q18.69688 123.36041 19.13438 123.79791Q19.57188 124.21979 20.54063 124.21979L24.150005 124.21979L24.150005 125.28229L20.10313 125.28229Q19.400005 125.28229 19.056255 125.54791Q18.69688 125.79791 18.69688 126.37604Q18.69688 126.82916 18.931255 127.20416Q19.16563 127.57916 19.618755 127.75104Q20.07188 127.92291 20.91563 127.92291L24.150005 127.92291L24.150005 128.96979ZM22.29063 118.39166L22.13438 117.36041Q22.75938 117.26666 23.087505 116.87604Q23.41563 116.46979 23.41563 115.73541Q23.41563 115.01666 23.13438 114.67291Q22.837505 114.31354 22.431255 114.31354Q22.07188 114.31354 21.868755 114.62604Q21.72813 114.84479 21.50938 115.70416Q21.212505 116.86041 21.00938 117.31354Q20.79063 117.75104 20.41563 117.98541Q20.04063 118.21979 19.57188 118.21979Q19.16563 118.21979 18.806255 118.03229Q18.44688 117.84479 18.212505 117.51666Q18.04063 117.26666 17.91563 116.84479Q17.79063 116.42291 17.79063 115.92291Q17.79063 115.20416 18.00938 114.65729Q18.212505 114.09479 18.57188 113.82916Q18.931255 113.56354 19.525005 113.46979L19.66563 114.50104Q19.19688 114.56354 18.931255 114.90729Q18.650005 115.23541 18.650005 115.86041Q18.650005 116.57916 18.900005 116.89166Q19.13438 117.20416 19.462505 117.20416Q19.66563 117.20416 19.82188 117.07916Q19.993755 116.93854 20.10313 116.67291Q20.16563 116.51666 20.368755 115.73541Q20.681255 114.61041 20.868755 114.17291Q21.056255 113.73541 21.41563 113.48541Q21.775005 113.23541 22.32188 113.23541Q22.85313 113.23541 23.32188 113.54791Q23.775005 113.84479 24.04063 114.42291Q24.29063 115.00104 24.29063 115.73541Q24.29063 116.95416 23.79063 117.59479Q23.275005 118.21979 22.29063 118.39166ZM26.681255 110.28229L26.681255 111.03229Q23.868755 109.28229 21.04063 109.28229Q19.94688 109.28229 18.85313 109.53229Q17.97813 109.73541 17.16563 110.09479Q16.650005 110.32916 15.415631 111.03229L15.415631 110.28229Q16.88438 109.18854 18.368755 108.65729Q19.650005 108.20416 21.04063 108.20416Q22.618755 108.20416 24.10313 108.81354Q25.57188 109.42291 26.681255 110.28229Z" fill-rule="nonzero"/><path fill="#000000" d="M59.65 229.61563Q59.65 228.08438 59.9625 227.1625Q60.275 226.225 60.884377 225.725Q61.509377 225.225 62.446877 225.225Q63.134377 225.225 63.65 225.50626Q64.18125 225.7875 64.525 226.31876Q64.86875 226.83438 65.05625 227.58438Q65.24375 228.33438 65.24375 229.61563Q65.24375 231.13126 64.93125 232.05313Q64.63438 232.975 64.00938 233.49063Q63.4 233.99063 62.446877 233.99063Q61.2125 233.99063 60.49375 233.1Q59.65 232.0375 59.65 229.61563ZM60.728127 229.61563Q60.728127 231.725 61.228127 232.42813Q61.728127 233.13126 62.446877 233.13126Q63.18125 233.13126 63.665627 232.42813Q64.16563 231.725 64.16563 229.61563Q64.16563 227.49063 63.665627 226.80313Q63.18125 226.1 62.43125 226.1Q61.7125 226.1 61.275 226.70938Q60.728127 227.49063 60.728127 229.61563Z" fill-rule="nonzero"/><path fill="#000000" d="M49.61875 194.05833L48.571877 194.05833L48.571877 187.33958Q48.18125 187.69896 47.55625 188.07396Q46.946877 188.43333 46.4625 188.60521L46.4625 187.58958Q47.3375 187.16771 47.99375 186.58958Q48.665627 185.99583 48.946877 185.43333L49.61875 185.43333L49.61875 194.05833ZM52.65 189.82396Q52.65 188.29271 52.9625 187.37083Q53.275 186.43333 53.884377 185.93333Q54.509377 185.43333 55.446877 185.43333Q56.134377 185.43333 56.65 185.71458Q57.18125 185.99583 57.525 186.52708Q57.86875 187.04271 58.05625 187.79271Q58.24375 188.54271 58.24375 189.82396Q58.24375 191.33958 57.93125 192.26146Q57.634377 193.18333 57.009377 193.69896Q56.4 194.19896 55.446877 194.19896Q54.2125 194.19896 53.49375 193.30833Q52.65 192.24583 52.65 189.82396ZM53.728127 189.82396Q53.728127 191.93333 54.228127 192.63646Q54.728127 193.33958 55.446877 193.33958Q56.18125 193.33958 56.665627 192.63646Q57.165627 191.93333 57.165627 189.82396Q57.165627 187.69896 56.665627 187.01146Q56.18125 186.30833 55.43125 186.30833Q54.7125 186.30833 54.275 186.91771Q53.728127 187.69896 53.728127 189.82396ZM59.65 189.82396Q59.65 188.29271 59.9625 187.37083Q60.275 186.43333 60.884377 185.93333Q61.509377 185.43333 62.446877 185.43333Q63.134377 185.43333 63.65 185.71458Q64.18125 185.99583 64.525 186.52708Q64.86875 187.04271 65.05625 187.79271Q65.24375 188.54271 65.24375 189.82396Q65.24375 191.33958 64.93125 192.26146Q64.63438 193.18333 64.00938 193.69896Q63.4 194.19896 62.446877 194.19896Q61.2125 194.19896 60.49375 193.30833Q59.65 192.24583 59.65 189.82396ZM60.728127 189.82396Q60.728127 191.93333 61.228127 192.63646Q61.728127 193.33958 62.446877 193.33958Q63.18125 193.33958 63.665627 192.63646Q64.16563 191.93333 64.16563 189.82396Q64.16563 187.69896 63.665627 187.01146Q63.18125 186.30833 62.43125 186.30833Q61.7125 186.30833 61.275 186.91771Q60.728127 187.69896 60.728127 189.82396Z" fill-rule="nonzero"/><path fill="#000000" d="M51.196877 153.25104L51.196877 154.26666L45.509377 154.26666Q45.509377 153.89166 45.634377 153.53229Q45.853127 152.95416 46.321877 152.39166Q46.80625 151.82916 47.7125 151.09479Q49.11875 149.93854 49.603127 149.26666Q50.103127 148.59479 50.103127 148.00104Q50.103127 147.37604 49.65 146.95416Q49.196877 146.51666 48.478127 146.51666Q47.7125 146.51666 47.259377 146.96979Q46.80625 147.42291 46.790627 148.23541L45.7125 148.12604Q45.821877 146.90729 46.540627 146.28229Q47.275 145.64166 48.509377 145.64166Q49.74375 145.64166 50.4625 146.32916Q51.18125 147.01666 51.18125 148.03229Q51.18125 148.54791 50.9625 149.04791Q50.759377 149.53229 50.259377 150.09479Q49.775 150.64166 48.65 151.59479Q47.696877 152.39166 47.415627 152.68854Q47.15 152.96979 46.978127 153.25104L51.196877 153.25104ZM52.65 150.03229Q52.65 148.50104 52.9625 147.57916Q53.275 146.64166 53.884377 146.14166Q54.509377 145.64166 55.446877 145.64166Q56.134377 145.64166 56.65 145.92291Q57.18125 146.20416 57.525 146.73541Q57.86875 147.25104 58.05625 148.00104Q58.24375 148.75104 58.24375 150.03229Q58.24375 151.54791 57.93125 152.46979Q57.634377 153.39166 57.009377 153.90729Q56.4 154.40729 55.446877 154.40729Q54.2125 154.40729 53.49375 153.51666Q52.65 152.45416 52.65 150.03229ZM53.728127 150.03229Q53.728127 152.14166 54.228127 152.84479Q54.728127 153.54791 55.446877 153.54791Q56.18125 153.54791 56.665627 152.84479Q57.165627 152.14166 57.165627 150.03229Q57.165627 147.90729 56.665627 147.21979Q56.18125 146.51666 55.43125 146.51666Q54.7125 146.51666 54.275 147.12604Q53.728127 147.90729 53.728127 150.03229ZM59.65 150.03229Q59.65 148.50104 59.9625 147.57916Q60.275 146.64166 60.884377 146.14166Q61.509377 145.64166 62.446877 145.64166Q63.134377 145.64166 63.65 145.92291Q64.18125 146.20416 64.525 146.73541Q64.86875 147.25104 65.05625 148.00104Q65.24375 148.75104 65.24375 150.03229Q65.24375 151.54791 64.93125 152.46979Q64.63438 153.39166 64.00938 153.90729Q63.4 154.40729 62.446877 154.40729Q61.2125 154.40729 60.49375 153.51666Q59.65 152.45416 59.65 150.03229ZM60.728127 150.03229Q60.728127 152.14166 61.228127 152.84479Q61.728127 153.54791 62.446877 153.54791Q63.18125 153.54791 63.665627 152.84479Q64.16563 152.14166 64.16563 150.03229Q64.16563 147.90729 63.665627 147.21979Q63.18125 146.51666 62.43125 146.51666Q61.7125 146.51666 61.275 147.12604Q60.728127 147.90729 60.728127 150.03229Z" fill-rule="nonzero"/><path fill="#000000" d="M45.65 112.20937L46.7125 112.06875Q46.884377 112.95937 47.321877 113.36562Q47.759377 113.75625 48.384377 113.75625Q49.134377 113.75625 49.65 113.24062Q50.165627 112.725 50.165627 111.95937Q50.165627 111.24062 49.68125 110.77187Q49.2125 110.2875 48.478127 110.2875Q48.18125 110.2875 47.728127 110.4125L47.853127 109.475Q47.9625 109.49062 48.025 109.49062Q48.696877 109.49062 49.228127 109.14687Q49.775 108.7875 49.775 108.05312Q49.775 107.475 49.384377 107.1Q48.99375 106.70937 48.36875 106.70937Q47.759377 106.70937 47.3375 107.1Q46.93125 107.49062 46.821877 108.25625L45.759377 108.06875Q45.946877 107.02187 46.634377 106.44375Q47.321877 105.85 48.3375 105.85Q49.040627 105.85 49.634377 106.1625Q50.228127 106.45937 50.540627 106.975Q50.853127 107.49062 50.853127 108.08437Q50.853127 108.63125 50.55625 109.1Q50.259377 109.55312 49.68125 109.81875Q50.43125 109.99062 50.853127 110.55312Q51.275 111.1 51.275 111.94375Q51.275 113.06875 50.446877 113.85Q49.634377 114.63125 48.384377 114.63125Q47.259377 114.63125 46.509377 113.95937Q45.759377 113.27187 45.65 112.20937ZM52.65 110.24062Q52.65 108.70937 52.9625 107.7875Q53.275 106.85 53.884377 106.35Q54.509377 105.85 55.446877 105.85Q56.134377 105.85 56.65 106.13125Q57.18125 106.4125 57.525 106.94375Q57.86875 107.45937 58.05625 108.20937Q58.24375 108.95937 58.24375 110.24062Q58.24375 111.75625 57.93125 112.67812Q57.634377 113.6 57.009377 114.11562Q56.4 114.61562 55.446877 114.61562Q54.2125 114.61562 53.49375 113.725Q52.65 112.6625 52.65 110.24062ZM53.728127 110.24062Q53.728127 112.35 54.228127 113.05312Q54.728127 113.75625 55.446877 113.75625Q56.18125 113.75625 56.665627 113.05312Q57.165627 112.35 57.165627 110.24062Q57.165627 108.11562 56.665627 107.42812Q56.18125 106.725 55.43125 106.725Q54.7125 106.725 54.275 107.33437Q53.728127 108.11562 53.728127 110.24062ZM59.65 110.24062Q59.65 108.70937 59.9625 107.7875Q60.275 106.85 60.884377 106.35Q61.509377 105.85 62.446877 105.85Q63.134377 105.85 63.65 106.13125Q64.18125 106.4125 64.525 106.94375Q64.86875 107.45937 65.05625 108.20937Q65.24375 108.95937 65.24375 110.24062Q65.24375 111.75625 64.93125 112.67812Q64.63438 113.6 64.00938 114.11562Q63.4 114.61562 62.446877 114.61562Q61.2125 114.61562 60.49375 113.725Q59.65 112.6625 59.65 110.24062ZM60.728127 110.24062Q60.728127 112.35 61.228127 113.05312Q61.728127 113.75625 62.446877 113.75625Q63.18125 113.75625 63.665627 113.05312Q64.16563 112.35 64.16563 110.24062Q64.16563 108.11562 63.665627 107.42812Q63.18125 106.725 62.43125 106.725Q61.7125 106.725 61.275 107.33437Q60.728127 108.11562 60.728127 110.24062Z" fill-rule="nonzero"/><path fill="#000000" d="M49.025 74.683334L49.025 72.620834L45.30625 72.620834L45.30625 71.652084L49.228127 66.089584L50.0875 66.089584L50.0875 71.652084L51.24375 71.652084L51.24375 72.620834L50.0875 72.620834L50.0875 74.683334L49.025 74.683334ZM49.025 71.652084L49.025 67.79271L46.3375 71.652084L49.025 71.652084ZM52.65 70.44896Q52.65 68.91771 52.9625 67.995834Q53.275 67.058334 53.884377 66.558334Q54.509377 66.058334 55.446877 66.058334Q56.134377 66.058334 56.65 66.339584Q57.18125 66.620834 57.525 67.152084Q57.86875 67.66771 58.05625 68.41771Q58.24375 69.16771 58.24375 70.44896Q58.24375 71.964584 57.93125 72.88646Q57.634377 73.808334 57.009377 74.32396Q56.4 74.82396 55.446877 74.82396Q54.2125 74.82396 53.49375 73.933334Q52.65 72.870834 52.65 70.44896ZM53.728127 70.44896Q53.728127 72.558334 54.228127 73.26146Q54.728127 73.964584 55.446877 73.964584Q56.18125 73.964584 56.665627 73.26146Q57.165627 72.558334 57.165627 70.44896Q57.165627 68.32396 56.665627 67.63646Q56.18125 66.933334 55.43125 66.933334Q54.7125 66.933334 54.275 67.54271Q53.728127 68.32396 53.728127 70.44896ZM59.65 70.44896Q59.65 68.91771 59.9625 67.995834Q60.275 67.058334 60.884377 66.558334Q61.509377 66.058334 62.446877 66.058334Q63.134377 66.058334 63.65 66.339584Q64.18125 66.620834 64.525 67.152084Q64.86875 67.66771 65.05625 68.41771Q65.24375 69.16771 65.24375 70.44896Q65.24375 71.964584 64.93125 72.88646Q64.63438 73.808334 64.00938 74.32396Q63.4 74.82396 62.446877 74.82396Q61.2125 74.82396 60.49375 73.933334Q59.65 72.870834 59.65 70.44896ZM60.728127 70.44896Q60.728127 72.558334 61.228127 73.26146Q61.728127 73.964584 62.446877 73.964584Q63.18125 73.964584 63.665627 73.26146Q64.16563 72.558334 64.16563 70.44896Q64.16563 68.32396 63.665627 67.63646Q63.18125 66.933334 62.43125 66.933334Q61.7125 66.933334 61.275 67.54271Q60.728127 68.32396 60.728127 70.44896Z" fill-rule="nonzero"/><path fill="#000000" d="M127.752335 246.85L126.70546 246.85L126.70546 240.13126Q126.314835 240.49063 125.689835 240.86563Q125.08046 241.225 124.596085 241.39688L124.596085 240.38126Q125.471085 239.95938 126.127335 239.38126Q126.79921 238.7875 127.08046 238.225L127.752335 238.225L127.752335 246.85ZM138.14296 246.08438Q137.54921 246.58438 137.00233 246.7875Q136.47108 246.99063 135.84608 246.99063Q134.81483 246.99063 134.26796 246.49063Q133.72108 245.99063 133.72108 245.20938Q133.72108 244.75626 133.92421 244.38126Q134.12733 243.99063 134.47108 243.77188Q134.81483 243.5375 135.23671 243.42813Q135.53358 243.33438 136.17421 243.25626Q137.43983 243.11563 138.04921 242.89688Q138.04921 242.67813 138.04921 242.63126Q138.04921 241.975 137.75233 241.70938Q137.34608 241.36563 136.54921 241.36563Q135.81483 241.36563 135.45546 241.63126Q135.09608 241.88126 134.92421 242.5375L133.89296 242.39688Q134.03358 241.74063 134.36171 241.33438Q134.68983 240.92813 135.29921 240.70938Q135.90858 240.49063 136.70546 240.49063Q137.50233 240.49063 138.00233 240.67813Q138.50233 240.86563 138.73671 241.14688Q138.97108 241.42813 139.06483 241.86563Q139.11171 242.13126 139.11171 242.83438L139.11171 244.24063Q139.11171 245.70938 139.17421 246.1Q139.25233 246.49063 139.45546 246.85L138.34608 246.85Q138.18983 246.52188 138.14296 246.08438ZM138.04921 243.725Q137.47108 243.95938 136.33046 244.13126Q135.67421 244.225 135.40858 244.35Q135.14296 244.45938 134.98671 244.67813Q134.84608 244.89688 134.84608 245.17813Q134.84608 245.6 135.15858 245.88126Q135.48671 246.1625 136.09608 246.1625Q136.70546 246.1625 137.17421 245.89688Q137.65858 245.63126 137.87733 245.1625Q138.04921 244.80313 138.04921 244.11563L138.04921 243.725ZM141.08046 249.24063L141.08046 240.63126L142.03358 240.63126L142.03358 241.42813Q142.37733 240.95938 142.79921 240.725Q143.23671 240.49063 143.84608 240.49063Q144.64296 240.49063 145.25233 240.89688Q145.86171 241.30313 146.15858 242.05313Q146.47108 242.80313 146.47108 243.69376Q146.47108 244.64688 146.12733 245.4125Q145.79921 246.17813 145.14296 246.58438Q144.48671 246.99063 143.76796 246.99063Q143.23671 246.99063 142.81483 246.77188Q142.39296 246.5375 142.12733 246.20938L142.12733 249.24063L141.08046 249.24063ZM142.03358 243.77188Q142.03358 244.975 142.51796 245.55313Q143.00233 246.11563 143.68983 246.11563Q144.39296 246.11563 144.89296 245.52188Q145.39296 244.92813 145.39296 243.67813Q145.39296 242.49063 144.90858 241.9125Q144.42421 241.31876 143.73671 241.31876Q143.06483 241.31876 142.54921 241.94376Q142.03358 242.56876 142.03358 243.77188ZM148.08046 249.24063L148.08046 240.63126L149.03358 240.63126L149.03358 241.42813Q149.37733 240.95938 149.79921 240.725Q150.23671 240.49063 150.84608 240.49063Q151.64296 240.49063 152.25233 240.89688Q152.86171 241.30313 153.15858 242.05313Q153.47108 242.80313 153.47108 243.69376Q153.47108 244.64688 153.12733 245.4125Q152.79921 246.17813 152.14296 246.58438Q151.48671 246.99063 150.76796 246.99063Q150.23671 246.99063 149.81483 246.77188Q149.39296 246.5375 149.12733 246.20938L149.12733 249.24063L148.08046 249.24063ZM149.03358 243.77188Q149.03358 244.975 149.51796 245.55313Q150.00233 246.11563 150.68983 246.11563Q151.39296 246.11563 151.89296 245.52188Q152.39296 244.92813 152.39296 243.67813Q152.39296 242.49063 151.90858 241.9125Q151.42421 241.31876 150.73671 241.31876Q150.06483 241.31876 149.54921 241.94376Q149.03358 242.56876 149.03358 243.77188Z" fill-rule="nonzero"/><path fill="#000000" d="M219.0 244.6L220.10938 244.50626Q220.23438 245.31876 220.67188 245.725Q221.125 246.13126 221.76562 246.13126Q222.51562 246.13126 223.04688 245.55313Q223.57812 244.975 223.57812 244.0375Q223.57812 243.13126 223.0625 242.61563Q222.5625 242.08438 221.73438 242.08438Q221.23438 242.08438 220.8125 242.31876Q220.40625 242.55313 220.17188 242.9125L219.1875 242.7875L220.01562 238.38126L224.29688 238.38126L224.29688 239.38126L220.85938 239.38126L220.40625 241.69376Q221.17188 241.14688 222.01562 241.14688Q223.14062 241.14688 223.90625 241.92813Q224.6875 242.70938 224.6875 243.94376Q224.6875 245.1 224.01562 245.95938Q223.1875 246.99063 221.76562 246.99063Q220.59375 246.99063 219.84375 246.33438Q219.10938 245.67813 219.0 244.6ZM233.35938 246.08438Q232.76562 246.58438 232.21875 246.7875Q231.6875 246.99063 231.0625 246.99063Q230.03125 246.99063 229.48438 246.49063Q228.9375 245.99063 228.9375 245.20938Q228.9375 244.75626 229.14062 244.38126Q229.34375 243.99063 229.6875 243.77188Q230.03125 243.5375 230.45312 243.42813Q230.75 243.33438 231.39062 243.25626Q232.65625 243.11563 233.26562 242.89688Q233.26562 242.67813 233.26562 242.63126Q233.26562 241.975 232.96875 241.70938Q232.5625 241.36563 231.76562 241.36563Q231.03125 241.36563 230.67188 241.63126Q230.3125 241.88126 230.14062 242.5375L229.10938 242.39688Q229.25 241.74063 229.57812 241.33438Q229.90625 240.92813 230.51562 240.70938Q231.125 240.49063 231.92188 240.49063Q232.71875 240.49063 233.21875 240.67813Q233.71875 240.86563 233.95312 241.14688Q234.1875 241.42813 234.28125 241.86563Q234.32812 242.13126 234.32812 242.83438L234.32812 244.24063Q234.32812 245.70938 234.39062 246.1Q234.46875 246.49063 234.67188 246.85L233.5625 246.85Q233.40625 246.52188 233.35938 246.08438ZM233.26562 243.725Q232.6875 243.95938 231.54688 244.13126Q230.89062 244.225 230.625 244.35Q230.35938 244.45938 230.20312 244.67813Q230.0625 244.89688 230.0625 245.17813Q230.0625 245.6 230.375 245.88126Q230.70312 246.1625 231.3125 246.1625Q231.92188 246.1625 232.39062 245.89688Q232.875 245.63126 233.09375 245.1625Q233.26562 244.80313 233.26562 244.11563L233.26562 243.725ZM236.29688 249.24063L236.29688 240.63126L237.25 240.63126L237.25 241.42813Q237.59375 240.95938 238.01562 240.725Q238.45312 240.49063 239.0625 240.49063Q239.85938 240.49063 240.46875 240.89688Q241.07812 241.30313 241.375 242.05313Q241.6875 242.80313 241.6875 243.69376Q241.6875 244.64688 241.34375 245.4125Q241.01562 246.17813 240.35938 246.58438Q239.70312 246.99063 238.98438 246.99063Q238.45312 246.99063 238.03125 246.77188Q237.60938 246.5375 237.34375 246.20938L237.34375 249.24063L236.29688 249.24063ZM237.25 243.77188Q237.25 244.975 237.73438 245.55313Q238.21875 246.11563 238.90625 246.11563Q239.60938 246.11563 240.10938 245.52188Q240.60938 244.92813 240.60938 243.67813Q240.60938 242.49063 240.125 241.9125Q239.64062 241.31876 238.95312 241.31876Q238.28125 241.31876 237.76562 241.94376Q237.25 242.56876 237.25 243.77188ZM243.29688 249.24063L243.29688 240.63126L244.25 240.63126L244.25 241.42813Q244.59375 240.95938 245.01562 240.725Q245.45312 240.49063 246.0625 240.49063Q246.85938 240.49063 247.46875 240.89688Q248.07812 241.30313 248.375 242.05313Q248.6875 242.80313 248.6875 243.69376Q248.6875 244.64688 248.34375 245.4125Q248.01562 246.17813 247.35938 246.58438Q246.70312 246.99063 245.98438 246.99063Q245.45312 246.99063 245.03125 246.77188Q244.60938 246.5375 244.34375 246.20938L244.34375 249.24063L243.29688 249.24063ZM244.25 243.77188Q244.25 244.975 244.73438 245.55313Q245.21875 246.11563 245.90625 246.11563Q246.60938 246.11563 247.10938 245.52188Q247.60938 244.92813 247.60938 243.67813Q247.60938 242.49063 247.125 241.9125Q246.64062 241.31876 245.95312 241.31876Q245.28125 241.31876 244.76562 241.94376Q244.25 242.56876 244.25 243.77188ZM249.875 244.99063L250.90625 244.83438Q251.0 245.45938 251.39062 245.7875Q251.79688 246.11563 252.53125 246.11563Q253.25 246.11563 253.59375 245.83438Q253.95312 245.5375 253.95312 245.13126Q253.95312 244.77188 253.64062 244.56876Q253.42188 244.42813 252.5625 244.20938Q251.40625 243.9125 250.95312 243.70938Q250.51562 243.49063 250.28125 243.11563Q250.04688 242.74063 250.04688 242.27188Q250.04688 241.86563 250.23438 241.50626Q250.42188 241.14688 250.75 240.9125Q251.0 240.74063 251.42188 240.61563Q251.84375 240.49063 252.34375 240.49063Q253.0625 240.49063 253.60938 240.70938Q254.17188 240.9125 254.4375 241.27188Q254.70312 241.63126 254.79688 242.225L253.76562 242.36563Q253.70312 241.89688 253.35938 241.63126Q253.03125 241.35 252.40625 241.35Q251.6875 241.35 251.375 241.6Q251.0625 241.83438 251.0625 242.1625Q251.0625 242.36563 251.1875 242.52188Q251.32812 242.69376 251.59375 242.80313Q251.75 242.86563 252.53125 243.06876Q253.65625 243.38126 254.09375 243.56876Q254.53125 243.75626 254.78125 244.11563Q255.03125 244.475 255.03125 245.02188Q255.03125 245.55313 254.71875 246.02188Q254.42188 246.475 253.84375 246.74063Q253.26562 246.99063 252.53125 246.99063Q251.3125 246.99063 250.67188 246.49063Q250.04688 245.975 249.875 244.99063Z" fill-rule="nonzero"/><path fill="#000000" d="M318.18518 246.85L317.1383 246.85L317.1383 240.13126Q316.74768 240.49063 316.12268 240.86563Q315.5133 241.225 315.02893 241.39688L315.02893 240.38126Q315.90393 239.95938 316.56018 239.38126Q317.23206 238.7875 317.5133 238.225L318.18518 238.225L318.18518 246.85ZM321.21643 242.61563Q321.21643 241.08438 321.52893 240.1625Q321.84143 239.225 322.4508 238.725Q323.0758 238.225 324.0133 238.225Q324.7008 238.225 325.21643 238.50626Q325.74768 238.7875 326.09143 239.31876Q326.43518 239.83438 326.62268 240.58438Q326.81018 241.33438 326.81018 242.61563Q326.81018 244.13126 326.49768 245.05313Q326.2008 245.975 325.5758 246.49063Q324.96643 246.99063 324.0133 246.99063Q322.77893 246.99063 322.06018 246.1Q321.21643 245.0375 321.21643 242.61563ZM322.29456 242.61563Q322.29456 244.725 322.79456 245.42813Q323.29456 246.13126 324.0133 246.13126Q324.74768 246.13126 325.23206 245.42813Q325.73206 244.725 325.73206 242.61563Q325.73206 240.49063 325.23206 239.80313Q324.74768 239.1 323.99768 239.1Q323.27893 239.1 322.84143 239.70938Q322.29456 240.49063 322.29456 242.61563ZM335.5758 246.08438Q334.98206 246.58438 334.43518 246.7875Q333.90393 246.99063 333.27893 246.99063Q332.24768 246.99063 331.7008 246.49063Q331.15393 245.99063 331.15393 245.20938Q331.15393 244.75626 331.35706 244.38126Q331.56018 243.99063 331.90393 243.77188Q332.24768 243.5375 332.66956 243.42813Q332.96643 243.33438 333.60706 243.25626Q334.87268 243.11563 335.48206 242.89688Q335.48206 242.67813 335.48206 242.63126Q335.48206 241.975 335.18518 241.70938Q334.77893 241.36563 333.98206 241.36563Q333.24768 241.36563 332.8883 241.63126Q332.52893 241.88126 332.35706 242.5375L331.3258 242.39688Q331.46643 241.74063 331.79456 241.33438Q332.12268 240.92813 332.73206 240.70938Q333.34143 240.49063 334.1383 240.49063Q334.93518 240.49063 335.43518 240.67813Q335.93518 240.86563 336.16956 241.14688Q336.40393 241.42813 336.49768 241.86563Q336.54456 242.13126 336.54456 242.83438L336.54456 244.24063Q336.54456 245.70938 336.60706 246.1Q336.68518 246.49063 336.8883 246.85L335.77893 246.85Q335.62268 246.52188 335.5758 246.08438ZM335.48206 243.725Q334.90393 243.95938 333.7633 244.13126Q333.10706 244.225 332.84143 244.35Q332.5758 244.45938 332.41956 244.67813Q332.27893 244.89688 332.27893 245.17813Q332.27893 245.6 332.59143 245.88126Q332.91956 246.1625 333.52893 246.1625Q334.1383 246.1625 334.60706 245.89688Q335.09143 245.63126 335.31018 245.1625Q335.48206 244.80313 335.48206 244.11563L335.48206 243.725ZM338.5133 249.24063L338.5133 240.63126L339.46643 240.63126L339.46643 241.42813Q339.81018 240.95938 340.23206 240.725Q340.66956 240.49063 341.27893 240.49063Q342.0758 240.49063 342.68518 240.89688Q343.29456 241.30313 343.59143 242.05313Q343.90393 242.80313 343.90393 243.69376Q343.90393 244.64688 343.56018 245.4125Q343.23206 246.17813 342.5758 246.58438Q341.91956 246.99063 341.2008 246.99063Q340.66956 246.99063 340.24768 246.77188Q339.8258 246.5375 339.56018 246.20938L339.56018 249.24063L338.5133 249.24063ZM339.46643 243.77188Q339.46643 244.975 339.9508 245.55313Q340.43518 246.11563 341.12268 246.11563Q341.8258 246.11563 342.3258 245.52188Q342.8258 244.92813 342.8258 243.67813Q342.8258 242.49063 342.34143 241.9125Q341.85706 241.31876 341.16956 241.31876Q340.49768 241.31876 339.98206 241.94376Q339.46643 242.56876 339.46643 243.77188ZM345.5133 249.24063L345.5133 240.63126L346.46643 240.63126L346.46643 241.42813Q346.81018 240.95938 347.23206 240.725Q347.66956 240.49063 348.27893 240.49063Q349.0758 240.49063 349.68518 240.89688Q350.29456 241.30313 350.59143 242.05313Q350.90393 242.80313 350.90393 243.69376Q350.90393 244.64688 350.56018 245.4125Q350.23206 246.17813 349.5758 246.58438Q348.91956 246.99063 348.2008 246.99063Q347.66956 246.99063 347.24768 246.77188Q346.8258 246.5375 346.56018 246.20938L346.56018 249.24063L345.5133 249.24063ZM346.46643 243.77188Q346.46643 244.975 346.9508 245.55313Q347.43518 246.11563 348.12268 246.11563Q348.8258 246.11563 349.3258 245.52188Q349.8258 244.92813 349.8258 243.67813Q349.8258 242.49063 349.34143 241.9125Q348.85706 241.31876 348.16956 241.31876Q347.49768 241.31876 346.98206 241.94376Q346.46643 242.56876 346.46643 243.77188ZM352.09143 244.99063L353.12268 244.83438Q353.21643 245.45938 353.60706 245.7875Q354.0133 246.11563 354.74768 246.11563Q355.46643 246.11563 355.81018 245.83438Q356.16956 245.5375 356.16956 245.13126Q356.16956 244.77188 355.85706 244.56876Q355.6383 244.42813 354.77893 244.20938Q353.62268 243.9125 353.16956 243.70938Q352.73206 243.49063 352.49768 243.11563Q352.2633 242.74063 352.2633 242.27188Q352.2633 241.86563 352.4508 241.50626Q352.6383 241.14688 352.96643 240.9125Q353.21643 240.74063 353.6383 240.61563Q354.06018 240.49063 354.56018 240.49063Q355.27893 240.49063 355.8258 240.70938Q356.3883 240.9125 356.65393 241.27188Q356.91956 241.63126 357.0133 242.225L355.98206 242.36563Q355.91956 241.89688 355.5758 241.63126Q355.24768 241.35 354.62268 241.35Q353.90393 241.35 353.59143 241.6Q353.27893 241.83438 353.27893 242.1625Q353.27893 242.36563 353.40393 242.52188Q353.54456 242.69376 353.81018 242.80313Q353.96643 242.86563 354.74768 243.06876Q355.87268 243.38126 356.31018 243.56876Q356.74768 243.75626 356.99768 244.11563Q357.24768 244.475 357.24768 245.02188Q357.24768 245.55313 356.93518 246.02188Q356.6383 246.475 356.06018 246.74063Q355.48206 246.99063 354.74768 246.99063Q353.52893 246.99063 352.8883 246.49063Q352.2633 245.975 352.09143 244.99063Z" fill-rule="nonzero"/><path fill="#4285f4" d="M87.0 42.916668C87.0 42.364384 87.447716 41.916668 88.0 41.916668L98.0 41.916668C98.552284 41.916668 99.0 42.364384 99.0 42.916668L99.0 52.916668C99.0 53.468952 98.552284 53.916668 98.0 53.916668L88.0 53.916668C87.447716 53.916668 87.0 53.468952 87.0 52.916668Z" fill-rule="nonzero"/><path fill="#1a1a1a" d="M111.953125 48.541668L111.953125 47.541668L115.578125 47.526043L115.578125 50.713543Q114.75 51.385418 113.859375 51.729168Q112.96875 52.057293 112.03125 52.057293Q110.765625 52.057293 109.71875 51.526043Q108.6875 50.979168 108.15625 49.963543Q107.640625 48.932293 107.640625 47.666668Q107.640625 46.401043 108.15625 45.322918Q108.6875 44.229168 109.671875 43.713543Q110.65625 43.182293 111.9375 43.182293Q112.875 43.182293 113.625 43.479168Q114.375 43.776043 114.796875 44.322918Q115.234375 44.854168 115.453125 45.729168L114.4375 46.010418Q114.234375 45.354168 113.9375 44.979168Q113.65625 44.604168 113.125 44.385418Q112.59375 44.151043 111.953125 44.151043Q111.171875 44.151043 110.59375 44.385418Q110.03125 44.619793 109.671875 45.010418Q109.328125 45.401043 109.140625 45.869793Q108.8125 46.666668 108.8125 47.588543Q108.8125 48.744793 109.203125 49.526043Q109.609375 50.291668 110.359375 50.666668Q111.109375 51.041668 111.96875 51.041668Q112.703125 51.041668 113.40625 50.760418Q114.109375 50.463543 114.46875 50.151043L114.46875 48.541668L111.953125 48.541668ZM116.953125 51.916668L116.953125 43.322918L123.15625 43.322918L123.15625 44.338543L118.09375 44.338543L118.09375 46.963543L122.84375 46.963543L122.84375 47.979168L118.09375 47.979168L118.09375 50.901043L123.359375 50.901043L123.359375 51.916668L116.953125 51.916668ZM124.578125 47.729168Q124.578125 45.588543 125.71875 44.385418Q126.875 43.166668 128.6875 43.166668Q129.89062 43.166668 130.84375 43.744793Q131.79688 44.307293 132.29688 45.322918Q132.79688 46.338543 132.79688 47.635418Q132.79688 48.932293 132.26562 49.963543Q131.73438 50.994793 130.76562 51.526043Q129.8125 52.057293 128.6875 52.057293Q127.46875 52.057293 126.515625 51.479168Q125.5625 50.885418 125.0625 49.885418Q124.578125 48.869793 124.578125 47.729168ZM125.75 47.744793Q125.75 49.307293 126.578125 50.197918Q127.421875 51.088543 128.6875 51.088543Q129.96875 51.088543 130.79688 50.197918Q131.625 49.291668 131.625 47.619793Q131.625 46.572918 131.26562 45.791668Q130.92188 45.010418 130.23438 44.588543Q129.54688 44.151043 128.70312 44.151043Q127.5 44.151043 126.625 44.979168Q125.75 45.807293 125.75 47.744793ZM133.375 49.338543L133.375 48.276043L136.625 48.276043L136.625 49.338543L133.375 49.338543ZM144.0625 48.901043L145.1875 49.197918Q144.82812 50.588543 143.90625 51.322918Q142.98438 52.057293 141.64062 52.057293Q140.25 52.057293 139.375 51.494793Q138.5 50.932293 138.04688 49.869793Q137.59375 48.791668 137.59375 47.557293Q137.59375 46.213543 138.10938 45.213543Q138.625 44.213543 139.5625 43.697918Q140.51562 43.182293 141.65625 43.182293Q142.9375 43.182293 143.8125 43.838543Q144.70312 44.494793 145.04688 45.682293L143.92188 45.947918Q143.625 45.010418 143.04688 44.588543Q142.48438 44.151043 141.625 44.151043Q140.64062 44.151043 139.96875 44.635418Q139.3125 45.104168 139.03125 45.901043Q138.76562 46.697918 138.76562 47.557293Q138.76562 48.651043 139.07812 49.463543Q139.40625 50.276043 140.07812 50.682293Q140.75 51.088543 141.54688 51.088543Q142.5 51.088543 143.15625 50.541668Q143.82812 49.994793 144.0625 48.901043ZM146.76562 51.916668L146.76562 43.322918L147.82812 43.322918L147.82812 51.916668L146.76562 51.916668ZM153.875 51.916668L153.875 50.994793Q153.14062 52.057293 151.89062 52.057293Q151.34375 52.057293 150.85938 51.854168Q150.39062 51.635418 150.15625 51.322918Q149.92188 50.994793 149.82812 50.526043Q149.76562 50.229168 149.76562 49.541668L149.76562 45.697918L150.82812 45.697918L150.82812 49.151043Q150.82812 49.963543 150.89062 50.260418Q150.98438 50.666668 151.29688 50.916668Q151.625 51.151043 152.10938 51.151043Q152.57812 51.151043 152.98438 50.916668Q153.40625 50.666668 153.57812 50.244793Q153.76562 49.822918 153.76562 49.026043L153.76562 45.697918L154.8125 45.697918L154.8125 51.916668L153.875 51.916668ZM156.375 50.057293L157.40625 49.901043Q157.5 50.526043 157.89062 50.854168Q158.29688 51.182293 159.03125 51.182293Q159.75 51.182293 160.09375 50.901043Q160.45312 50.604168 160.45312 50.197918Q160.45312 49.838543 160.14062 49.635418Q159.92188 49.494793 159.0625 49.276043Q157.90625 48.979168 157.45312 48.776043Q157.01562 48.557293 156.78125 48.182293Q156.54688 47.807293 156.54688 47.338543Q156.54688 46.932293 156.73438 46.572918Q156.92188 46.213543 157.25 45.979168Q157.5 45.807293 157.92188 45.682293Q158.34375 45.557293 158.84375 45.557293Q159.5625 45.557293 160.10938 45.776043Q160.67188 45.979168 160.9375 46.338543Q161.20312 46.697918 161.29688 47.291668L160.26562 47.432293Q160.20312 46.963543 159.85938 46.697918Q159.53125 46.416668 158.90625 46.416668Q158.1875 46.416668 157.875 46.666668Q157.5625 46.901043 157.5625 47.229168Q157.5625 47.432293 157.6875 47.588543Q157.82812 47.760418 158.09375 47.869793Q158.25 47.932293 159.03125 48.135418Q160.15625 48.447918 160.59375 48.635418Q161.03125 48.822918 161.28125 49.182293Q161.53125 49.541668 161.53125 50.088543Q161.53125 50.619793 161.21875 51.088543Q160.92188 51.541668 160.34375 51.807293Q159.76562 52.057293 159.03125 52.057293Q157.8125 52.057293 157.17188 51.557293Q156.54688 51.041668 156.375 50.057293ZM166.09375 50.979168L166.25 51.901043Q165.79688 51.994793 165.45312 51.994793Q164.875 51.994793 164.5625 51.822918Q164.25 51.635418 164.10938 51.338543Q163.98438 51.041668 163.98438 50.088543L163.98438 46.510418L163.21875 46.510418L163.21875 45.697918L163.98438 45.697918L163.98438 44.151043L165.03125 43.526043L165.03125 45.697918L166.09375 45.697918L166.09375 46.510418L165.03125 46.510418L165.03125 50.151043Q165.03125 50.604168 165.07812 50.729168Q165.14062 50.854168 165.26562 50.932293Q165.39062 51.010418 165.625 51.010418Q165.8125 51.010418 166.09375 50.979168ZM171.04688 49.916668L172.14062 50.041668Q171.89062 50.994793 171.1875 51.526043Q170.48438 52.057293 169.40625 52.057293Q168.04688 52.057293 167.23438 51.213543Q166.4375 50.369793 166.4375 48.854168Q166.4375 47.291668 167.25 46.432293Q168.0625 45.557293 169.34375 45.557293Q170.59375 45.557293 171.375 46.401043Q172.17188 47.244793 172.17188 48.791668Q172.17188 48.885418 172.17188 49.072918L167.53125 49.072918Q167.59375 50.104168 168.10938 50.651043Q168.625 51.182293 169.40625 51.182293Q169.98438 51.182293 170.39062 50.885418Q170.8125 50.572918 171.04688 49.916668ZM167.59375 48.213543L171.0625 48.213543Q171.0 47.416668 170.67188 47.026043Q170.15625 46.416668 169.35938 46.416668Q168.625 46.416668 168.125 46.901043Q167.64062 47.385418 167.59375 48.213543ZM173.78125 51.916668L173.78125 45.697918L174.73438 45.697918L174.73438 46.635418Q175.09375 45.979168 175.39062 45.776043Q175.70312 45.557293 176.07812 45.557293Q176.60938 45.557293 177.15625 45.885418L176.79688 46.869793Q176.40625 46.635418 176.03125 46.635418Q175.67188 46.635418 175.39062 46.854168Q175.125 47.057293 175.01562 47.432293Q174.82812 47.994793 174.82812 48.651043L174.82812 51.916668L173.78125 51.916668Z" fill-rule="nonzero"/><path fill="#ea4335" d="M193.0 42.916668C193.0 42.364384 193.44771 41.916668 194.0 41.916668L204.0 41.916668C204.55229 41.916668 205.0 42.364384 205.0 42.916668L205.0 52.916668C205.0 53.468952 204.55229 53.916668 204.0 53.916668L194.0 53.916668C193.44771 53.916668 193.0 53.468952 193.0 52.916668Z" fill-rule="nonzero"/><path fill="#1a1a1a" d="M217.95312 48.541668L217.95312 47.541668L221.57812 47.526043L221.57812 50.713543Q220.75 51.385418 219.85938 51.729168Q218.96875 52.057293 218.03125 52.057293Q216.76562 52.057293 215.71875 51.526043Q214.6875 50.979168 214.15625 49.963543Q213.64062 48.932293 213.64062 47.666668Q213.64062 46.401043 214.15625 45.322918Q214.6875 44.229168 215.67188 43.713543Q216.65625 43.182293 217.9375 43.182293Q218.875 43.182293 219.625 43.479168Q220.375 43.776043 220.79688 44.322918Q221.23438 44.854168 221.45312 45.729168L220.4375 46.010418Q220.23438 45.354168 219.9375 44.979168Q219.65625 44.604168 219.125 44.385418Q218.59375 44.151043 217.95312 44.151043Q217.17188 44.151043 216.59375 44.385418Q216.03125 44.619793 215.67188 45.010418Q215.32812 45.401043 215.14062 45.869793Q214.8125 46.666668 214.8125 47.588543Q214.8125 48.744793 215.20312 49.526043Q215.60938 50.291668 216.35938 50.666668Q217.10938 51.041668 217.96875 51.041668Q218.70312 51.041668 219.40625 50.760418Q220.10938 50.463543 220.46875 50.151043L220.46875 48.541668L217.95312 48.541668ZM222.95312 51.916668L222.95312 43.322918L229.15625 43.322918L229.15625 44.338543L224.09375 44.338543L224.09375 46.963543L228.84375 46.963543L228.84375 47.979168L224.09375 47.979168L224.09375 50.901043L229.35938 50.901043L229.35938 51.916668L222.95312 51.916668ZM230.57812 47.729168Q230.57812 45.588543 231.71875 44.385418Q232.875 43.166668 234.6875 43.166668Q235.89062 43.166668 236.84375 43.744793Q237.79688 44.307293 238.29688 45.322918Q238.79688 46.338543 238.79688 47.635418Q238.79688 48.932293 238.26562 49.963543Q237.73438 50.994793 236.76562 51.526043Q235.8125 52.057293 234.6875 52.057293Q233.46875 52.057293 232.51562 51.479168Q231.5625 50.885418 231.0625 49.885418Q230.57812 48.869793 230.57812 47.729168ZM231.75 47.744793Q231.75 49.307293 232.57812 50.197918Q233.42188 51.088543 234.6875 51.088543Q235.96875 51.088543 236.79688 50.197918Q237.625 49.291668 237.625 47.619793Q237.625 46.572918 237.26562 45.791668Q236.92188 45.010418 236.23438 44.588543Q235.54688 44.151043 234.70312 44.151043Q233.5 44.151043 232.625 44.979168Q231.75 45.807293 231.75 47.744793ZM246.85938 51.151043Q246.26562 51.651043 245.71875 51.854168Q245.1875 52.057293 244.5625 52.057293Q243.53125 52.057293 242.98438 51.557293Q242.4375 51.057293 242.4375 50.276043Q242.4375 49.822918 242.64062 49.447918Q242.84375 49.057293 243.1875 48.838543Q243.53125 48.604168 243.95312 48.494793Q244.25 48.401043 244.89062 48.322918Q246.15625 48.182293 246.76562 47.963543Q246.76562 47.744793 246.76562 47.697918Q246.76562 47.041668 246.46875 46.776043Q246.0625 46.432293 245.26562 46.432293Q244.53125 46.432293 244.17188 46.697918Q243.8125 46.947918 243.64062 47.604168L242.60938 47.463543Q242.75 46.807293 243.07812 46.401043Q243.40625 45.994793 244.01562 45.776043Q244.625 45.557293 245.42188 45.557293Q246.21875 45.557293 246.71875 45.744793Q247.21875 45.932293 247.45312 46.213543Q247.6875 46.494793 247.78125 46.932293Q247.82812 47.197918 247.82812 47.901043L247.82812 49.307293Q247.82812 50.776043 247.89062 51.166668Q247.96875 51.557293 248.17188 51.916668L247.0625 51.916668Q246.90625 51.588543 246.85938 51.151043ZM246.76562 48.791668Q246.1875 49.026043 245.04688 49.197918Q244.39062 49.291668 244.125 49.416668Q243.85938 49.526043 243.70312 49.744793Q243.5625 49.963543 243.5625 50.244793Q243.5625 50.666668 243.875 50.947918Q244.20312 51.229168 244.8125 51.229168Q245.42188 51.229168 245.89062 50.963543Q246.375 50.697918 246.59375 50.229168Q246.76562 49.869793 246.76562 49.182293L246.76562 48.791668ZM249.79688 51.916668L249.79688 45.697918L250.73438 45.697918L250.73438 46.572918Q251.42188 45.557293 252.71875 45.557293Q253.28125 45.557293 253.75 45.760418Q254.23438 45.963543 254.46875 46.291668Q254.70312 46.619793 254.79688 47.057293Q254.84375 47.354168 254.84375 48.088543L254.84375 51.916668L253.79688 51.916668L253.79688 48.135418Q253.79688 47.479168 253.67188 47.166668Q253.54688 46.854168 253.23438 46.666668Q252.92188 46.463543 252.5 46.463543Q251.82812 46.463543 251.32812 46.901043Q250.84375 47.322918 250.84375 48.510418L250.84375 51.916668L249.79688 51.916668ZM260.82812 51.916668L260.82812 51.135418Q260.23438 52.057293 259.09375 52.057293Q258.34375 52.057293 257.71875 51.651043Q257.09375 51.229168 256.75 50.494793Q256.40625 49.760418 256.40625 48.807293Q256.40625 47.885418 256.71875 47.119793Q257.03125 46.354168 257.65625 45.963543Q258.28125 45.557293 259.04688 45.557293Q259.60938 45.557293 260.04688 45.791668Q260.48438 46.026043 260.76562 46.401043L260.76562 43.322918L261.8125 43.322918L261.8125 51.916668L260.82812 51.916668ZM257.5 48.807293Q257.5 50.010418 258.0 50.604168Q258.5 51.182293 259.1875 51.182293Q259.875 51.182293 260.35938 50.619793Q260.84375 50.057293 260.84375 48.901043Q260.84375 47.619793 260.34375 47.026043Q259.85938 46.432293 259.14062 46.432293Q258.4375 46.432293 257.96875 47.010418Q257.5 47.572918 257.5 48.807293ZM266.875 51.916668L266.875 43.322918L270.10938 43.322918Q271.09375 43.322918 271.6875 43.588543Q272.28125 43.854168 272.60938 44.401043Q272.95312 44.932293 272.95312 45.526043Q272.95312 46.072918 272.65625 46.557293Q272.35938 47.041668 271.75 47.338543Q272.53125 47.572918 272.9375 48.135418Q273.35938 48.682293 273.35938 49.432293Q273.35938 50.026043 273.10938 50.557293Q272.85938 51.072918 272.48438 51.354168Q272.10938 51.635418 271.53125 51.776043Q270.96875 51.916668 270.15625 51.916668L266.875 51.916668ZM268.01562 46.932293L269.875 46.932293Q270.625 46.932293 270.95312 46.838543Q271.39062 46.713543 271.60938 46.416668Q271.82812 46.104168 271.82812 45.651043Q271.82812 45.229168 271.625 44.901043Q271.42188 44.572918 271.03125 44.463543Q270.65625 44.338543 269.73438 44.338543L268.01562 44.338543L268.01562 46.932293ZM268.01562 50.901043L270.15625 50.901043Q270.70312 50.901043 270.92188 50.854168Q271.32812 50.791668 271.57812 50.635418Q271.84375 50.463543 272.01562 50.151043Q272.1875 49.838543 272.1875 49.432293Q272.1875 48.947918 271.9375 48.588543Q271.70312 48.229168 271.26562 48.088543Q270.82812 47.947918 270.0 47.947918L268.01562 47.947918L268.01562 50.901043ZM276.42188 51.916668L274.14062 43.322918L275.3125 43.322918L276.625 48.963543Q276.82812 49.838543 276.98438 50.713543Q277.3125 49.338543 277.375 49.119793L279.0 43.322918L280.375 43.322918L281.60938 47.666668Q282.0625 49.291668 282.28125 50.713543Q282.4375 49.901043 282.70312 48.838543L284.04688 43.322918L285.1875 43.322918L282.84375 51.916668L281.73438 51.916668L279.9375 45.369793Q279.70312 44.557293 279.65625 44.369793Q279.53125 44.947918 279.40625 45.369793L277.59375 51.916668L276.42188 51.916668ZM285.375 49.338543L285.375 48.276043L288.625 48.276043L288.625 49.338543L285.375 49.338543ZM296.0625 48.901043L297.1875 49.197918Q296.82812 50.588543 295.90625 51.322918Q294.98438 52.057293 293.64062 52.057293Q292.25 52.057293 291.375 51.494793Q290.5 50.932293 290.04688 49.869793Q289.59375 48.791668 289.59375 47.557293Q289.59375 46.213543 290.10938 45.213543Q290.625 44.213543 291.5625 43.697918Q292.51562 43.182293 293.65625 43.182293Q294.9375 43.182293 295.8125 43.838543Q296.70312 44.494793 297.04688 45.682293L295.92188 45.947918Q295.625 45.010418 295.04688 44.588543Q294.48438 44.151043 293.625 44.151043Q292.64062 44.151043 291.96875 44.635418Q291.3125 45.104168 291.03125 45.901043Q290.76562 46.697918 290.76562 47.557293Q290.76562 48.651043 291.07812 49.463543Q291.40625 50.276043 292.07812 50.682293Q292.75 51.088543 293.54688 51.088543Q294.5 51.088543 295.15625 50.541668Q295.82812 49.994793 296.0625 48.901043ZM298.76562 51.916668L298.76562 43.322918L299.82812 43.322918L299.82812 51.916668L298.76562 51.916668ZM305.875 51.916668L305.875 50.994793Q305.14062 52.057293 303.89062 52.057293Q303.34375 52.057293 302.85938 51.854168Q302.39062 51.635418 302.15625 51.322918Q301.92188 50.994793 301.82812 50.526043Q301.76562 50.229168 301.76562 49.541668L301.76562 45.697918L302.82812 45.697918L302.82812 49.151043Q302.82812 49.963543 302.89062 50.260418Q302.98438 50.666668 303.29688 50.916668Q303.625 51.151043 304.10938 51.151043Q304.57812 51.151043 304.98438 50.916668Q305.40625 50.666668 305.57812 50.244793Q305.76562 49.822918 305.76562 49.026043L305.76562 45.697918L306.8125 45.697918L306.8125 51.916668L305.875 51.916668ZM308.375 50.057293L309.40625 49.901043Q309.5 50.526043 309.89062 50.854168Q310.29688 51.182293 311.03125 51.182293Q311.75 51.182293 312.09375 50.901043Q312.45312 50.604168 312.45312 50.197918Q312.45312 49.838543 312.14062 49.635418Q311.92188 49.494793 311.0625 49.276043Q309.90625 48.979168 309.45312 48.776043Q309.01562 48.557293 308.78125 48.182293Q308.54688 47.807293 308.54688 47.338543Q308.54688 46.932293 308.73438 46.572918Q308.92188 46.213543 309.25 45.979168Q309.5 45.807293 309.92188 45.682293Q310.34375 45.557293 310.84375 45.557293Q311.5625 45.557293 312.10938 45.776043Q312.67188 45.979168 312.9375 46.338543Q313.20312 46.697918 313.29688 47.291668L312.26562 47.432293Q312.20312 46.963543 311.85938 46.697918Q311.53125 46.416668 310.90625 46.416668Q310.1875 46.416668 309.875 46.666668Q309.5625 46.901043 309.5625 47.229168Q309.5625 47.432293 309.6875 47.588543Q309.82812 47.760418 310.09375 47.869793Q310.25 47.932293 311.03125 48.135418Q312.15625 48.447918 312.59375 48.635418Q313.03125 48.822918 313.28125 49.182293Q313.53125 49.541668 313.53125 50.088543Q313.53125 50.619793 313.21875 51.088543Q312.92188 51.541668 312.34375 51.807293Q311.76562 52.057293 311.03125 52.057293Q309.8125 52.057293 309.17188 51.557293Q308.54688 51.041668 308.375 50.057293ZM318.09375 50.979168L318.25 51.901043Q317.79688 51.994793 317.45312 51.994793Q316.875 51.994793 316.5625 51.822918Q316.25 51.635418 316.10938 51.338543Q315.98438 51.041668 315.98438 50.088543L315.98438 46.510418L315.21875 46.510418L315.21875 45.697918L315.98438 45.697918L315.98438 44.151043L317.03125 43.526043L317.03125 45.697918L318.09375 45.697918L318.09375 46.510418L317.03125 46.510418L317.03125 50.151043Q317.03125 50.604168 317.07812 50.729168Q317.14062 50.854168 317.26562 50.932293Q317.39062 51.010418 317.625 51.010418Q317.8125 51.010418 318.09375 50.979168ZM323.04688 49.916668L324.14062 50.041668Q323.89062 50.994793 323.1875 51.526043Q322.48438 52.057293 321.40625 52.057293Q320.04688 52.057293 319.23438 51.213543Q318.4375 50.369793 318.4375 48.854168Q318.4375 47.291668 319.25 46.432293Q320.0625 45.557293 321.34375 45.557293Q322.59375 45.557293 323.375 46.401043Q324.17188 47.244793 324.17188 48.791668Q324.17188 48.885418 324.17188 49.072918L319.53125 49.072918Q319.59375 50.104168 320.10938 50.651043Q320.625 51.182293 321.40625 51.182293Q321.98438 51.182293 322.39062 50.885418Q322.8125 50.572918 323.04688 49.916668ZM319.59375 48.213543L323.0625 48.213543Q323.0 47.416668 322.67188 47.026043Q322.15625 46.416668 321.35938 46.416668Q320.625 46.416668 320.125 46.901043Q319.64062 47.385418 319.59375 48.213543ZM325.78125 51.916668L325.78125 45.697918L326.73438 45.697918L326.73438 46.635418Q327.09375 45.979168 327.39062 45.776043Q327.70312 45.557293 328.07812 45.557293Q328.60938 45.557293 329.15625 45.885418L328.79688 46.869793Q328.40625 46.635418 328.03125 46.635418Q327.67188 46.635418 327.39062 46.854168Q327.125 47.057293 327.01562 47.432293Q326.82812 47.994793 326.82812 48.651043L326.82812 51.916668L325.78125 51.916668Z" fill-rule="nonzero"/><path fill="#757575" d="M104.671875 28.15L104.671875 16.696875L108.96875 16.696875Q110.28125 16.696875 111.078125 17.040625Q111.875 17.384375 112.3125 18.11875Q112.765625 18.8375 112.765625 19.61875Q112.765625 20.353125 112.359375 21.009375Q111.96875 21.65 111.171875 22.05625Q112.203125 22.353125 112.765625 23.0875Q113.328125 23.821875 113.328125 24.821875Q113.328125 25.634375 112.984375 26.321875Q112.640625 27.009375 112.140625 27.384375Q111.640625 27.759375 110.890625 27.9625Q110.140625 28.15 109.046875 28.15L104.671875 28.15ZM106.1875 21.509375L108.671875 21.509375Q109.671875 21.509375 110.109375 21.36875Q110.6875 21.196875 110.984375 20.80625Q111.28125 20.4 111.28125 19.80625Q111.28125 19.228125 111.0 18.80625Q110.734375 18.36875 110.21875 18.2125Q109.71875 18.040625 108.484375 18.040625L106.1875 18.040625L106.1875 21.509375ZM106.1875 26.790625L109.046875 26.790625Q109.78125 26.790625 110.078125 26.74375Q110.59375 26.65 110.9375 26.43125Q111.296875 26.2125 111.515625 25.790625Q111.75 25.36875 111.75 24.821875Q111.75 24.18125 111.421875 23.7125Q111.09375 23.24375 110.515625 23.05625Q109.9375 22.853125 108.84375 22.853125L106.1875 22.853125L106.1875 26.790625ZM120.96875 27.11875Q120.1875 27.790625 119.46875 28.071875Q118.75 28.3375 117.921875 28.3375Q116.546875 28.3375 115.8125 27.665625Q115.078125 26.99375 115.078125 25.9625Q115.078125 25.353125 115.359375 24.853125Q115.640625 24.3375 116.078125 24.040625Q116.53125 23.728125 117.09375 23.571875Q117.515625 23.4625 118.34375 23.36875Q120.046875 23.165625 120.859375 22.884375Q120.859375 22.5875 120.859375 22.509375Q120.859375 21.65 120.46875 21.30625Q119.921875 20.821875 118.859375 20.821875Q117.875 20.821875 117.390625 21.18125Q116.921875 21.525 116.703125 22.4L115.328125 22.2125Q115.515625 21.3375 115.9375 20.790625Q116.375 20.24375 117.1875 19.9625Q118.0 19.665625 119.0625 19.665625Q120.125 19.665625 120.78125 19.915625Q121.453125 20.165625 121.765625 20.540625Q122.078125 20.915625 122.203125 21.49375Q122.28125 21.853125 122.28125 22.790625L122.28125 24.665625Q122.28125 26.634375 122.359375 27.15Q122.453125 27.665625 122.71875 28.15L121.25 28.15Q121.03125 27.7125 120.96875 27.11875ZM120.859375 23.978125Q120.09375 24.290625 118.5625 24.509375Q117.6875 24.634375 117.328125 24.790625Q116.96875 24.946875 116.765625 25.259375Q116.578125 25.55625 116.578125 25.915625Q116.578125 26.478125 117.0 26.853125Q117.4375 27.228125 118.25 27.228125Q119.0625 27.228125 119.6875 26.884375Q120.328125 26.525 120.625 25.9Q120.859375 25.43125 120.859375 24.49375L120.859375 23.978125ZM124.5625 28.15L124.5625 19.853125L125.828125 19.853125L125.828125 21.025Q126.734375 19.665625 128.46875 19.665625Q129.21875 19.665625 129.84375 19.93125Q130.46875 20.196875 130.78125 20.634375Q131.09375 21.071875 131.21875 21.68125Q131.29688 22.071875 131.29688 23.040625L131.29688 28.15L129.89062 28.15L129.89062 23.103125Q129.89062 22.24375 129.71875 21.821875Q129.5625 21.384375 129.14062 21.134375Q128.73438 20.884375 128.17188 20.884375Q127.265625 20.884375 126.609375 21.4625Q125.96875 22.025 125.96875 23.61875L125.96875 28.15L124.5625 28.15ZM137.9375 28.15L137.9375 27.103125Q137.15625 28.3375 135.625 28.3375Q134.625 28.3375 133.79688 27.790625Q132.96875 27.24375 132.5 26.259375Q132.04688 25.275 132.04688 24.009375Q132.04688 22.759375 132.45312 21.759375Q132.875 20.74375 133.70312 20.2125Q134.53125 19.665625 135.5625 19.665625Q136.3125 19.665625 136.89062 19.978125Q137.48438 20.290625 137.84375 20.80625L137.84375 16.696875L139.25 16.696875L139.25 28.15L137.9375 28.15ZM133.5 24.009375Q133.5 25.603125 134.17188 26.4Q134.84375 27.18125 135.75 27.18125Q136.67188 27.18125 137.3125 26.43125Q137.96875 25.665625 137.96875 24.11875Q137.96875 22.415625 137.3125 21.61875Q136.65625 20.821875 135.6875 20.821875Q134.75 20.821875 134.125 21.5875Q133.5 22.353125 133.5 24.009375ZM143.73438 28.15L140.70312 16.696875L142.25 16.696875L144.0 24.196875Q144.28125 25.384375 144.48438 26.540625Q144.92188 24.7125 145.0 24.43125L147.17188 16.696875L149.0 16.696875L150.64062 22.49375Q151.26562 24.65 151.53125 26.540625Q151.75 25.4625 152.10938 24.05625L153.90625 16.696875L155.42188 16.696875L152.28125 28.15L150.82812 28.15L148.40625 19.415625Q148.10938 18.321875 148.04688 18.071875Q147.875 18.86875 147.71875 19.415625L145.28125 28.15L143.73438 28.15ZM156.5625 18.30625L156.5625 16.696875L157.96875 16.696875L157.96875 18.30625L156.5625 18.30625ZM156.5625 28.15L156.5625 19.853125L157.96875 19.853125L157.96875 28.15L156.5625 28.15ZM165.9375 28.15L165.9375 27.103125Q165.15625 28.3375 163.625 28.3375Q162.625 28.3375 161.79688 27.790625Q160.96875 27.24375 160.5 26.259375Q160.04688 25.275 160.04688 24.009375Q160.04688 22.759375 160.45312 21.759375Q160.875 20.74375 161.70312 20.2125Q162.53125 19.665625 163.5625 19.665625Q164.3125 19.665625 164.89062 19.978125Q165.48438 20.290625 165.84375 20.80625L165.84375 16.696875L167.25 16.696875L167.25 28.15L165.9375 28.15ZM161.5 24.009375Q161.5 25.603125 162.17188 26.4Q162.84375 27.18125 163.75 27.18125Q164.67188 27.18125 165.3125 26.43125Q165.96875 25.665625 165.96875 24.11875Q165.96875 22.415625 165.3125 21.61875Q164.65625 20.821875 163.6875 20.821875Q162.75 20.821875 162.125 21.5875Q161.5 22.353125 161.5 24.009375ZM172.625 26.884375L172.82812 28.134375Q172.23438 28.259375 171.76562 28.259375Q171.0 28.259375 170.57812 28.025Q170.15625 27.775 169.98438 27.384375Q169.8125 26.978125 169.8125 25.7125L169.8125 20.946875L168.78125 20.946875L168.78125 19.853125L169.8125 19.853125L169.8125 17.790625L171.21875 16.946875L171.21875 19.853125L172.625 19.853125L172.625 20.946875L171.21875 20.946875L171.21875 25.790625Q171.21875 26.4 171.28125 26.571875Q171.35938 26.74375 171.53125 26.853125Q171.70312 26.946875 172.01562 26.946875Q172.25 26.946875 172.625 26.884375ZM173.5625 28.15L173.5625 16.696875L174.96875 16.696875L174.96875 20.80625Q175.95312 19.665625 177.45312 19.665625Q178.375 19.665625 179.04688 20.025Q179.73438 20.384375 180.01562 21.025Q180.3125 21.665625 180.3125 22.884375L180.3125 28.15L178.90625 28.15L178.90625 22.884375Q178.90625 21.8375 178.45312 21.353125Q178.0 20.86875 177.15625 20.86875Q176.53125 20.86875 175.98438 21.196875Q175.4375 21.525 175.20312 22.0875Q174.96875 22.634375 174.96875 23.603125L174.96875 28.15L173.5625 28.15ZM181.01562 24.7125L181.01562 23.290625L185.32812 23.290625L185.32812 24.7125L181.01562 24.7125ZM186.67188 28.15L186.67188 16.696875L190.96875 16.696875Q192.28125 16.696875 193.07812 17.040625Q193.875 17.384375 194.3125 18.11875Q194.76562 18.8375 194.76562 19.61875Q194.76562 20.353125 194.35938 21.009375Q193.96875 21.65 193.17188 22.05625Q194.20312 22.353125 194.76562 23.0875Q195.32812 23.821875 195.32812 24.821875Q195.32812 25.634375 194.98438 26.321875Q194.64062 27.009375 194.14062 27.384375Q193.64062 27.759375 192.89062 27.9625Q192.14062 28.15 191.04688 28.15L186.67188 28.15ZM188.1875 21.509375L190.67188 21.509375Q191.67188 21.509375 192.10938 21.36875Q192.6875 21.196875 192.98438 20.80625Q193.28125 20.4 193.28125 19.80625Q193.28125 19.228125 193.0 18.80625Q192.73438 18.36875 192.21875 18.2125Q191.71875 18.040625 190.48438 18.040625L188.1875 18.040625L188.1875 21.509375ZM188.1875 26.790625L191.04688 26.790625Q191.78125 26.790625 192.07812 26.74375Q192.59375 26.65 192.9375 26.43125Q193.29688 26.2125 193.51562 25.790625Q193.75 25.36875 193.75 24.821875Q193.75 24.18125 193.42188 23.7125Q193.09375 23.24375 192.51562 23.05625Q191.9375 22.853125 190.84375 22.853125L188.1875 22.853125L188.1875 26.790625ZM197.03125 23.99375Q197.03125 21.696875 198.3125 20.5875Q199.39062 19.665625 200.92188 19.665625Q202.64062 19.665625 203.71875 20.790625Q204.8125 21.9 204.8125 23.884375Q204.8125 25.478125 204.32812 26.4Q203.84375 27.321875 202.92188 27.8375Q202.01562 28.3375 200.92188 28.3375Q199.1875 28.3375 198.10938 27.228125Q197.03125 26.103125 197.03125 23.99375ZM198.48438 23.99375Q198.48438 25.5875 199.17188 26.384375Q199.875 27.18125 200.92188 27.18125Q201.96875 27.18125 202.65625 26.384375Q203.35938 25.5875 203.35938 23.946875Q203.35938 22.415625 202.65625 21.61875Q201.96875 20.821875 200.92188 20.821875Q199.875 20.821875 199.17188 21.61875Q198.48438 22.4 198.48438 23.99375ZM212.0 28.15L212.0 26.93125Q211.03125 28.3375 209.35938 28.3375Q208.625 28.3375 207.98438 28.05625Q207.35938 27.775 207.04688 27.353125Q206.73438 26.915625 206.60938 26.30625Q206.53125 25.884375 206.53125 24.99375L206.53125 19.853125L207.9375 19.853125L207.9375 24.446875Q207.9375 25.55625 208.01562 25.93125Q208.15625 26.49375 208.57812 26.80625Q209.01562 27.11875 209.64062 27.11875Q210.28125 27.11875 210.82812 26.80625Q211.39062 26.478125 211.60938 25.915625Q211.84375 25.353125 211.84375 24.290625L211.84375 19.853125L213.25 19.853125L213.25 28.15L212.0 28.15ZM214.5625 28.15L214.5625 19.853125L215.82812 19.853125L215.82812 21.025Q216.73438 19.665625 218.46875 19.665625Q219.21875 19.665625 219.84375 19.93125Q220.46875 20.196875 220.78125 20.634375Q221.09375 21.071875 221.21875 21.68125Q221.29688 22.071875 221.29688 23.040625L221.29688 28.15L219.89062 28.15L219.89062 23.103125Q219.89062 22.24375 219.71875 21.821875Q219.5625 21.384375 219.14062 21.134375Q218.73438 20.884375 218.17188 20.884375Q217.26562 20.884375 216.60938 21.4625Q215.96875 22.025 215.96875 23.61875L215.96875 28.15L214.5625 28.15ZM227.9375 28.15L227.9375 27.103125Q227.15625 28.3375 225.625 28.3375Q224.625 28.3375 223.79688 27.790625Q222.96875 27.24375 222.5 26.259375Q222.04688 25.275 222.04688 24.009375Q222.04688 22.759375 222.45312 21.759375Q222.875 20.74375 223.70312 20.2125Q224.53125 19.665625 225.5625 19.665625Q226.3125 19.665625 226.89062 19.978125Q227.48438 20.290625 227.84375 20.80625L227.84375 16.696875L229.25 16.696875L229.25 28.15L227.9375 28.15ZM223.5 24.009375Q223.5 25.603125 224.17188 26.4Q224.84375 27.18125 225.75 27.18125Q226.67188 27.18125 227.3125 26.43125Q227.96875 25.665625 227.96875 24.11875Q227.96875 22.415625 227.3125 21.61875Q226.65625 20.821875 225.6875 20.821875Q224.75 20.821875 224.125 21.5875Q223.5 22.353125 223.5 24.009375ZM234.46875 28.15L238.875 16.696875L240.51562 16.696875L245.20312 28.15L243.46875 28.15L242.14062 24.68125L237.34375 24.68125L236.09375 28.15L234.46875 28.15ZM237.78125 23.446875L241.67188 23.446875L240.46875 20.275Q239.92188 18.821875 239.65625 17.9Q239.4375 18.99375 239.04688 20.0875L237.78125 23.446875ZM246.5625 31.3375L246.5625 19.853125L247.84375 19.853125L247.84375 20.93125Q248.29688 20.290625 248.85938 19.978125Q249.4375 19.665625 250.25 19.665625Q251.3125 19.665625 252.125 20.2125Q252.9375 20.759375 253.34375 21.759375Q253.76562 22.74375 253.76562 23.93125Q253.76562 25.2125 253.29688 26.228125Q252.84375 27.24375 251.96875 27.790625Q251.10938 28.3375 250.14062 28.3375Q249.4375 28.3375 248.875 28.040625Q248.32812 27.74375 247.96875 27.290625L247.96875 31.3375L246.5625 31.3375ZM247.82812 24.040625Q247.82812 25.65 248.46875 26.415625Q249.125 27.18125 250.04688 27.18125Q250.98438 27.18125 251.65625 26.384375Q252.32812 25.5875 252.32812 23.93125Q252.32812 22.3375 251.67188 21.55625Q251.01562 20.759375 250.10938 20.759375Q249.21875 20.759375 248.51562 21.603125Q247.82812 22.446875 247.82812 24.040625ZM255.5625 31.3375L255.5625 19.853125L256.84375 19.853125L256.84375 20.93125Q257.29688 20.290625 257.85938 19.978125Q258.4375 19.665625 259.25 19.665625Q260.3125 19.665625 261.125 20.2125Q261.9375 20.759375 262.34375 21.759375Q262.76562 22.74375 262.76562 23.93125Q262.76562 25.2125 262.29688 26.228125Q261.84375 27.24375 260.96875 27.790625Q260.10938 28.3375 259.14062 28.3375Q258.4375 28.3375 257.875 28.040625Q257.32812 27.74375 256.96875 27.290625L256.96875 31.3375L255.5625 31.3375ZM256.82812 24.040625Q256.82812 25.65 257.46875 26.415625Q258.125 27.18125 259.04688 27.18125Q259.98438 27.18125 260.65625 26.384375Q261.32812 25.5875 261.32812 23.93125Q261.32812 22.3375 260.67188 21.55625Q260.01562 20.759375 259.10938 20.759375Q258.21875 20.759375 257.51562 21.603125Q256.82812 22.446875 256.82812 24.040625ZM264.53125 28.15L264.53125 16.696875L265.9375 16.696875L265.9375 28.15L264.53125 28.15ZM267.5625 18.30625L267.5625 16.696875L268.96875 16.696875L268.96875 18.30625L267.5625 18.30625ZM267.5625 28.15L267.5625 19.853125L268.96875 19.853125L268.96875 28.15L267.5625 28.15ZM276.96875 25.103125L278.35938 25.290625Q278.125 26.7125 277.1875 27.525Q276.26562 28.3375 274.90625 28.3375Q273.20312 28.3375 272.15625 27.228125Q271.125 26.103125 271.125 24.025Q271.125 22.68125 271.5625 21.68125Q272.01562 20.665625 272.92188 20.165625Q273.84375 19.665625 274.90625 19.665625Q276.26562 19.665625 277.125 20.353125Q277.98438 21.025 278.21875 22.290625L276.85938 22.49375Q276.65625 21.665625 276.15625 21.24375Q275.67188 20.821875 274.96875 20.821875Q273.90625 20.821875 273.23438 21.5875Q272.57812 22.3375 272.57812 23.99375Q272.57812 25.665625 273.21875 26.43125Q273.85938 27.18125 274.89062 27.18125Q275.71875 27.18125 276.26562 26.68125Q276.82812 26.165625 276.96875 25.103125ZM284.96875 27.11875Q284.1875 27.790625 283.46875 28.071875Q282.75 28.3375 281.92188 28.3375Q280.54688 28.3375 279.8125 27.665625Q279.07812 26.99375 279.07812 25.9625Q279.07812 25.353125 279.35938 24.853125Q279.64062 24.3375 280.07812 24.040625Q280.53125 23.728125 281.09375 23.571875Q281.51562 23.4625 282.34375 23.36875Q284.04688 23.165625 284.85938 22.884375Q284.85938 22.5875 284.85938 22.509375Q284.85938 21.65 284.46875 21.30625Q283.92188 20.821875 282.85938 20.821875Q281.875 20.821875 281.39062 21.18125Q280.92188 21.525 280.70312 22.4L279.32812 22.2125Q279.51562 21.3375 279.9375 20.790625Q280.375 20.24375 281.1875 19.9625Q282.0 19.665625 283.0625 19.665625Q284.125 19.665625 284.78125 19.915625Q285.45312 20.165625 285.76562 20.540625Q286.07812 20.915625 286.20312 21.49375Q286.28125 21.853125 286.28125 22.790625L286.28125 24.665625Q286.28125 26.634375 286.35938 27.15Q286.45312 27.665625 286.71875 28.15L285.25 28.15Q285.03125 27.7125 284.96875 27.11875ZM284.85938 23.978125Q284.09375 24.290625 282.5625 24.509375Q281.6875 24.634375 281.32812 24.790625Q280.96875 24.946875 280.76562 25.259375Q280.57812 25.55625 280.57812 25.915625Q280.57812 26.478125 281.0 26.853125Q281.4375 27.228125 282.25 27.228125Q283.0625 27.228125 283.6875 26.884375Q284.32812 26.525 284.625 25.9Q284.85938 25.43125 284.85938 24.49375L284.85938 23.978125ZM291.625 26.884375L291.82812 28.134375Q291.23438 28.259375 290.76562 28.259375Q290.0 28.259375 289.57812 28.025Q289.15625 27.775 288.98438 27.384375Q288.8125 26.978125 288.8125 25.7125L288.8125 20.946875L287.78125 20.946875L287.78125 19.853125L288.8125 19.853125L288.8125 17.790625L290.21875 16.946875L290.21875 19.853125L291.625 19.853125L291.625 20.946875L290.21875 20.946875L290.21875 25.790625Q290.21875 26.4 290.28125 26.571875Q290.35938 26.74375 290.53125 26.853125Q290.70312 26.946875 291.01562 26.946875Q291.25 26.946875 291.625 26.884375ZM292.5625 18.30625L292.5625 16.696875L293.96875 16.696875L293.96875 18.30625L292.5625 18.30625ZM292.5625 28.15L292.5625 19.853125L293.96875 19.853125L293.96875 28.15L292.5625 28.15ZM296.03125 23.99375Q296.03125 21.696875 297.3125 20.5875Q298.39062 19.665625 299.92188 19.665625Q301.64062 19.665625 302.71875 20.790625Q303.8125 21.9 303.8125 23.884375Q303.8125 25.478125 303.32812 26.4Q302.84375 27.321875 301.92188 27.8375Q301.01562 28.3375 299.92188 28.3375Q298.1875 28.3375 297.10938 27.228125Q296.03125 26.103125 296.03125 23.99375ZM297.48438 23.99375Q297.48438 25.5875 298.17188 26.384375Q298.875 27.18125 299.92188 27.18125Q300.96875 27.18125 301.65625 26.384375Q302.35938 25.5875 302.35938 23.946875Q302.35938 22.415625 301.65625 21.61875Q300.96875 20.821875 299.92188 20.821875Q298.875 20.821875 298.17188 21.61875Q297.48438 22.4 297.48438 23.99375ZM305.5625 28.15L305.5625 19.853125L306.82812 19.853125L306.82812 21.025Q307.73438 19.665625 309.46875 19.665625Q310.21875 19.665625 310.84375 19.93125Q311.46875 20.196875 311.78125 20.634375Q312.09375 21.071875 312.21875 21.68125Q312.29688 22.071875 312.29688 23.040625L312.29688 28.15L310.89062 28.15L310.89062 23.103125Q310.89062 22.24375 310.71875 21.821875Q310.5625 21.384375 310.14062 21.134375Q309.73438 20.884375 309.17188 20.884375Q308.26562 20.884375 307.60938 21.4625Q306.96875 22.025 306.96875 23.61875L306.96875 28.15L305.5625 28.15Z" fill-rule="nonzero"/></svg>