<svg version="1.1" viewBox="0.0 0.0 600.0 371.0" fill="none" stroke="none" stroke-linecap="square" stroke-miterlimit="10" width="600" height="371" xmlns:xlink="http://www.w3.org/1999/xlink" xmlns="http://www.w3.org/2000/svg"><path fill="#ffffff" d="M0 0L600.0 0L600.0 371.0L0 371.0L0 0Z" fill-rule="nonzero"/><path stroke="#cccccc" stroke-width="1.0" stroke-linecap="butt" d="M104.5 91.5L104.5 286.5" fill-rule="nonzero"/><path stroke="#cccccc" stroke-width="1.0" stroke-linecap="butt" d="M199.5 91.5L199.5 286.5" fill-rule="nonzero"/><path stroke="#cccccc" stroke-width="1.0" stroke-linecap="butt" d="M295.5 91.5L295.5 286.5" fill-rule="nonzero"/><path stroke="#cccccc" stroke-width="1.0" stroke-linecap="butt" d="M390.5 91.5L390.5 286.5" fill-rule="nonzero"/><path stroke="#cccccc" stroke-width="1.0" stroke-linecap="butt" d="M486.5 91.5L486.5 286.5" fill-rule="nonzero"/><path stroke="#cccccc" stroke-width="1.0" stroke-linecap="butt" d="M581.5 91.5L581.5 286.5" fill-rule="nonzero"/><path stroke="#333333" stroke-width="1.0" stroke-linecap="butt" d="M104.5 286.5L581.5 286.5" fill-rule="nonzero"/><path stroke="#cccccc" stroke-width="1.0" stroke-linecap="butt" d="M104.5 237.5L581.5 237.5" fill-rule="nonzero"/><path stroke="#cccccc" stroke-width="1.0" stroke-linecap="butt" d="M104.5 188.5L581.5 188.5" fill-rule="nonzero"/><path stroke="#cccccc" stroke-width="1.0" stroke-linecap="butt" d="M104.5 140.5L581.5 140.5" fill-rule="nonzero"/><path stroke="#cccccc" stroke-width="1.0" stroke-linecap="butt" d="M104.5 91.5L581.5 91.5" fill-rule="nonzero"/><clipPath id="id_0"><path d="M104.55 91.28333L581.45 91.28333L581.45 286.45L104.55 286.45L104.55 91.28333Z" clip-rule="nonzero"/></clipPath><path stroke="#4285f4" stroke-width="2.0" stroke-linecap="butt" clip-path="url(#id_0)" d="M104.55 224.11844L199.93 222.94612L295.31 206.49701L390.69 143.625L486.07 139.56358L581.45 134.1823" fill-rule="nonzero"/><path stroke="#ea4335" stroke-width="2.0" stroke-linecap="butt" clip-path="url(#id_0)" d="M104.55 235.10045L199.93 232.3262L295.31 211.08325L390.69 192.8082L486.07 177.81128L581.45 165.9298" fill-rule="nonzero"/><path stroke="#fbbc04" stroke-width="2.0" stroke-linecap="butt" clip-path="url(#id_0)" d="M104.55 224.2796L199.93 188.39954L295.31 179.42236L390.69 134.07356L486.07 128.52301L581.45 121.09954" fill-rule="nonzero"/><path stroke="#34a853" stroke-width="2.0" stroke-linecap="butt" clip-path="url(#id_0)" d="M104.55 226.78186L199.93 206.0108L295.31 193.32027L390.69 190.12129L486.07 184.68326L581.45 177.99834" fill-rule="nonzero"/><path fill="#000000" fill-opacity="0.0" clip-path="url(#id_0)" d="M107.55 224.11844C107.55 225.7753 106.206856 227.11844 104.55 227.11844C102.89314 227.11844 101.55 225.7753 101.55 224.11844C101.55 222.46158 102.89314 221.11844 104.55 221.11844C106.206856 221.11844 107.55 222.46158 107.55 224.11844Z" fill-rule="nonzero"/><path fill="#000000" fill-opacity="0.0" clip-path="url(#id_0)" d="M202.93 222.94612C202.93 224.60298 201.58685 225.94612 199.93 225.94612C198.27315 225.94612 196.93 224.60298 196.93 222.94612C196.93 221.28928 198.27315 219.94612 199.93 219.94612C201.58685 219.94612 202.93 221.28928 202.93 222.94612Z" fill-rule="nonzero"/><path fill="#000000" fill-opacity="0.0" clip-path="url(#id_0)" d="M298.31 206.49701C298.31 208.15385 296.96686 209.49701 295.31 209.49701C293.65314 209.49701 292.31 208.15385 292.31 206.49701C292.31 204.84015 293.65314 203.49701 295.31 203.49701C296.96686 203.49701 298.31 204.84015 298.31 206.49701Z" fill-rule="nonzero"/><path fill="#000000" fill-opacity="0.0" clip-path="url(#id_0)" d="M393.69 143.625C393.69 145.28186 392.34686 146.625 390.69 146.625C389.03314 146.625 387.69 145.28186 387.69 143.625C387.69 141.96815 389.03314 140.625 390.69 140.625C392.34686 140.625 393.69 141.96815 393.69 143.625Z" fill-rule="nonzero"/><path fill="#000000" fill-opacity="0.0" clip-path="url(#id_0)" d="M489.07 139.56358C489.07 141.22044 487.72687 142.56358 486.07 142.56358C484.41315 142.56358 483.07 141.22044 483.07 139.56358C483.07 137.90674 484.41315 136.56358 486.07 136.56358C487.72687 136.56358 489.07 137.90674 489.07 139.56358Z" fill-rule="nonzero"/><path fill="#000000" fill-opacity="0.0" clip-path="url(#id_0)" d="M584.45 134.1823C584.45 135.83916 583.1069 137.1823 581.45 137.1823C579.79315 137.1823 578.45 135.83916 578.45 134.1823C578.45 132.52544 579.79315 131.1823 581.45 131.1823C583.1069 131.1823 584.45 132.52544 584.45 134.1823Z" fill-rule="nonzero"/><path fill="#000000" fill-opacity="0.0" clip-path="url(#id_0)" d="M107.55 235.10045C107.55 236.7573 106.206856 238.10045 104.55 238.10045C102.89314 238.10045 101.55 236.7573 101.55 235.10045C101.55 233.44359 102.89314 232.10045 104.55 232.10045C106.206856 232.10045 107.55 233.44359 107.55 235.10045Z" fill-rule="nonzero"/><path fill="#000000" fill-opacity="0.0" clip-path="url(#id_0)" d="M202.93 232.3262C202.93 233.98305 201.58685 235.3262 199.93 235.3262C198.27315 235.3262 196.93 233.98305 196.93 232.3262C196.93 230.66934 198.27315 229.3262 199.93 229.3262C201.58685 229.3262 202.93 230.66934 202.93 232.3262Z" fill-rule="nonzero"/><path fill="#000000" fill-opacity="0.0" clip-path="url(#id_0)" d="M298.31 211.08325C298.31 212.74011 296.96686 214.08325 295.31 214.08325C293.65314 214.08325 292.31 212.74011 292.31 211.08325C292.31 209.42639 293.65314 208.08325 295.31 208.08325C296.96686 208.08325 298.31 209.42639 298.31 211.08325Z" fill-rule="nonzero"/><path fill="#000000" fill-opacity="0.0" clip-path="url(#id_0)" d="M393.69 192.8082C393.69 194.46506 392.34686 195.8082 390.69 195.8082C389.03314 195.8082 387.69 194.46506 387.69 192.8082C387.69 191.15134 389.03314 189.8082 390.69 189.8082C392.34686 189.8082 393.69 191.15134 393.69 192.8082Z" fill-rule="nonzero"/><path fill="#000000" fill-opacity="0.0" clip-path="url(#id_0)" d="M489.07 177.81128C489.07 179.46814 487.72687 180.81128 486.07 180.81128C484.41315 180.81128 483.07 179.46814 483.07 177.81128C483.07 176.15443 484.41315 174.81128 486.07 174.81128C487.72687 174.81128 489.07 176.15443 489.07 177.81128Z" fill-rule="nonzero"/><path fill="#000000" fill-opacity="0.0" clip-path="url(#id_0)" d="M584.45 165.9298C584.45 167.58664 583.1069 168.9298 581.45 168.9298C579.79315 168.9298 578.45 167.58664 578.45 165.9298C578.45 164.27293 579.79315 162.9298 581.45 162.9298C583.1069 162.9298 584.45 164.27293 584.45 165.9298Z" fill-rule="nonzero"/><path fill="#000000" fill-opacity="0.0" clip-path="url(#id_0)" d="M107.55 224.2796C107.55 225.93646 106.206856 227.2796 104.55 227.2796C102.89314 227.2796 101.55 225.93646 101.55 224.2796C101.55 222.62276 102.89314 221.2796 104.55 221.2796C106.206856 221.2796 107.55 222.62276 107.55 224.2796Z" fill-rule="nonzero"/><path fill="#000000" fill-opacity="0.0" clip-path="url(#id_0)" d="M202.93 188.39954C202.93 190.0564 201.58685 191.39954 199.93 191.39954C198.27315 191.39954 196.93 190.0564 196.93 188.39954C196.93 186.74269 198.27315 185.39954 199.93 185.39954C201.58685 185.39954 202.93 186.74269 202.93 188.39954Z" fill-rule="nonzero"/><path fill="#000000" fill-opacity="0.0" clip-path="url(#id_0)" d="M298.31 179.42236C298.31 181.07921 296.96686 182.42236 295.31 182.42236C293.65314 182.42236 292.31 181.07921 292.31 179.42236C292.31 177.7655 293.65314 176.42236 295.31 176.42236C296.96686 176.42236 298.31 177.7655 298.31 179.42236Z" fill-rule="nonzero"/><path fill="#000000" fill-opacity="0.0" clip-path="url(#id_0)" d="M393.69 134.07356C393.69 135.73042 392.34686 137.07356 390.69 137.07356C389.03314 137.07356 387.69 135.73042 387.69 134.07356C387.69 132.41672 389.03314 131.07356 390.69 131.07356C392.34686 131.07356 393.69 132.41672 393.69 134.07356Z" fill-rule="nonzero"/><path fill="#000000" fill-opacity="0.0" clip-path="url(#id_0)" d="M489.07 128.52301C489.07 130.17987 487.72687 131.52301 486.07 131.52301C484.41315 131.52301 483.07 130.17987 483.07 128.52301C483.07 126.86616 484.41315 125.52301 486.07 125.52301C487.72687 125.52301 489.07 126.86616 489.07 128.52301Z" fill-rule="nonzero"/><path fill="#000000" fill-opacity="0.0" clip-path="url(#id_0)" d="M584.45 121.09954C584.45 122.75639 583.1069 124.09954 581.45 124.09954C579.79315 124.09954 578.45 122.75639 578.45 121.09954C578.45 119.44268 579.79315 118.09954 581.45 118.09954C583.1069 118.09954 584.45 119.44268 584.45 121.09954Z" fill-rule="nonzero"/><path fill="#000000" fill-opacity="0.0" clip-path="url(#id_0)" d="M107.55 226.78186C107.55 228.4387 106.206856 229.78186 104.55 229.78186C102.89314 229.78186 101.55 228.4387 101.55 226.78186C101.55 225.125 102.89314 223.78186 104.55 223.78186C106.206856 223.78186 107.55 225.125 107.55 226.78186Z" fill-rule="nonzero"/><path fill="#000000" fill-opacity="0.0" clip-path="url(#id_0)" d="M202.93 206.0108C202.93 207.66766 201.58685 209.0108 199.93 209.0108C198.27315 209.0108 196.93 207.66766 196.93 206.0108C196.93 204.35396 198.27315 203.0108 199.93 203.0108C201.58685 203.0108 202.93 204.35396 202.93 206.0108Z" fill-rule="nonzero"/><path fill="#000000" fill-opacity="0.0" clip-path="url(#id_0)" d="M298.31 193.32027C298.31 194.97711 296.96686 196.32027 295.31 196.32027C293.65314 196.32027 292.31 194.97711 292.31 193.32027C292.31 191.6634 293.65314 190.32027 295.31 190.32027C296.96686 190.32027 298.31 191.6634 298.31 193.32027Z" fill-rule="nonzero"/><path fill="#000000" fill-opacity="0.0" clip-path="url(#id_0)" d="M393.69 190.12129C393.69 191.77814 392.34686 193.12129 390.69 193.12129C389.03314 193.12129 387.69 191.77814 387.69 190.12129C387.69 188.46443 389.03314 187.12129 390.69 187.12129C392.34686 187.12129 393.69 188.46443 393.69 190.12129Z" fill-rule="nonzero"/><path fill="#000000" fill-opacity="0.0" clip-path="url(#id_0)" d="M489.07 184.68326C489.07 186.3401 487.72687 187.68326 486.07 187.68326C484.41315 187.68326 483.07 186.3401 483.07 184.68326C483.07 183.0264 484.41315 181.68326 486.07 181.68326C487.72687 181.68326 489.07 183.0264 489.07 184.68326Z" fill-rule="nonzero"/><path fill="#000000" fill-opacity="0.0" clip-path="url(#id_0)" d="M584.45 177.99834C584.45 179.6552 583.1069 180.99834 581.45 180.99834C579.79315 180.99834 578.45 179.6552 578.45 177.99834C578.45 176.34148 579.79315 174.99834 581.45 174.99834C583.1069 174.99834 584.45 176.34148 584.45 177.99834Z" fill-rule="nonzero"/><path fill="#000000" d="M278.71875 348.45L278.71875 336.9969L280.28125 336.9969L286.29688 345.98126L286.29688 336.9969L287.75 336.9969L287.75 348.45L286.1875 348.45L280.17188 339.45L280.17188 348.45L278.71875 348.45ZM295.0 348.45L295.0 347.23126Q294.03125 348.6375 292.35938 348.6375Q291.625 348.6375 290.98438 348.35626Q290.35938 348.075 290.04688 347.65314Q289.73438 347.21564 289.60938 346.60626Q289.53125 346.1844 289.53125 345.29376L289.53125 340.15314L290.9375 340.15314L290.9375 344.7469Q290.9375 345.85626 291.01562 346.23126Q291.15625 346.79376 291.57812 347.10626Q292.01562 347.41876 292.64062 347.41876Q293.28125 347.41876 293.82812 347.10626Q294.39062 346.77814 294.60938 346.21564Q294.84375 345.65314 294.84375 344.59064L294.84375 340.15314L296.25 340.15314L296.25 348.45L295.0 348.45ZM297.5625 348.45L297.5625 340.15314L298.8125 340.15314L298.8125 341.3094Q299.20312 340.7 299.84375 340.34064Q300.5 339.96564 301.32812 339.96564Q302.25 339.96564 302.84375 340.35626Q303.4375 340.73126 303.67188 341.41876Q304.65625 339.96564 306.23438 339.96564Q307.46875 339.96564 308.125 340.65314Q308.79688 341.325 308.79688 342.7469L308.79688 348.45L307.40625 348.45L307.40625 343.21564Q307.40625 342.3719 307.26562 342.0125Q307.125 341.6375 306.76562 341.41876Q306.40625 341.1844 305.92188 341.1844Q305.04688 341.1844 304.46875 341.7625Q303.89062 342.34064 303.89062 343.6219L303.89062 348.45L302.48438 348.45L302.48438 343.0594Q302.48438 342.1219 302.14062 341.65314Q301.79688 341.1844 301.01562 341.1844Q300.42188 341.1844 299.92188 341.4969Q299.42188 341.8094 299.1875 342.41876Q298.96875 343.0125 298.96875 344.1375L298.96875 348.45L297.5625 348.45ZM311.85938 348.45L310.54688 348.45L310.54688 336.9969L311.95312 336.9969L311.95312 341.075Q312.84375 339.96564 314.23438 339.96564Q315.0 339.96564 315.67188 340.27814Q316.35938 340.575 316.79688 341.1375Q317.25 341.7 317.5 342.4969Q317.75 343.27814 317.75 344.16876Q317.75 346.3094 316.6875 347.48126Q315.64062 348.6375 314.15625 348.6375Q312.6875 348.6375 311.85938 347.40314L311.85938 348.45ZM311.84375 344.23126Q311.84375 345.73126 312.25 346.3875Q312.90625 347.48126 314.04688 347.48126Q314.96875 347.48126 315.64062 346.6844Q316.3125 345.8719 316.3125 344.29376Q316.3125 342.66876 315.65625 341.90314Q315.01562 341.1219 314.10938 341.1219Q313.1875 341.1219 312.51562 341.91876Q311.84375 342.71564 311.84375 344.23126ZM325.23438 345.77814L326.6875 345.95Q326.34375 347.23126 325.40625 347.9344Q324.48438 348.6375 323.04688 348.6375Q321.21875 348.6375 320.15625 347.5125Q319.09375 346.3875 319.09375 344.3719Q319.09375 342.27814 320.17188 341.1219Q321.25 339.96564 322.96875 339.96564Q324.625 339.96564 325.67188 341.10626Q326.73438 342.23126 326.73438 344.27814Q326.73438 344.40314 326.73438 344.65314L320.54688 344.65314Q320.625 346.02814 321.3125 346.7625Q322.01562 347.48126 323.04688 347.48126Q323.82812 347.48126 324.375 347.075Q324.92188 346.66876 325.23438 345.77814ZM320.625 343.4969L325.25 343.4969Q325.15625 342.45 324.71875 341.9344Q324.04688 341.1219 322.98438 341.1219Q322.01562 341.1219 321.34375 341.77814Q320.6875 342.41876 320.625 343.4969ZM328.54688 348.45L328.54688 340.15314L329.8125 340.15314L329.8125 341.40314Q330.29688 340.52814 330.70312 340.2469Q331.10938 339.96564 331.60938 339.96564Q332.3125 339.96564 333.04688 340.41876L332.5625 341.71564Q332.04688 341.41876 331.53125 341.41876Q331.07812 341.41876 330.70312 341.7Q330.34375 341.96564 330.1875 342.46564Q329.95312 343.21564 329.95312 344.10626L329.95312 348.45L328.54688 348.45ZM337.03125 344.29376Q337.03125 341.9969 338.3125 340.8875Q339.39062 339.96564 340.92188 339.96564Q342.64062 339.96564 343.71875 341.09064Q344.8125 342.2 344.8125 344.1844Q344.8125 345.77814 344.32812 346.7Q343.84375 347.6219 342.92188 348.1375Q342.01562 348.6375 340.92188 348.6375Q339.1875 348.6375 338.10938 347.52814Q337.03125 346.40314 337.03125 344.29376ZM338.48438 344.29376Q338.48438 345.8875 339.17188 346.6844Q339.875 347.48126 340.92188 347.48126Q341.96875 347.48126 342.65625 346.6844Q343.35938 345.8875 343.35938 344.2469Q343.35938 342.71564 342.65625 341.91876Q341.96875 341.1219 340.92188 341.1219Q339.875 341.1219 339.17188 341.91876Q338.48438 342.7 338.48438 344.29376ZM346.89062 348.45L346.89062 341.2469L345.65625 341.2469L345.65625 340.15314L346.89062 340.15314L346.89062 339.2625Q346.89062 338.4344 347.04688 338.02814Q347.25 337.48126 347.75 337.1375Q348.26562 336.79376 349.1875 336.79376Q349.78125 336.79376 350.5 336.9344L350.29688 338.16876Q349.85938 338.09064 349.46875 338.09064Q348.82812 338.09064 348.5625 338.3719Q348.29688 338.6375 348.29688 339.3875L348.29688 340.15314L349.90625 340.15314L349.90625 341.2469L348.29688 341.2469L348.29688 348.45L346.89062 348.45ZM354.0 345.96564L355.39062 345.7469Q355.5 346.59064 356.03125 347.04376Q356.57812 347.48126 357.53125 347.48126Q358.5 347.48126 358.96875 347.09064Q359.4375 346.6844 359.4375 346.15314Q359.4375 345.6844 359.03125 345.40314Q358.73438 345.21564 357.59375 344.9344Q356.04688 344.54376 355.4375 344.2625Q354.84375 343.96564 354.53125 343.46564Q354.23438 342.96564 354.23438 342.35626Q354.23438 341.79376 354.48438 341.325Q354.73438 340.85626 355.17188 340.54376Q355.5 340.29376 356.0625 340.1375Q356.64062 339.96564 357.28125 339.96564Q358.26562 339.96564 359.0 340.2469Q359.73438 340.52814 360.07812 341.0125Q360.4375 341.48126 360.57812 342.29376L359.20312 342.48126Q359.10938 341.84064 358.65625 341.48126Q358.20312 341.1219 357.39062 341.1219Q356.42188 341.1219 356.0 341.45Q355.59375 341.7625 355.59375 342.1844Q355.59375 342.46564 355.76562 342.6844Q355.9375 342.90314 356.29688 343.0594Q356.51562 343.1375 357.54688 343.41876Q359.03125 343.8094 359.625 344.075Q360.21875 344.325 360.54688 344.8094Q360.89062 345.29376 360.89062 346.0125Q360.89062 346.71564 360.46875 347.34064Q360.0625 347.95 359.28125 348.29376Q358.51562 348.6375 357.54688 348.6375Q355.92188 348.6375 355.07812 347.96564Q354.23438 347.29376 354.0 345.96564ZM368.23438 345.77814L369.6875 345.95Q369.34375 347.23126 368.40625 347.9344Q367.48438 348.6375 366.04688 348.6375Q364.21875 348.6375 363.15625 347.5125Q362.09375 346.3875 362.09375 344.3719Q362.09375 342.27814 363.17188 341.1219Q364.25 339.96564 365.96875 339.96564Q367.625 339.96564 368.67188 341.10626Q369.73438 342.23126 369.73438 344.27814Q369.73438 344.40314 369.73438 344.65314L363.54688 344.65314Q363.625 346.02814 364.3125 346.7625Q365.01562 347.48126 366.04688 347.48126Q366.82812 347.48126 367.375 347.075Q367.92188 346.66876 368.23438 345.77814ZM363.625 343.4969L368.25 343.4969Q368.15625 342.45 367.71875 341.9344Q367.04688 341.1219 365.98438 341.1219Q365.01562 341.1219 364.34375 341.77814Q363.6875 342.41876 363.625 343.4969ZM371.5625 348.45L371.5625 340.15314L372.82812 340.15314L372.82812 341.325Q373.73438 339.96564 375.46875 339.96564Q376.21875 339.96564 376.84375 340.23126Q377.46875 340.4969 377.78125 340.9344Q378.09375 341.3719 378.21875 341.98126Q378.29688 342.3719 378.29688 343.34064L378.29688 348.45L376.89062 348.45L376.89062 343.40314Q376.89062 342.54376 376.71875 342.1219Q376.5625 341.6844 376.14062 341.4344Q375.73438 341.1844 375.17188 341.1844Q374.26562 341.1844 373.60938 341.7625Q372.96875 342.325 372.96875 343.91876L372.96875 348.45L371.5625 348.45ZM379.0 345.96564L380.39062 345.7469Q380.5 346.59064 381.03125 347.04376Q381.57812 347.48126 382.53125 347.48126Q383.5 347.48126 383.96875 347.09064Q384.4375 346.6844 384.4375 346.15314Q384.4375 345.6844 384.03125 345.40314Q383.73438 345.21564 382.59375 344.9344Q381.04688 344.54376 380.4375 344.2625Q379.84375 343.96564 379.53125 343.46564Q379.23438 342.96564 379.23438 342.35626Q379.23438 341.79376 379.48438 341.325Q379.73438 340.85626 380.17188 340.54376Q380.5 340.29376 381.0625 340.1375Q381.64062 339.96564 382.28125 339.96564Q383.26562 339.96564 384.0 340.2469Q384.73438 340.52814 385.07812 341.0125Q385.4375 341.48126 385.57812 342.29376L384.20312 342.48126Q384.10938 341.84064 383.65625 341.48126Q383.20312 341.1219 382.39062 341.1219Q381.42188 341.1219 381.0 341.45Q380.59375 341.7625 380.59375 342.1844Q380.59375 342.46564 380.76562 342.6844Q380.9375 342.90314 381.29688 343.0594Q381.51562 343.1375 382.54688 343.41876Q384.03125 343.8094 384.625 344.075Q385.21875 344.325 385.54688 344.8094Q385.89062 345.29376 385.89062 346.0125Q385.89062 346.71564 385.46875 347.34064Q385.0625 347.95 384.28125 348.29376Q383.51562 348.6375 382.54688 348.6375Q380.92188 348.6375 380.07812 347.96564Q379.23438 347.29376 379.0 345.96564ZM387.03125 344.29376Q387.03125 341.9969 388.3125 340.8875Q389.39062 339.96564 390.92188 339.96564Q392.64062 339.96564 393.71875 341.09064Q394.8125 342.2 394.8125 344.1844Q394.8125 345.77814 394.32812 346.7Q393.84375 347.6219 392.92188 348.1375Q392.01562 348.6375 390.92188 348.6375Q389.1875 348.6375 388.10938 347.52814Q387.03125 346.40314 387.03125 344.29376ZM388.48438 344.29376Q388.48438 345.8875 389.17188 346.6844Q389.875 347.48126 390.92188 347.48126Q391.96875 347.48126 392.65625 346.6844Q393.35938 345.8875 393.35938 344.2469Q393.35938 342.71564 392.65625 341.91876Q391.96875 341.1219 390.92188 341.1219Q389.875 341.1219 389.17188 341.91876Q388.48438 342.7 388.48438 344.29376ZM396.54688 348.45L396.54688 340.15314L397.8125 340.15314L397.8125 341.40314Q398.29688 340.52814 398.70312 340.2469Q399.10938 339.96564 399.60938 339.96564Q400.3125 339.96564 401.04688 340.41876L400.5625 341.71564Q400.04688 341.41876 399.53125 341.41876Q399.07812 341.41876 398.70312 341.7Q398.34375 341.96564 398.1875 342.46564Q397.95312 343.21564 397.95312 344.10626L397.95312 348.45L396.54688 348.45ZM401.0 345.96564L402.39062 345.7469Q402.5 346.59064 403.03125 347.04376Q403.57812 347.48126 404.53125 347.48126Q405.5 347.48126 405.96875 347.09064Q406.4375 346.6844 406.4375 346.15314Q406.4375 345.6844 406.03125 345.40314Q405.73438 345.21564 404.59375 344.9344Q403.04688 344.54376 402.4375 344.2625Q401.84375 343.96564 401.53125 343.46564Q401.23438 342.96564 401.23438 342.35626Q401.23438 341.79376 401.48438 341.325Q401.73438 340.85626 402.17188 340.54376Q402.5 340.29376 403.0625 340.1375Q403.64062 339.96564 404.28125 339.96564Q405.26562 339.96564 406.0 340.2469Q406.73438 340.52814 407.07812 341.0125Q407.4375 341.48126 407.57812 342.29376L406.20312 342.48126Q406.10938 341.84064 405.65625 341.48126Q405.20312 341.1219 404.39062 341.1219Q403.42188 341.1219 403.0 341.45Q402.59375 341.7625 402.59375 342.1844Q402.59375 342.46564 402.76562 342.6844Q402.9375 342.90314 403.29688 343.0594Q403.51562 343.1375 404.54688 343.41876Q406.03125 343.8094 406.625 344.075Q407.21875 344.325 407.54688 344.8094Q407.89062 345.29376 407.89062 346.0125Q407.89062 346.71564 407.46875 347.34064Q407.0625 347.95 406.28125 348.29376Q405.51562 348.6375 404.54688 348.6375Q402.92188 348.6375 402.07812 347.96564Q401.23438 347.29376 401.0 345.96564Z" fill-rule="nonzero"/><path fill="#000000" d="M33.55001 259.67917L22.096888 259.67917L22.096888 257.39792L30.206263 254.67917Q31.331263 254.30417 31.893763 254.1323Q31.268763 253.9448 30.065638 253.52292L22.096888 250.78854L22.096888 248.74167L33.55001 248.74167L33.55001 250.21042L23.956263 250.21042L33.55001 253.53854L33.55001 254.89792L23.800013 258.21042L33.55001 258.21042L33.55001 259.67917ZM23.706263 246.80417L22.096888 246.80417L22.096888 245.39792L23.706263 245.39792L23.706263 246.80417ZM33.55001 246.80417L25.253138 246.80417L25.253138 245.39792L33.55001 245.39792L33.55001 246.80417ZM30.503138 237.39792L30.690638 236.0073Q32.11251 236.24167 32.92501 237.17917Q33.73751 238.10104 33.73751 239.46042Q33.73751 241.16354 32.628136 242.21042Q31.503138 243.24167 29.425013 243.24167Q28.081263 243.24167 27.081263 242.80417Q26.065638 242.35104 25.565638 241.4448Q25.065638 240.52292 25.065638 239.46042Q25.065638 238.10104 25.753138 237.24167Q26.425013 236.3823 27.690638 236.14792L27.893763 237.5073Q27.065638 237.71042 26.643763 238.21042Q26.221888 238.6948 26.221888 239.39792Q26.221888 240.46042 26.987513 241.1323Q27.737513 241.78854 29.393763 241.78854Q31.065638 241.78854 31.831263 241.14792Q32.58126 240.5073 32.58126 239.47604Q32.58126 238.64792 32.08126 238.10104Q31.565638 237.53854 30.503138 237.39792ZM33.55001 234.8198L25.253138 234.8198L25.253138 233.55417L26.503138 233.55417Q25.628138 233.0698 25.346888 232.66354Q25.065638 232.2573 25.065638 231.7573Q25.065638 231.05417 25.518763 230.3198L26.815638 230.80417Q26.518763 231.3198 26.518763 231.83542Q26.518763 232.28854 26.800013 232.66354Q27.065638 233.02292 27.565638 233.17917Q28.315638 233.41354 29.206263 233.41354L33.55001 233.41354L33.55001 234.8198ZM29.393763 230.33542Q27.096888 230.33542 25.987513 229.05417Q25.065638 227.97604 25.065638 226.4448Q25.065638 224.72604 26.190638 223.64792Q27.300013 222.55417 29.284388 222.55417Q30.878138 222.55417 31.800013 223.03854Q32.721886 223.52292 33.23751 224.4448Q33.73751 225.35104 33.73751 226.4448Q33.73751 228.17917 32.628136 229.2573Q31.503138 230.33542 29.393763 230.33542ZM29.393763 228.8823Q30.987513 228.8823 31.784388 228.1948Q32.58126 227.49167 32.58126 226.4448Q32.58126 225.39792 31.784388 224.71042Q30.987513 224.0073 29.346888 224.0073Q27.815638 224.0073 27.018763 224.71042Q26.221888 225.39792 26.221888 226.4448Q26.221888 227.49167 27.018763 228.1948Q27.800013 228.8823 29.393763 228.8823ZM31.065638 221.36667L30.846888 219.97604Q31.690638 219.86667 32.14376 219.33542Q32.58126 218.78854 32.58126 217.83542Q32.58126 216.86667 32.190636 216.39792Q31.784388 215.92917 31.253138 215.92917Q30.784388 215.92917 30.503138 216.33542Q30.315638 216.6323 30.034388 217.77292Q29.643763 219.3198 29.362513 219.92917Q29.065638 220.52292 28.565638 220.83542Q28.065638 221.1323 27.456263 221.1323Q26.893763 221.1323 26.425013 220.8823Q25.956263 220.6323 25.643763 220.1948Q25.393763 219.86667 25.237513 219.30417Q25.065638 218.72604 25.065638 218.08542Q25.065638 217.10104 25.346888 216.36667Q25.628138 215.6323 26.112513 215.28854Q26.581263 214.92917 27.393763 214.78854L27.581263 216.16354Q26.940638 216.2573 26.581263 216.71042Q26.221888 217.16354 26.221888 217.97604Q26.221888 218.9448 26.550013 219.36667Q26.862513 219.77292 27.284388 219.77292Q27.565638 219.77292 27.784388 219.60104Q28.003138 219.42917 28.159388 219.0698Q28.237513 218.85104 28.518763 217.8198Q28.909388 216.33542 29.175013 215.74167Q29.425013 215.14792 29.909388 214.8198Q30.393763 214.47604 31.112513 214.47604Q31.815638 214.47604 32.440636 214.89792Q33.05001 215.30417 33.39376 216.08542Q33.73751 216.85104 33.73751 217.8198Q33.73751 219.4448 33.065636 220.28854Q32.39376 221.1323 31.065638 221.36667ZM30.878138 207.1323L31.050013 205.67917Q32.33126 206.02292 33.034386 206.96042Q33.73751 207.8823 33.73751 209.3198Q33.73751 211.14792 32.61251 212.21042Q31.487513 213.27292 29.471888 213.27292Q27.378138 213.27292 26.221888 212.1948Q25.065638 211.11667 25.065638 209.39792Q25.065638 207.74167 26.206263 206.6948Q27.331263 205.6323 29.378138 205.6323Q29.503138 205.6323 29.753138 205.6323L29.753138 211.8198Q31.128138 211.74167 31.862513 211.05417Q32.58126 210.35104 32.58126 209.3198Q32.58126 208.53854 32.17501 207.99167Q31.768763 207.4448 30.878138 207.1323ZM28.596888 211.74167L28.596888 207.11667Q27.550013 207.21042 27.034388 207.64792Q26.221888 208.3198 26.221888 209.3823Q26.221888 210.35104 26.878138 211.02292Q27.518763 211.67917 28.596888 211.74167ZM30.503138 198.39792L30.690638 197.0073Q32.11251 197.24167 32.92501 198.17917Q33.73751 199.10104 33.73751 200.46042Q33.73751 202.16354 32.628136 203.21042Q31.503138 204.24167 29.425013 204.24167Q28.081263 204.24167 27.081263 203.80417Q26.065638 203.35104 25.565638 202.4448Q25.065638 201.52292 25.065638 200.46042Q25.065638 199.10104 25.753138 198.24167Q26.425013 197.3823 27.690638 197.14792L27.893763 198.5073Q27.065638 198.71042 26.643763 199.21042Q26.221888 199.6948 26.221888 200.39792Q26.221888 201.46042 26.987513 202.1323Q27.737513 202.78854 29.393763 202.78854Q31.065638 202.78854 31.831263 202.14792Q32.58126 201.5073 32.58126 200.47604Q32.58126 199.64792 32.08126 199.10104Q31.565638 198.53854 30.503138 198.39792ZM29.393763 196.33542Q27.096888 196.33542 25.987513 195.05417Q25.065638 193.97604 25.065638 192.4448Q25.065638 190.72604 26.190638 189.64792Q27.300013 188.55417 29.284388 188.55417Q30.878138 188.55417 31.800013 189.03854Q32.721886 189.52292 33.23751 190.4448Q33.73751 191.35104 33.73751 192.4448Q33.73751 194.17917 32.628136 195.2573Q31.503138 196.33542 29.393763 196.33542ZM29.393763 194.8823Q30.987513 194.8823 31.784388 194.1948Q32.58126 193.49167 32.58126 192.4448Q32.58126 191.39792 31.784388 190.71042Q30.987513 190.0073 29.346888 190.0073Q27.815638 190.0073 27.018763 190.71042Q26.221888 191.39792 26.221888 192.4448Q26.221888 193.49167 27.018763 194.1948Q27.800013 194.8823 29.393763 194.8823ZM33.55001 186.80417L25.253138 186.80417L25.253138 185.53854L26.425013 185.53854Q25.065638 184.6323 25.065638 182.89792Q25.065638 182.14792 25.331263 181.52292Q25.596888 180.89792 26.034388 180.58542Q26.471888 180.27292 27.081263 180.14792Q27.471888 180.0698 28.440638 180.0698L33.55001 180.0698L33.55001 181.47604L28.503138 181.47604Q27.643763 181.47604 27.221888 181.64792Q26.784388 181.80417 26.534388 182.22604Q26.284388 182.6323 26.284388 183.1948Q26.284388 184.10104 26.862513 184.7573Q27.425013 185.39792 29.018763 185.39792L33.55001 185.39792L33.55001 186.80417ZM33.55001 173.42917L32.503136 173.42917Q33.73751 174.21042 33.73751 175.74167Q33.73751 176.74167 33.190636 177.5698Q32.64376 178.39792 31.659388 178.86667Q30.675013 179.3198 29.409388 179.3198Q28.159388 179.3198 27.159388 178.91354Q26.143763 178.49167 25.612513 177.66354Q25.065638 176.83542 25.065638 175.80417Q25.065638 175.05417 25.378138 174.47604Q25.690638 173.8823 26.206263 173.52292L22.096888 173.52292L22.096888 172.11667L33.55001 172.11667L33.55001 173.42917ZM29.409388 177.86667Q31.003138 177.86667 31.800013 177.1948Q32.58126 176.52292 32.58126 175.61667Q32.58126 174.6948 31.831263 174.05417Q31.065638 173.39792 29.518763 173.39792Q27.815638 173.39792 27.018763 174.05417Q26.221888 174.71042 26.221888 175.67917Q26.221888 176.61667 26.987513 177.24167Q27.753138 177.86667 29.409388 177.86667ZM31.065638 170.36667L30.846888 168.97604Q31.690638 168.86667 32.14376 168.33542Q32.58126 167.78854 32.58126 166.83542Q32.58126 165.86667 32.190636 165.39792Q31.784388 164.92917 31.253138 164.92917Q30.784388 164.92917 30.503138 165.33542Q30.315638 165.6323 30.034388 166.77292Q29.643763 168.3198 29.362513 168.92917Q29.065638 169.52292 28.565638 169.83542Q28.065638 170.1323 27.456263 170.1323Q26.893763 170.1323 26.425013 169.8823Q25.956263 169.6323 25.643763 169.1948Q25.393763 168.86667 25.237513 168.30417Q25.065638 167.72604 25.065638 167.08542Q25.065638 166.10104 25.346888 165.36667Q25.628138 164.6323 26.112513 164.28854Q26.581263 163.92917 27.393763 163.78854L27.581263 165.16354Q26.940638 165.2573 26.581263 165.71042Q26.221888 166.16354 26.221888 166.97604Q26.221888 167.9448 26.550013 168.36667Q26.862513 168.77292 27.284388 168.77292Q27.565638 168.77292 27.784388 168.60104Q28.003138 168.42917 28.159388 168.0698Q28.237513 167.85104 28.518763 166.8198Q28.909388 165.33542 29.175013 164.74167Q29.425013 164.14792 29.909388 163.8198Q30.393763 163.47604 31.112513 163.47604Q31.815638 163.47604 32.440636 163.89792Q33.05001 164.30417 33.39376 165.08542Q33.73751 165.85104 33.73751 166.8198Q33.73751 168.4448 33.065636 169.28854Q32.39376 170.1323 31.065638 170.36667ZM36.92501 155.11667Q35.45626 156.28854 33.48751 157.10104Q31.503138 157.89792 29.393763 157.89792Q27.534388 157.89792 25.831263 157.28854Q23.862513 156.58542 21.893763 155.11667L21.893763 154.11667Q23.518763 155.05417 24.221888 155.36667Q25.300013 155.83542 26.471888 156.11667Q27.925013 156.4448 29.409388 156.4448Q33.159386 156.4448 36.92501 154.11667L36.92501 155.11667ZM25.253138 145.91354L33.55001 145.91354L33.55001 147.16354L32.565636 147.16354Q33.190636 147.5698 33.42501 147.97604Q33.753136 148.52292 33.753136 149.24167Q33.753136 149.89792 33.48751 150.39792Q33.284386 150.77292 32.70626 151.22604L36.73751 151.22604L36.73751 152.61667L25.253138 152.61667L25.253138 151.22604L28.768763 151.22604Q30.675013 151.22604 31.253138 151.02292Q31.815638 150.8198 32.14376 150.36667Q32.471886 149.89792 32.471886 149.30417Q32.471886 148.67917 32.128136 148.1948Q31.784388 147.6948 31.237513 147.49167Q30.690638 147.28854 28.784388 147.28854L25.253138 147.28854L25.253138 145.91354ZM31.065638 144.36667L30.846888 142.97604Q31.690638 142.86667 32.14376 142.33542Q32.58126 141.78854 32.58126 140.83542Q32.58126 139.86667 32.190636 139.39792Q31.784388 138.92917 31.253138 138.92917Q30.784388 138.92917 30.503138 139.33542Q30.315638 139.6323 30.034388 140.77292Q29.643763 142.3198 29.362513 142.92917Q29.065638 143.52292 28.565638 143.83542Q28.065638 144.1323 27.456263 144.1323Q26.893763 144.1323 26.425013 143.8823Q25.956263 143.6323 25.643763 143.1948Q25.393763 142.86667 25.237513 142.30417Q25.065638 141.72604 25.065638 141.08542Q25.065638 140.10104 25.346888 139.36667Q25.628138 138.6323 26.112513 138.28854Q26.581263 137.92917 27.393763 137.78854L27.581263 139.16354Q26.940638 139.2573 26.581263 139.71042Q26.221888 140.16354 26.221888 140.97604Q26.221888 141.9448 26.550013 142.36667Q26.862513 142.77292 27.284388 142.77292Q27.565638 142.77292 27.784388 142.60104Q28.003138 142.42917 28.159388 142.0698Q28.237513 141.85104 28.518763 140.8198Q28.909388 139.33542 29.175013 138.74167Q29.425013 138.14792 29.909388 137.8198Q30.393763 137.47604 31.112513 137.47604Q31.815638 137.47604 32.440636 137.89792Q33.05001 138.30417 33.39376 139.08542Q33.73751 139.85104 33.73751 140.8198Q33.73751 142.4448 33.065636 143.28854Q32.39376 144.1323 31.065638 144.36667ZM36.92501 134.8823L36.92501 135.89792Q33.159386 133.55417 29.409388 133.55417Q27.940638 133.55417 26.487513 133.89792Q25.315638 134.16354 24.237513 134.6323Q23.534388 134.9448 21.893763 135.89792L21.893763 134.8823Q23.862513 133.41354 25.831263 132.71042Q27.534388 132.11667 29.393763 132.11667Q31.503138 132.11667 33.48751 132.92917Q35.45626 133.72604 36.92501 134.8823Z" fill-rule="nonzero"/><path fill="#000000" d="M70.12813 286.5125Q70.12813 284.73126 70.4875 283.65314Q70.8625 282.5594 71.58125 281.98126Q72.3 281.3875 73.39375 281.3875Q74.20625 281.3875 74.81563 281.71564Q75.425 282.04376 75.81563 282.65314Q76.22188 283.2625 76.44063 284.1375Q76.65938 285.0125 76.65938 286.5125Q76.65938 288.27814 76.3 289.35626Q75.94063 290.4344 75.22188 291.02814Q74.50313 291.6219 73.39375 291.6219Q71.95625 291.6219 71.12813 290.575Q70.12813 289.325 70.12813 286.5125ZM71.39375 286.5125Q71.39375 288.98126 71.97188 289.79376Q72.55 290.60626 73.39375 290.60626Q74.25313 290.60626 74.83125 289.79376Q75.40938 288.96564 75.40938 286.5125Q75.40938 284.02814 74.83125 283.21564Q74.25313 282.40314 73.37813 282.40314Q72.53438 282.40314 72.03438 283.1219Q71.39375 284.04376 71.39375 286.5125ZM78.8 291.45L78.8 290.04376L80.19063 290.04376L80.19063 291.45Q80.19063 292.21564 79.90938 292.6844Q79.64375 293.16876 79.05 293.4344L78.70625 292.90314Q79.09688 292.73126 79.28438 292.40314Q79.47188 292.075 79.4875 291.45L78.8 291.45ZM82.12813 286.5125Q82.12813 284.73126 82.4875 283.65314Q82.8625 282.5594 83.58125 281.98126Q84.3 281.3875 85.39375 281.3875Q86.20625 281.3875 86.81563 281.71564Q87.425 282.04376 87.81563 282.65314Q88.22188 283.2625 88.44063 284.1375Q88.65938 285.0125 88.65938 286.5125Q88.65938 288.27814 88.3 289.35626Q87.94063 290.4344 87.22188 291.02814Q86.50313 291.6219 85.39375 291.6219Q83.95625 291.6219 83.12813 290.575Q82.12813 289.325 82.12813 286.5125ZM83.39375 286.5125Q83.39375 288.98126 83.97188 289.79376Q84.55 290.60626 85.39375 290.60626Q86.25313 290.60626 86.83125 289.79376Q87.40938 288.96564 87.40938 286.5125Q87.40938 284.02814 86.83125 283.21564Q86.25313 282.40314 85.37813 282.40314Q84.53438 282.40314 84.03438 283.1219Q83.39375 284.04376 83.39375 286.5125ZM90.12813 286.5125Q90.12813 284.73126 90.4875 283.65314Q90.8625 282.5594 91.58125 281.98126Q92.3 281.3875 93.39375 281.3875Q94.20625 281.3875 94.81563 281.71564Q95.425 282.04376 95.81563 282.65314Q96.22188 283.2625 96.44063 284.1375Q96.65938 285.0125 96.65938 286.5125Q96.65938 288.27814 96.3 289.35626Q95.94063 290.4344 95.22188 291.02814Q94.50313 291.6219 93.39375 291.6219Q91.95625 291.6219 91.12813 290.575Q90.12813 289.325 90.12813 286.5125ZM91.39375 286.5125Q91.39375 288.98126 91.97188 289.79376Q92.55 290.60626 93.39375 290.60626Q94.25313 290.60626 94.83125 289.79376Q95.40938 288.96564 95.40938 286.5125Q95.40938 284.02814 94.83125 283.21564Q94.25313 282.40314 93.37813 282.40314Q92.53438 282.40314 92.03438 283.1219Q91.39375 284.04376 91.39375 286.5125Z" fill-rule="nonzero"/><path fill="#000000" d="M66.76875 242.65834L65.53438 242.65834L65.53438 234.81459Q65.09688 235.23647 64.3625 235.67397Q63.64375 236.09584 63.08125 236.29897L63.08125 235.11147Q64.1125 234.62709 64.87813 233.93959Q65.65938 233.25209 65.97188 232.59584L66.76875 232.59584L66.76875 242.65834ZM70.12813 237.72084Q70.12813 235.93959 70.4875 234.86147Q70.8625 233.76772 71.58125 233.18959Q72.3 232.59584 73.39375 232.59584Q74.20625 232.59584 74.81563 232.92397Q75.425 233.25209 75.81563 233.86147Q76.22188 234.47084 76.44063 235.34584Q76.65938 236.22084 76.65938 237.72084Q76.65938 239.48647 76.3 240.56459Q75.94063 241.64272 75.22188 242.23647Q74.50313 242.83022 73.39375 242.83022Q71.95625 242.83022 71.12813 241.78334Q70.12813 240.53334 70.12813 237.72084ZM71.39375 237.72084Q71.39375 240.18959 71.97188 241.00209Q72.55 241.81459 73.39375 241.81459Q74.25313 241.81459 74.83125 241.00209Q75.40938 240.17397 75.40938 237.72084Q75.40938 235.23647 74.83125 234.42397Q74.25313 233.61147 73.37813 233.61147Q72.53438 233.61147 72.03438 234.33022Q71.39375 235.25209 71.39375 237.72084ZM78.8 242.65834L78.8 241.25209L80.19063 241.25209L80.19063 242.65834Q80.19063 243.42397 79.90938 243.89272Q79.64375 244.37709 79.05 244.64272L78.70625 244.11147Q79.09688 243.93959 79.28438 243.61147Q79.47188 243.28334 79.4875 242.65834L78.8 242.65834ZM82.12813 237.72084Q82.12813 235.93959 82.4875 234.86147Q82.8625 233.76772 83.58125 233.18959Q84.3 232.59584 85.39375 232.59584Q86.20625 232.59584 86.81563 232.92397Q87.425 233.25209 87.81563 233.86147Q88.22188 234.47084 88.44063 235.34584Q88.65938 236.22084 88.65938 237.72084Q88.65938 239.48647 88.3 240.56459Q87.94063 241.64272 87.22188 242.23647Q86.50313 242.83022 85.39375 242.83022Q83.95625 242.83022 83.12813 241.78334Q82.12813 240.53334 82.12813 237.72084ZM83.39375 237.72084Q83.39375 240.18959 83.97188 241.00209Q84.55 241.81459 85.39375 241.81459Q86.25313 241.81459 86.83125 241.00209Q87.40938 240.17397 87.40938 237.72084Q87.40938 235.23647 86.83125 234.42397Q86.25313 233.61147 85.37813 233.61147Q84.53438 233.61147 84.03438 234.33022Q83.39375 235.25209 83.39375 237.72084ZM90.12813 237.72084Q90.12813 235.93959 90.4875 234.86147Q90.8625 233.76772 91.58125 233.18959Q92.3 232.59584 93.39375 232.59584Q94.20625 232.59584 94.81563 232.92397Q95.425 233.25209 95.81563 233.86147Q96.22188 234.47084 96.44063 235.34584Q96.65938 236.22084 96.65938 237.72084Q96.65938 239.48647 96.3 240.56459Q95.94063 241.64272 95.22188 242.23647Q94.50313 242.83022 93.39375 242.83022Q91.95625 242.83022 91.12813 241.78334Q90.12813 240.53334 90.12813 237.72084ZM91.39375 237.72084Q91.39375 240.18959 91.97188 241.00209Q92.55 241.81459 93.39375 241.81459Q94.25313 241.81459 94.83125 241.00209Q95.40938 240.17397 95.40938 237.72084Q95.40938 235.23647 94.83125 234.42397Q94.25313 233.61147 93.37813 233.61147Q92.53438 233.61147 92.03438 234.33022Q91.39375 235.25209 91.39375 237.72084Z" fill-rule="nonzero"/><path fill="#000000" d="M68.59688 192.67917L68.59688 193.86667L61.971874 193.86667Q61.95625 193.42917 62.1125 193.0073Q62.378124 192.33542 62.925 191.67917Q63.4875 191.02292 64.53438 190.16354Q66.175 188.8198 66.7375 188.03854Q67.31563 187.2573 67.31563 186.55417Q67.31563 185.8198 66.78438 185.3198Q66.26875 184.8198 65.44063 184.8198Q64.55 184.8198 64.00313 185.35104Q63.471874 185.8823 63.471874 186.83542L62.20625 186.6948Q62.33125 185.28854 63.175 184.55417Q64.03438 183.80417 65.45625 183.80417Q66.90938 183.80417 67.7375 184.60104Q68.58125 185.39792 68.58125 186.58542Q68.58125 187.1948 68.33125 187.77292Q68.09688 188.35104 67.51875 188.99167Q66.95625 189.6323 65.62813 190.7573Q64.51875 191.67917 64.20625 192.02292Q63.89375 192.35104 63.690624 192.67917L68.59688 192.67917ZM70.12813 188.92917Q70.12813 187.14792 70.4875 186.0698Q70.8625 184.97604 71.58125 184.39792Q72.3 183.80417 73.39375 183.80417Q74.20625 183.80417 74.81563 184.1323Q75.425 184.46042 75.81563 185.0698Q76.22188 185.67917 76.44063 186.55417Q76.65938 187.42917 76.65938 188.92917Q76.65938 190.6948 76.3 191.77292Q75.94063 192.85104 75.22188 193.4448Q74.50313 194.03854 73.39375 194.03854Q71.95625 194.03854 71.12813 192.99167Q70.12813 191.74167 70.12813 188.92917ZM71.39375 188.92917Q71.39375 191.39792 71.97188 192.21042Q72.55 193.02292 73.39375 193.02292Q74.25313 193.02292 74.83125 192.21042Q75.40938 191.3823 75.40938 188.92917Q75.40938 186.4448 74.83125 185.6323Q74.25313 184.8198 73.37813 184.8198Q72.53438 184.8198 72.03438 185.53854Q71.39375 186.46042 71.39375 188.92917ZM78.8 193.86667L78.8 192.46042L80.19063 192.46042L80.19063 193.86667Q80.19063 194.6323 79.90938 195.10104Q79.64375 195.58542 79.05 195.85104L78.70625 195.3198Q79.09688 195.14792 79.28438 194.8198Q79.47188 194.49167 79.4875 193.86667L78.8 193.86667ZM82.12813 188.92917Q82.12813 187.14792 82.4875 186.0698Q82.8625 184.97604 83.58125 184.39792Q84.3 183.80417 85.39375 183.80417Q86.20625 183.80417 86.81563 184.1323Q87.425 184.46042 87.81563 185.0698Q88.22188 185.67917 88.44063 186.55417Q88.65938 187.42917 88.65938 188.92917Q88.65938 190.6948 88.3 191.77292Q87.94063 192.85104 87.22188 193.4448Q86.50313 194.03854 85.39375 194.03854Q83.95625 194.03854 83.12813 192.99167Q82.12813 191.74167 82.12813 188.92917ZM83.39375 188.92917Q83.39375 191.39792 83.97188 192.21042Q84.55 193.02292 85.39375 193.02292Q86.25313 193.02292 86.83125 192.21042Q87.40938 191.3823 87.40938 188.92917Q87.40938 186.4448 86.83125 185.6323Q86.25313 184.8198 85.37813 184.8198Q84.53438 184.8198 84.03438 185.53854Q83.39375 186.46042 83.39375 188.92917ZM90.12813 188.92917Q90.12813 187.14792 90.4875 186.0698Q90.8625 184.97604 91.58125 184.39792Q92.3 183.80417 93.39375 183.80417Q94.20625 183.80417 94.81563 184.1323Q95.425 184.46042 95.81563 185.0698Q96.22188 185.67917 96.44063 186.55417Q96.65938 187.42917 96.65938 188.92917Q96.65938 190.6948 96.3 191.77292Q95.94063 192.85104 95.22188 193.4448Q94.50313 194.03854 93.39375 194.03854Q91.95625 194.03854 91.12813 192.99167Q90.12813 191.74167 90.12813 188.92917ZM91.39375 188.92917Q91.39375 191.39792 91.97188 192.21042Q92.55 193.02292 93.39375 193.02292Q94.25313 193.02292 94.83125 192.21042Q95.40938 191.3823 95.40938 188.92917Q95.40938 186.4448 94.83125 185.6323Q94.25313 184.8198 93.37813 184.8198Q92.53438 184.8198 92.03438 185.53854Q91.39375 186.46042 91.39375 188.92917Z" fill-rule="nonzero"/><path fill="#000000" d="M62.14375 142.43437L63.3625 142.2625Q63.58125 143.30937 64.08125 143.77812Q64.59688 144.23125 65.33125 144.23125Q66.20625 144.23125 66.8 143.6375Q67.39375 143.02812 67.39375 142.1375Q67.39375 141.29375 66.83125 140.74687Q66.28438 140.2 65.44063 140.2Q65.08125 140.2 64.56563 140.325L64.70625 139.24687Q64.83125 139.2625 64.89375 139.2625Q65.69063 139.2625 66.31563 138.85625Q66.94063 138.45 66.94063 137.59062Q66.94063 136.91875 66.4875 136.48125Q66.03438 136.02812 65.3 136.02812Q64.58125 136.02812 64.09688 136.48125Q63.628124 136.91875 63.4875 137.825L62.26875 137.60625Q62.4875 136.37187 63.284374 135.7Q64.08125 135.0125 65.26875 135.0125Q66.09688 135.0125 66.78438 135.37187Q67.47188 135.71562 67.83125 136.325Q68.20625 136.93437 68.20625 137.62187Q68.20625 138.2625 67.8625 138.79375Q67.51875 139.325 66.83125 139.65312Q67.72188 139.85625 68.20625 140.49687Q68.70625 141.1375 68.70625 142.12187Q68.70625 143.43437 67.7375 144.34062Q66.78438 145.24687 65.33125 145.24687Q64.00313 145.24687 63.128124 144.46562Q62.26875 143.68437 62.14375 142.43437ZM70.12813 140.1375Q70.12813 138.35625 70.4875 137.27812Q70.8625 136.18437 71.58125 135.60625Q72.3 135.0125 73.39375 135.0125Q74.20625 135.0125 74.81563 135.34062Q75.425 135.66875 75.81563 136.27812Q76.22188 136.8875 76.44063 137.7625Q76.65938 138.6375 76.65938 140.1375Q76.65938 141.90312 76.3 142.98125Q75.94063 144.05937 75.22188 144.65312Q74.50313 145.24687 73.39375 145.24687Q71.95625 145.24687 71.12813 144.2Q70.12813 142.95 70.12813 140.1375ZM71.39375 140.1375Q71.39375 142.60625 71.97188 143.41875Q72.55 144.23125 73.39375 144.23125Q74.25313 144.23125 74.83125 143.41875Q75.40938 142.59062 75.40938 140.1375Q75.40938 137.65312 74.83125 136.84062Q74.25313 136.02812 73.37813 136.02812Q72.53438 136.02812 72.03438 136.74687Q71.39375 137.66875 71.39375 140.1375ZM78.8 145.075L78.8 143.66875L80.19063 143.66875L80.19063 145.075Q80.19063 145.84062 79.90938 146.30937Q79.64375 146.79375 79.05 147.05937L78.70625 146.52812Q79.09688 146.35625 79.28438 146.02812Q79.47188 145.7 79.4875 145.075L78.8 145.075ZM82.12813 140.1375Q82.12813 138.35625 82.4875 137.27812Q82.8625 136.18437 83.58125 135.60625Q84.3 135.0125 85.39375 135.0125Q86.20625 135.0125 86.81563 135.34062Q87.425 135.66875 87.81563 136.27812Q88.22188 136.8875 88.44063 137.7625Q88.65938 138.6375 88.65938 140.1375Q88.65938 141.90312 88.3 142.98125Q87.94063 144.05937 87.22188 144.65312Q86.50313 145.24687 85.39375 145.24687Q83.95625 145.24687 83.12813 144.2Q82.12813 142.95 82.12813 140.1375ZM83.39375 140.1375Q83.39375 142.60625 83.97188 143.41875Q84.55 144.23125 85.39375 144.23125Q86.25313 144.23125 86.83125 143.41875Q87.40938 142.59062 87.40938 140.1375Q87.40938 137.65312 86.83125 136.84062Q86.25313 136.02812 85.37813 136.02812Q84.53438 136.02812 84.03438 136.74687Q83.39375 137.66875 83.39375 140.1375ZM90.12813 140.1375Q90.12813 138.35625 90.4875 137.27812Q90.8625 136.18437 91.58125 135.60625Q92.3 135.0125 93.39375 135.0125Q94.20625 135.0125 94.81563 135.34062Q95.425 135.66875 95.81563 136.27812Q96.22188 136.8875 96.44063 137.7625Q96.65938 138.6375 96.65938 140.1375Q96.65938 141.90312 96.3 142.98125Q95.94063 144.05937 95.22188 144.65312Q94.50313 145.24687 93.39375 145.24687Q91.95625 145.24687 91.12813 144.2Q90.12813 142.95 90.12813 140.1375ZM91.39375 140.1375Q91.39375 142.60625 91.97188 143.41875Q92.55 144.23125 93.39375 144.23125Q94.25313 144.23125 94.83125 143.41875Q95.40938 142.59062 95.40938 140.1375Q95.40938 137.65312 94.83125 136.84062Q94.25313 136.02812 93.37813 136.02812Q92.53438 136.02812 92.03438 136.74687Q91.39375 137.66875 91.39375 140.1375Z" fill-rule="nonzero"/><path fill="#000000" d="M66.08125 96.28333L66.08125 93.87708L61.721874 93.87708L61.721874 92.75208L66.3 86.26771L67.3 86.26771L67.3 92.75208L68.65938 92.75208L68.65938 93.87708L67.3 93.87708L67.3 96.28333L66.08125 96.28333ZM66.08125 92.75208L66.08125 88.23646L62.940624 92.75208L66.08125 92.75208ZM70.12813 91.34583Q70.12813 89.56458 70.4875 88.48646Q70.8625 87.39271 71.58125 86.81458Q72.3 86.22083 73.39375 86.22083Q74.20625 86.22083 74.81563 86.54896Q75.425 86.87708 75.81563 87.48646Q76.22188 88.09583 76.44063 88.97083Q76.65938 89.84583 76.65938 91.34583Q76.65938 93.11146 76.3 94.18958Q75.94063 95.26771 75.22188 95.86146Q74.50313 96.45521 73.39375 96.45521Q71.95625 96.45521 71.12813 95.40833Q70.12813 94.15833 70.12813 91.34583ZM71.39375 91.34583Q71.39375 93.81458 71.97188 94.62708Q72.55 95.43958 73.39375 95.43958Q74.25313 95.43958 74.83125 94.62708Q75.40938 93.79896 75.40938 91.34583Q75.40938 88.86146 74.83125 88.04896Q74.25313 87.23646 73.37813 87.23646Q72.53438 87.23646 72.03438 87.95521Q71.39375 88.87708 71.39375 91.34583ZM78.8 96.28333L78.8 94.87708L80.19063 94.87708L80.19063 96.28333Q80.19063 97.04896 79.90938 97.51771Q79.64375 98.00208 79.05 98.26771L78.70625 97.73646Q79.09688 97.56458 79.28438 97.23646Q79.47188 96.90833 79.4875 96.28333L78.8 96.28333ZM82.12813 91.34583Q82.12813 89.56458 82.4875 88.48646Q82.8625 87.39271 83.58125 86.81458Q84.3 86.22083 85.39375 86.22083Q86.20625 86.22083 86.81563 86.54896Q87.425 86.87708 87.81563 87.48646Q88.22188 88.09583 88.44063 88.97083Q88.65938 89.84583 88.65938 91.34583Q88.65938 93.11146 88.3 94.18958Q87.94063 95.26771 87.22188 95.86146Q86.50313 96.45521 85.39375 96.45521Q83.95625 96.45521 83.12813 95.40833Q82.12813 94.15833 82.12813 91.34583ZM83.39375 91.34583Q83.39375 93.81458 83.97188 94.62708Q84.55 95.43958 85.39375 95.43958Q86.25313 95.43958 86.83125 94.62708Q87.40938 93.79896 87.40938 91.34583Q87.40938 88.86146 86.83125 88.04896Q86.25313 87.23646 85.37813 87.23646Q84.53438 87.23646 84.03438 87.95521Q83.39375 88.87708 83.39375 91.34583ZM90.12813 91.34583Q90.12813 89.56458 90.4875 88.48646Q90.8625 87.39271 91.58125 86.81458Q92.3 86.22083 93.39375 86.22083Q94.20625 86.22083 94.81563 86.54896Q95.425 86.87708 95.81563 87.48646Q96.22188 88.09583 96.44063 88.97083Q96.65938 89.84583 96.65938 91.34583Q96.65938 93.11146 96.3 94.18958Q95.94063 95.26771 95.22188 95.86146Q94.50313 96.45521 93.39375 96.45521Q91.95625 96.45521 91.12813 95.40833Q90.12813 94.15833 90.12813 91.34583ZM91.39375 91.34583Q91.39375 93.81458 91.97188 94.62708Q92.55 95.43958 93.39375 95.43958Q94.25313 95.43958 94.83125 94.62708Q95.40938 93.79896 95.40938 91.34583Q95.40938 88.86146 94.83125 88.04896Q94.25313 87.23646 93.37813 87.23646Q92.53438 87.23646 92.03438 87.95521Q91.39375 88.87708 91.39375 91.34583Z" fill-rule="nonzero"/><path fill="#000000" d="M103.59688 305.2625L103.59688 306.45L96.97188 306.45Q96.95625 306.0125 97.1125 305.59064Q97.37813 304.91876 97.925 304.2625Q98.4875 303.60626 99.53438 302.7469Q101.175 301.40314 101.7375 300.6219Q102.31563 299.84064 102.31563 299.1375Q102.31563 298.40314 101.78438 297.90314Q101.26875 297.40314 100.44063 297.40314Q99.55 297.40314 99.00313 297.9344Q98.47188 298.46564 98.47188 299.41876L97.20625 299.27814Q97.33125 297.8719 98.175 297.1375Q99.03438 296.3875 100.45625 296.3875Q101.90938 296.3875 102.7375 297.1844Q103.58125 297.98126 103.58125 299.16876Q103.58125 299.77814 103.33125 300.35626Q103.09688 300.9344 102.51875 301.575Q101.95625 302.21564 100.62813 303.34064Q99.51875 304.2625 99.20625 304.60626Q98.89375 304.9344 98.69063 305.2625L103.59688 305.2625ZM105.12813 303.825L106.425 303.71564Q106.56563 304.65314 107.08125 305.1375Q107.6125 305.60626 108.34688 305.60626Q109.2375 305.60626 109.84688 304.9344Q110.47188 304.2625 110.47188 303.16876Q110.47188 302.10626 109.87813 301.4969Q109.28438 300.8875 108.33125 300.8875Q107.7375 300.8875 107.25313 301.16876Q106.78438 301.4344 106.50313 301.85626L105.34688 301.71564L106.31563 296.5594L111.3 296.5594L111.3 297.7469L107.3 297.7469L106.76875 300.4344Q107.675 299.8094 108.65938 299.8094Q109.97188 299.8094 110.8625 300.71564Q111.76875 301.6219 111.76875 303.0594Q111.76875 304.41876 110.9875 305.40314Q110.01875 306.6219 108.34688 306.6219Q106.9875 306.6219 106.1125 305.85626Q105.25313 305.09064 105.12813 303.825Z" fill-rule="nonzero"/><path fill="#000000" d="M192.50812 303.825L193.805 303.71564Q193.94562 304.65314 194.46124 305.1375Q194.9925 305.60626 195.72687 305.60626Q196.6175 305.60626 197.22687 304.9344Q197.85187 304.2625 197.85187 303.16876Q197.85187 302.10626 197.25812 301.4969Q196.66437 300.8875 195.71124 300.8875Q195.1175 300.8875 194.63312 301.16876Q194.16437 301.4344 193.88312 301.85626L192.72687 301.71564L193.69562 296.5594L198.68 296.5594L198.68 297.7469L194.68 297.7469L194.14874 300.4344Q195.055 299.8094 196.03937 299.8094Q197.35187 299.8094 198.2425 300.71564Q199.14874 301.6219 199.14874 303.0594Q199.14874 304.41876 198.3675 305.40314Q197.39874 306.6219 195.72687 306.6219Q194.3675 306.6219 193.4925 305.85626Q192.63312 305.09064 192.50812 303.825ZM200.50812 301.5125Q200.50812 299.73126 200.8675 298.65314Q201.2425 297.5594 201.96124 296.98126Q202.68 296.3875 203.77374 296.3875Q204.58624 296.3875 205.19562 296.71564Q205.805 297.04376 206.19562 297.65314Q206.60187 298.2625 206.82062 299.1375Q207.03937 300.0125 207.03937 301.5125Q207.03937 303.27814 206.68 304.35626Q206.32062 305.4344 205.60187 306.02814Q204.88312 306.6219 203.77374 306.6219Q202.33624 306.6219 201.50812 305.575Q200.50812 304.325 200.50812 301.5125ZM201.77374 301.5125Q201.77374 303.98126 202.35187 304.79376Q202.93 305.60626 203.77374 305.60626Q204.63312 305.60626 205.21124 304.79376Q205.78937 303.96564 205.78937 301.5125Q205.78937 299.02814 205.21124 298.21564Q204.63312 297.40314 203.75812 297.40314Q202.91437 297.40314 202.41437 298.1219Q201.77374 299.04376 201.77374 301.5125Z" fill-rule="nonzero"/><path fill="#000000" d="M287.96625 297.7469L287.96625 296.5594L294.46625 296.5594L294.46625 297.5125Q293.4975 298.52814 292.56 300.21564Q291.6225 301.90314 291.10687 303.7Q290.7475 304.95 290.63812 306.45L289.3725 306.45Q289.38812 305.2625 289.82562 303.59064Q290.27875 301.91876 291.10687 300.3719Q291.95062 298.8094 292.88812 297.7469L287.96625 297.7469ZM295.88812 303.825L297.185 303.71564Q297.32562 304.65314 297.84125 305.1375Q298.3725 305.60626 299.10687 305.60626Q299.9975 305.60626 300.60687 304.9344Q301.23187 304.2625 301.23187 303.16876Q301.23187 302.10626 300.63812 301.4969Q300.04437 300.8875 299.09125 300.8875Q298.4975 300.8875 298.01312 301.16876Q297.54437 301.4344 297.26312 301.85626L296.10687 301.71564L297.07562 296.5594L302.06 296.5594L302.06 297.7469L298.06 297.7469L297.52875 300.4344Q298.435 299.8094 299.41937 299.8094Q300.73187 299.8094 301.6225 300.71564Q302.52875 301.6219 302.52875 303.0594Q302.52875 304.41876 301.7475 305.40314Q300.77875 306.6219 299.10687 306.6219Q297.7475 306.6219 296.8725 305.85626Q296.01312 305.09064 295.88812 303.825Z" fill-rule="nonzero"/><path fill="#000000" d="M383.90875 306.45L382.67438 306.45L382.67438 298.60626Q382.23688 299.02814 381.5025 299.46564Q380.78375 299.8875 380.22125 300.09064L380.22125 298.90314Q381.2525 298.41876 382.01813 297.73126Q382.79938 297.04376 383.11188 296.3875L383.90875 296.3875L383.90875 306.45ZM387.26813 301.5125Q387.26813 299.73126 387.6275 298.65314Q388.0025 297.5594 388.72125 296.98126Q389.44 296.3875 390.53375 296.3875Q391.34625 296.3875 391.95563 296.71564Q392.565 297.04376 392.95563 297.65314Q393.36188 298.2625 393.58063 299.1375Q393.79938 300.0125 393.79938 301.5125Q393.79938 303.27814 393.44 304.35626Q393.08063 305.4344 392.36188 306.02814Q391.64313 306.6219 390.53375 306.6219Q389.09625 306.6219 388.26813 305.575Q387.26813 304.325 387.26813 301.5125ZM388.53375 301.5125Q388.53375 303.98126 389.11188 304.79376Q389.69 305.60626 390.53375 305.60626Q391.39313 305.60626 391.97125 304.79376Q392.54938 303.96564 392.54938 301.5125Q392.54938 299.02814 391.97125 298.21564Q391.39313 297.40314 390.51813 297.40314Q389.67438 297.40314 389.17438 298.1219Q388.53375 299.04376 388.53375 301.5125ZM395.26813 301.5125Q395.26813 299.73126 395.6275 298.65314Q396.0025 297.5594 396.72125 296.98126Q397.44 296.3875 398.53375 296.3875Q399.34625 296.3875 399.95563 296.71564Q400.565 297.04376 400.95563 297.65314Q401.36188 298.2625 401.58063 299.1375Q401.79938 300.0125 401.79938 301.5125Q401.79938 303.27814 401.44 304.35626Q401.08063 305.4344 400.36188 306.02814Q399.64313 306.6219 398.53375 306.6219Q397.09625 306.6219 396.26813 305.575Q395.26813 304.325 395.26813 301.5125ZM396.53375 301.5125Q396.53375 303.98126 397.11188 304.79376Q397.69 305.60626 398.53375 305.60626Q399.39313 305.60626 399.97125 304.79376Q400.54938 303.96564 400.54938 301.5125Q400.54938 299.02814 399.97125 298.21564Q399.39313 297.40314 398.51813 297.40314Q397.67438 297.40314 397.17438 298.1219Q396.53375 299.04376 396.53375 301.5125Z" fill-rule="nonzero"/><path fill="#000000" d="M479.28876 306.45L478.05438 306.45L478.05438 298.60626Q477.61688 299.02814 476.8825 299.46564Q476.16376 299.8875 475.60126 300.09064L475.60126 298.90314Q476.6325 298.41876 477.39813 297.73126Q478.17938 297.04376 478.49188 296.3875L479.28876 296.3875L479.28876 306.45ZM489.11688 305.2625L489.11688 306.45L482.49188 306.45Q482.47626 306.0125 482.6325 305.59064Q482.89813 304.91876 483.445 304.2625Q484.0075 303.60626 485.05438 302.7469Q486.695 301.40314 487.2575 300.6219Q487.83563 299.84064 487.83563 299.1375Q487.83563 298.40314 487.30438 297.90314Q486.78876 297.40314 485.96063 297.40314Q485.07 297.40314 484.52313 297.9344Q483.99188 298.46564 483.99188 299.41876L482.72626 299.27814Q482.85126 297.8719 483.695 297.1375Q484.55438 296.3875 485.97626 296.3875Q487.42938 296.3875 488.2575 297.1844Q489.10126 297.98126 489.10126 299.16876Q489.10126 299.77814 488.85126 300.35626Q488.61688 300.9344 488.03876 301.575Q487.47626 302.21564 486.14813 303.34064Q485.03876 304.2625 484.72626 304.60626Q484.41376 304.9344 484.21063 305.2625L489.11688 305.2625ZM490.64813 303.825L491.945 303.71564Q492.08563 304.65314 492.60126 305.1375Q493.1325 305.60626 493.86688 305.60626Q494.7575 305.60626 495.36688 304.9344Q495.99188 304.2625 495.99188 303.16876Q495.99188 302.10626 495.39813 301.4969Q494.80438 300.8875 493.85126 300.8875Q493.2575 300.8875 492.77313 301.16876Q492.30438 301.4344 492.02313 301.85626L490.86688 301.71564L491.83563 296.5594L496.82 296.5594L496.82 297.7469L492.82 297.7469L492.28876 300.4344Q493.195 299.8094 494.17938 299.8094Q495.49188 299.8094 496.3825 300.71564Q497.28876 301.6219 497.28876 303.0594Q497.28876 304.41876 496.5075 305.40314Q495.53876 306.6219 493.86688 306.6219Q492.5075 306.6219 491.6325 305.85626Q490.77313 305.09064 490.64813 303.825Z" fill-rule="nonzero"/><path fill="#000000" d="M574.66876 306.45L573.4344 306.45L573.4344 298.60626Q572.9969 299.02814 572.2625 299.46564Q571.54376 299.8875 570.98126 300.09064L570.98126 298.90314Q572.0125 298.41876 572.77814 297.73126Q573.5594 297.04376 573.8719 296.3875L574.66876 296.3875L574.66876 306.45ZM578.02814 303.825L579.325 303.71564Q579.46564 304.65314 579.98126 305.1375Q580.5125 305.60626 581.2469 305.60626Q582.1375 305.60626 582.7469 304.9344Q583.3719 304.2625 583.3719 303.16876Q583.3719 302.10626 582.77814 301.4969Q582.1844 300.8875 581.23126 300.8875Q580.6375 300.8875 580.15314 301.16876Q579.6844 301.4344 579.40314 301.85626L578.2469 301.71564L579.21564 296.5594L584.2 296.5594L584.2 297.7469L580.2 297.7469L579.66876 300.4344Q580.575 299.8094 581.5594 299.8094Q582.8719 299.8094 583.7625 300.71564Q584.66876 301.6219 584.66876 303.0594Q584.66876 304.41876 583.8875 305.40314Q582.91876 306.6219 581.2469 306.6219Q579.8875 306.6219 579.0125 305.85626Q578.15314 305.09064 578.02814 303.825ZM586.02814 301.5125Q586.02814 299.73126 586.3875 298.65314Q586.7625 297.5594 587.48126 296.98126Q588.2 296.3875 589.29376 296.3875Q590.10626 296.3875 590.71564 296.71564Q591.325 297.04376 591.71564 297.65314Q592.1219 298.2625 592.34064 299.1375Q592.5594 300.0125 592.5594 301.5125Q592.5594 303.27814 592.2 304.35626Q591.84064 305.4344 591.1219 306.02814Q590.40314 306.6219 589.29376 306.6219Q587.85626 306.6219 587.02814 305.575Q586.02814 304.325 586.02814 301.5125ZM587.29376 301.5125Q587.29376 303.98126 587.8719 304.79376Q588.45 305.60626 589.29376 305.60626Q590.15314 305.60626 590.73126 304.79376Q591.3094 303.96564 591.3094 301.5125Q591.3094 299.02814 590.73126 298.21564Q590.15314 297.40314 589.27814 297.40314Q588.4344 297.40314 587.9344 298.1219Q587.29376 299.04376 587.29376 301.5125Z" fill-rule="nonzero"/><path stroke="#4285f4" stroke-width="4.0" stroke-linecap="butt" d="M68.0 61.416668L80.0 61.416668" fill-rule="nonzero"/><path fill="#1a1a1a" d="M94.59375 62.416664L94.59375 61.072914L99.453125 61.072914L99.453125 65.322914Q98.328125 66.21354 97.140625 66.666664Q95.953125 67.11979 94.703125 67.11979Q93.015625 67.11979 91.640625 66.40104Q90.265625 65.666664 89.5625 64.30729Q88.859375 62.93229 88.859375 61.24479Q88.859375 59.572914 89.546875 58.11979Q90.25 56.666664 91.5625 55.96354Q92.875 55.260414 94.59375 55.260414Q95.828125 55.260414 96.828125 55.666664Q97.84375 56.072914 98.40625 56.791664Q98.984375 57.510414 99.28125 58.666664L97.90625 59.041664Q97.65625 58.166664 97.265625 57.666664Q96.890625 57.166664 96.171875 56.86979Q95.46875 56.55729 94.59375 56.55729Q93.5625 56.55729 92.796875 56.885414Q92.046875 57.197914 91.578125 57.71354Q91.109375 58.229164 90.859375 58.83854Q90.421875 59.90104 90.421875 61.15104Q90.421875 62.68229 90.9375 63.71354Q91.46875 64.74479 92.46875 65.24479Q93.484375 65.74479 94.625 65.74479Q95.609375 65.74479 96.546875 65.36979Q97.484375 64.979164 97.96875 64.55729L97.96875 62.416664L94.59375 62.416664ZM106.734375 64.24479L108.1875 64.416664Q107.84375 65.697914 106.90625 66.40104Q105.984375 67.104164 104.546875 67.104164Q102.71875 67.104164 101.65625 65.979164Q100.59375 64.854164 100.59375 62.83854Q100.59375 60.74479 101.671875 59.58854Q102.75 58.43229 104.46875 58.43229Q106.125 58.43229 107.171875 59.572914Q108.234375 60.697914 108.234375 62.74479Q108.234375 62.86979 108.234375 63.11979L102.046875 63.11979Q102.125 64.49479 102.8125 65.229164Q103.515625 65.947914 104.546875 65.947914Q105.328125 65.947914 105.875 65.541664Q106.421875 65.135414 106.734375 64.24479ZM102.125 61.96354L106.75 61.96354Q106.65625 60.916664 106.21875 60.40104Q105.546875 59.58854 104.484375 59.58854Q103.515625 59.58854 102.84375 60.24479Q102.1875 60.885414 102.125 61.96354ZM109.53125 62.760414Q109.53125 60.46354 110.8125 59.354164Q111.890625 58.43229 113.421875 58.43229Q115.140625 58.43229 116.21875 59.55729Q117.3125 60.666664 117.3125 62.65104Q117.3125 64.24479 116.828125 65.166664Q116.34375 66.08854 115.421875 66.604164Q114.515625 67.104164 113.421875 67.104164Q111.6875 67.104164 110.609375 65.99479Q109.53125 64.86979 109.53125 62.760414ZM110.984375 62.760414Q110.984375 64.354164 111.671875 65.15104Q112.375 65.947914 113.421875 65.947914Q114.46875 65.947914 115.15625 65.15104Q115.859375 64.354164 115.859375 62.71354Q115.859375 61.18229 115.15625 60.385414Q114.46875 59.58854 113.421875 59.58854Q112.375 59.58854 111.671875 60.385414Q110.984375 61.166664 110.984375 62.760414ZM118.515625 63.479164L118.515625 62.05729L122.828125 62.05729L122.828125 63.479164L118.515625 63.479164ZM132.40625 62.90104L133.92188 63.27604Q133.45312 65.15104 132.20312 66.135414Q130.96875 67.11979 129.1875 67.11979Q127.328125 67.11979 126.171875 66.36979Q125.015625 65.604164 124.40625 64.18229Q123.796875 62.74479 123.796875 61.104164Q123.796875 59.30729 124.484375 57.979164Q125.171875 56.65104 126.421875 55.96354Q127.6875 55.260414 129.20312 55.260414Q130.92188 55.260414 132.09375 56.135414Q133.26562 57.010414 133.73438 58.604164L132.23438 58.947914Q131.84375 57.697914 131.07812 57.135414Q130.32812 56.55729 129.17188 56.55729Q127.859375 56.55729 126.96875 57.197914Q126.078125 57.822914 125.71875 58.90104Q125.359375 59.96354 125.359375 61.08854Q125.359375 62.55729 125.78125 63.65104Q126.21875 64.729164 127.109375 65.27604Q128.01562 65.80729 129.0625 65.80729Q130.32812 65.80729 131.20312 65.072914Q132.09375 64.33854 132.40625 62.90104ZM136.03125 66.916664L136.03125 55.46354L137.4375 55.46354L137.4375 66.916664L136.03125 66.916664ZM144.5 66.916664L144.5 65.697914Q143.53125 67.104164 141.85938 67.104164Q141.125 67.104164 140.48438 66.822914Q139.85938 66.541664 139.54688 66.11979Q139.23438 65.68229 139.10938 65.072914Q139.03125 64.65104 139.03125 63.760414L139.03125 58.61979L140.4375 58.61979L140.4375 63.21354Q140.4375 64.322914 140.51562 64.697914Q140.65625 65.260414 141.07812 65.572914Q141.51562 65.885414 142.14062 65.885414Q142.78125 65.885414 143.32812 65.572914Q143.89062 65.24479 144.10938 64.68229Q144.34375 64.11979 144.34375 63.05729L144.34375 58.61979L145.75 58.61979L145.75 66.916664L144.5 66.916664ZM146.5 64.43229L147.89062 64.21354Q148.0 65.05729 148.53125 65.510414Q149.07812 65.947914 150.03125 65.947914Q151.0 65.947914 151.46875 65.55729Q151.9375 65.15104 151.9375 64.61979Q151.9375 64.15104 151.53125 63.86979Q151.23438 63.68229 150.09375 63.40104Q148.54688 63.010414 147.9375 62.729164Q147.34375 62.43229 147.03125 61.93229Q146.73438 61.43229 146.73438 60.822914Q146.73438 60.260414 146.98438 59.791664Q147.23438 59.322914 147.67188 59.010414Q148.0 58.760414 148.5625 58.604164Q149.14062 58.43229 149.78125 58.43229Q150.76562 58.43229 151.5 58.71354Q152.23438 58.99479 152.57812 59.479164Q152.9375 59.947914 153.07812 60.760414L151.70312 60.947914Q151.60938 60.30729 151.15625 59.947914Q150.70312 59.58854 149.89062 59.58854Q148.92188 59.58854 148.5 59.916664Q148.09375 60.229164 148.09375 60.65104Q148.09375 60.93229 148.26562 61.15104Q148.4375 61.36979 148.79688 61.52604Q149.01562 61.604164 150.04688 61.885414Q151.53125 62.27604 152.125 62.541664Q152.71875 62.791664 153.04688 63.27604Q153.39062 63.760414 153.39062 64.479164Q153.39062 65.18229 152.96875 65.80729Q152.5625 66.416664 151.78125 66.760414Q151.01562 67.104164 150.04688 67.104164Q148.42188 67.104164 147.57812 66.43229Q146.73438 65.760414 146.5 64.43229ZM158.125 65.65104L158.32812 66.90104Q157.73438 67.02604 157.26562 67.02604Q156.5 67.02604 156.07812 66.791664Q155.65625 66.541664 155.48438 66.15104Q155.3125 65.74479 155.3125 64.479164L155.3125 59.71354L154.28125 59.71354L154.28125 58.61979L155.3125 58.61979L155.3125 56.55729L156.71875 55.71354L156.71875 58.61979L158.125 58.61979L158.125 59.71354L156.71875 59.71354L156.71875 64.55729Q156.71875 65.166664 156.78125 65.33854Q156.85938 65.510414 157.03125 65.61979Q157.20312 65.71354 157.51562 65.71354Q157.75 65.71354 158.125 65.65104ZM164.73438 64.24479L166.1875 64.416664Q165.84375 65.697914 164.90625 66.40104Q163.98438 67.104164 162.54688 67.104164Q160.71875 67.104164 159.65625 65.979164Q158.59375 64.854164 158.59375 62.83854Q158.59375 60.74479 159.67188 59.58854Q160.75 58.43229 162.46875 58.43229Q164.125 58.43229 165.17188 59.572914Q166.23438 60.697914 166.23438 62.74479Q166.23438 62.86979 166.23438 63.11979L160.04688 63.11979Q160.125 64.49479 160.8125 65.229164Q161.51562 65.947914 162.54688 65.947914Q163.32812 65.947914 163.875 65.541664Q164.42188 65.135414 164.73438 64.24479ZM160.125 61.96354L164.75 61.96354Q164.65625 60.916664 164.21875 60.40104Q163.54688 59.58854 162.48438 59.58854Q161.51562 59.58854 160.84375 60.24479Q160.1875 60.885414 160.125 61.96354ZM168.04688 66.916664L168.04688 58.61979L169.3125 58.61979L169.3125 59.86979Q169.79688 58.99479 170.20312 58.71354Q170.60938 58.43229 171.10938 58.43229Q171.8125 58.43229 172.54688 58.885414L172.0625 60.18229Q171.54688 59.885414 171.03125 59.885414Q170.57812 59.885414 170.20312 60.166664Q169.84375 60.43229 169.6875 60.93229Q169.45312 61.68229 169.45312 62.572914L169.45312 66.916664L168.04688 66.916664Z" fill-rule="nonzero"/><path stroke="#ea4335" stroke-width="4.0" stroke-linecap="butt" d="M188.0 61.416668L200.0 61.416668" fill-rule="nonzero"/><path fill="#1a1a1a" d="M217.40625 62.90104L218.92188 63.27604Q218.45312 65.15104 217.20312 66.135414Q215.96875 67.11979 214.1875 67.11979Q212.32812 67.11979 211.17188 66.36979Q210.01562 65.604164 209.40625 64.18229Q208.79688 62.74479 208.79688 61.104164Q208.79688 59.30729 209.48438 57.979164Q210.17188 56.65104 211.42188 55.96354Q212.6875 55.260414 214.20312 55.260414Q215.92188 55.260414 217.09375 56.135414Q218.26562 57.010414 218.73438 58.604164L217.23438 58.947914Q216.84375 57.697914 216.07812 57.135414Q215.32812 56.55729 214.17188 56.55729Q212.85938 56.55729 211.96875 57.197914Q211.07812 57.822914 210.71875 58.90104Q210.35938 59.96354 210.35938 61.08854Q210.35938 62.55729 210.78125 63.65104Q211.21875 64.729164 212.10938 65.27604Q213.01562 65.80729 214.0625 65.80729Q215.32812 65.80729 216.20312 65.072914Q217.09375 64.33854 217.40625 62.90104ZM221.23438 66.916664L221.23438 55.46354L225.5625 55.46354Q226.70312 55.46354 227.29688 55.572914Q228.14062 55.71354 228.70312 56.104164Q229.28125 56.49479 229.625 57.21354Q229.98438 57.916664 229.98438 58.77604Q229.98438 60.229164 229.04688 61.24479Q228.125 62.260414 225.6875 62.260414L222.75 62.260414L222.75 66.916664L221.23438 66.916664ZM222.75 60.90104L225.71875 60.90104Q227.1875 60.90104 227.79688 60.354164Q228.42188 59.80729 228.42188 58.822914Q228.42188 58.104164 228.04688 57.58854Q227.6875 57.072914 227.09375 56.916664Q226.71875 56.80729 225.6875 56.80729L222.75 56.80729L222.75 60.90104ZM239.75 55.46354L241.26562 55.46354L241.26562 62.072914Q241.26562 63.80729 240.875 64.822914Q240.48438 65.83854 239.46875 66.479164Q238.45312 67.11979 236.79688 67.11979Q235.1875 67.11979 234.15625 66.55729Q233.14062 65.99479 232.70312 64.947914Q232.26562 63.90104 232.26562 62.072914L232.26562 55.46354L233.78125 55.46354L233.78125 62.072914Q233.78125 63.55729 234.04688 64.27604Q234.32812 64.979164 235.0 65.36979Q235.6875 65.74479 236.65625 65.74479Q238.32812 65.74479 239.03125 64.99479Q239.75 64.229164 239.75 62.072914L239.75 55.46354ZM242.51562 63.479164L242.51562 62.05729L246.82812 62.05729L246.82812 63.479164L242.51562 63.479164ZM256.40625 62.90104L257.92188 63.27604Q257.45312 65.15104 256.20312 66.135414Q254.96875 67.11979 253.1875 67.11979Q251.32812 67.11979 250.17188 66.36979Q249.01562 65.604164 248.40625 64.18229Q247.79688 62.74479 247.79688 61.104164Q247.79688 59.30729 248.48438 57.979164Q249.17188 56.65104 250.42188 55.96354Q251.6875 55.260414 253.20312 55.260414Q254.92188 55.260414 256.09375 56.135414Q257.26562 57.010414 257.73438 58.604164L256.23438 58.947914Q255.84375 57.697914 255.07812 57.135414Q254.32812 56.55729 253.17188 56.55729Q251.85938 56.55729 250.96875 57.197914Q250.07812 57.822914 249.71875 58.90104Q249.35938 59.96354 249.35938 61.08854Q249.35938 62.55729 249.78125 63.65104Q250.21875 64.729164 251.10938 65.27604Q252.01562 65.80729 253.0625 65.80729Q254.32812 65.80729 255.20312 65.072914Q256.09375 64.33854 256.40625 62.90104ZM260.03125 66.916664L260.03125 55.46354L261.4375 55.46354L261.4375 66.916664L260.03125 66.916664ZM268.5 66.916664L268.5 65.697914Q267.53125 67.104164 265.85938 67.104164Q265.125 67.104164 264.48438 66.822914Q263.85938 66.541664 263.54688 66.11979Q263.23438 65.68229 263.10938 65.072914Q263.03125 64.65104 263.03125 63.760414L263.03125 58.61979L264.4375 58.61979L264.4375 63.21354Q264.4375 64.322914 264.51562 64.697914Q264.65625 65.260414 265.07812 65.572914Q265.51562 65.885414 266.14062 65.885414Q266.78125 65.885414 267.32812 65.572914Q267.89062 65.24479 268.10938 64.68229Q268.34375 64.11979 268.34375 63.05729L268.34375 58.61979L269.75 58.61979L269.75 66.916664L268.5 66.916664ZM270.5 64.43229L271.89062 64.21354Q272.0 65.05729 272.53125 65.510414Q273.07812 65.947914 274.03125 65.947914Q275.0 65.947914 275.46875 65.55729Q275.9375 65.15104 275.9375 64.61979Q275.9375 64.15104 275.53125 63.86979Q275.23438 63.68229 274.09375 63.40104Q272.54688 63.010414 271.9375 62.729164Q271.34375 62.43229 271.03125 61.93229Q270.73438 61.43229 270.73438 60.822914Q270.73438 60.260414 270.98438 59.791664Q271.23438 59.322914 271.67188 59.010414Q272.0 58.760414 272.5625 58.604164Q273.14062 58.43229 273.78125 58.43229Q274.76562 58.43229 275.5 58.71354Q276.23438 58.99479 276.57812 59.479164Q276.9375 59.947914 277.07812 60.760414L275.70312 60.947914Q275.60938 60.30729 275.15625 59.947914Q274.70312 59.58854 273.89062 59.58854Q272.92188 59.58854 272.5 59.916664Q272.09375 60.229164 272.09375 60.65104Q272.09375 60.93229 272.26562 61.15104Q272.4375 61.36979 272.79688 61.52604Q273.01562 61.604164 274.04688 61.885414Q275.53125 62.27604 276.125 62.541664Q276.71875 62.791664 277.04688 63.27604Q277.39062 63.760414 277.39062 64.479164Q277.39062 65.18229 276.96875 65.80729Q276.5625 66.416664 275.78125 66.760414Q275.01562 67.104164 274.04688 67.104164Q272.42188 67.104164 271.57812 66.43229Q270.73438 65.760414 270.5 64.43229ZM282.125 65.65104L282.32812 66.90104Q281.73438 67.02604 281.26562 67.02604Q280.5 67.02604 280.07812 66.791664Q279.65625 66.541664 279.48438 66.15104Q279.3125 65.74479 279.3125 64.479164L279.3125 59.71354L278.28125 59.71354L278.28125 58.61979L279.3125 58.61979L279.3125 56.55729L280.71875 55.71354L280.71875 58.61979L282.125 58.61979L282.125 59.71354L280.71875 59.71354L280.71875 64.55729Q280.71875 65.166664 280.78125 65.33854Q280.85938 65.510414 281.03125 65.61979Q281.20312 65.71354 281.51562 65.71354Q281.75 65.71354 282.125 65.65104ZM288.73438 64.24479L290.1875 64.416664Q289.84375 65.697914 288.90625 66.40104Q287.98438 67.104164 286.54688 67.104164Q284.71875 67.104164 283.65625 65.979164Q282.59375 64.854164 282.59375 62.83854Q282.59375 60.74479 283.67188 59.58854Q284.75 58.43229 286.46875 58.43229Q288.125 58.43229 289.17188 59.572914Q290.23438 60.697914 290.23438 62.74479Q290.23438 62.86979 290.23438 63.11979L284.04688 63.11979Q284.125 64.49479 284.8125 65.229164Q285.51562 65.947914 286.54688 65.947914Q287.32812 65.947914 287.875 65.541664Q288.42188 65.135414 288.73438 64.24479ZM284.125 61.96354L288.75 61.96354Q288.65625 60.916664 288.21875 60.40104Q287.54688 59.58854 286.48438 59.58854Q285.51562 59.58854 284.84375 60.24479Q284.1875 60.885414 284.125 61.96354ZM292.04688 66.916664L292.04688 58.61979L293.3125 58.61979L293.3125 59.86979Q293.79688 58.99479 294.20312 58.71354Q294.60938 58.43229 295.10938 58.43229Q295.8125 58.43229 296.54688 58.885414L296.0625 60.18229Q295.54688 59.885414 295.03125 59.885414Q294.57812 59.885414 294.20312 60.166664Q293.84375 60.43229 293.6875 60.93229Q293.45312 61.68229 293.45312 62.572914L293.45312 66.916664L292.04688 66.916664Z" fill-rule="nonzero"/><path stroke="#fbbc04" stroke-width="4.0" stroke-linecap="butt" d="M312.0 61.416668L324.0 61.416668" fill-rule="nonzero"/><path fill="#1a1a1a" d="M338.59375 62.416664L338.59375 61.072914L343.45312 61.072914L343.45312 65.322914Q342.32812 66.21354 341.14062 66.666664Q339.95312 67.11979 338.70312 67.11979Q337.01562 67.11979 335.64062 66.40104Q334.26562 65.666664 333.5625 64.30729Q332.85938 62.93229 332.85938 61.24479Q332.85938 59.572914 333.54688 58.11979Q334.25 56.666664 335.5625 55.96354Q336.875 55.260414 338.59375 55.260414Q339.82812 55.260414 340.82812 55.666664Q341.84375 56.072914 342.40625 56.791664Q342.98438 57.510414 343.28125 58.666664L341.90625 59.041664Q341.65625 58.166664 341.26562 57.666664Q340.89062 57.166664 340.17188 56.86979Q339.46875 56.55729 338.59375 56.55729Q337.5625 56.55729 336.79688 56.885414Q336.04688 57.197914 335.57812 57.71354Q335.10938 58.229164 334.85938 58.83854Q334.42188 59.90104 334.42188 61.15104Q334.42188 62.68229 334.9375 63.71354Q335.46875 64.74479 336.46875 65.24479Q337.48438 65.74479 338.625 65.74479Q339.60938 65.74479 340.54688 65.36979Q341.48438 64.979164 341.96875 64.55729L341.96875 62.416664L338.59375 62.416664ZM350.73438 64.24479L352.1875 64.416664Q351.84375 65.697914 350.90625 66.40104Q349.98438 67.104164 348.54688 67.104164Q346.71875 67.104164 345.65625 65.979164Q344.59375 64.854164 344.59375 62.83854Q344.59375 60.74479 345.67188 59.58854Q346.75 58.43229 348.46875 58.43229Q350.125 58.43229 351.17188 59.572914Q352.23438 60.697914 352.23438 62.74479Q352.23438 62.86979 352.23438 63.11979L346.04688 63.11979Q346.125 64.49479 346.8125 65.229164Q347.51562 65.947914 348.54688 65.947914Q349.32812 65.947914 349.875 65.541664Q350.42188 65.135414 350.73438 64.24479ZM346.125 61.96354L350.75 61.96354Q350.65625 60.916664 350.21875 60.40104Q349.54688 59.58854 348.48438 59.58854Q347.51562 59.58854 346.84375 60.24479Q346.1875 60.885414 346.125 61.96354ZM353.53125 62.760414Q353.53125 60.46354 354.8125 59.354164Q355.89062 58.43229 357.42188 58.43229Q359.14062 58.43229 360.21875 59.55729Q361.3125 60.666664 361.3125 62.65104Q361.3125 64.24479 360.82812 65.166664Q360.34375 66.08854 359.42188 66.604164Q358.51562 67.104164 357.42188 67.104164Q355.6875 67.104164 354.60938 65.99479Q353.53125 64.86979 353.53125 62.760414ZM354.98438 62.760414Q354.98438 64.354164 355.67188 65.15104Q356.375 65.947914 357.42188 65.947914Q358.46875 65.947914 359.15625 65.15104Q359.85938 64.354164 359.85938 62.71354Q359.85938 61.18229 359.15625 60.385414Q358.46875 59.58854 357.42188 59.58854Q356.375 59.58854 355.67188 60.385414Q354.98438 61.166664 354.98438 62.760414ZM362.51562 63.479164L362.51562 62.05729L366.82812 62.05729L366.82812 63.479164L362.51562 63.479164ZM376.40625 62.90104L377.92188 63.27604Q377.45312 65.15104 376.20312 66.135414Q374.96875 67.11979 373.1875 67.11979Q371.32812 67.11979 370.17188 66.36979Q369.01562 65.604164 368.40625 64.18229Q367.79688 62.74479 367.79688 61.104164Q367.79688 59.30729 368.48438 57.979164Q369.17188 56.65104 370.42188 55.96354Q371.6875 55.260414 373.20312 55.260414Q374.92188 55.260414 376.09375 56.135414Q377.26562 57.010414 377.73438 58.604164L376.23438 58.947914Q375.84375 57.697914 375.07812 57.135414Q374.32812 56.55729 373.17188 56.55729Q371.85938 56.55729 370.96875 57.197914Q370.07812 57.822914 369.71875 58.90104Q369.35938 59.96354 369.35938 61.08854Q369.35938 62.55729 369.78125 63.65104Q370.21875 64.729164 371.10938 65.27604Q372.01562 65.80729 373.0625 65.80729Q374.32812 65.80729 375.20312 65.072914Q376.09375 64.33854 376.40625 62.90104ZM380.03125 66.916664L380.03125 55.46354L381.4375 55.46354L381.4375 66.916664L380.03125 66.916664ZM388.5 66.916664L388.5 65.697914Q387.53125 67.104164 385.85938 67.104164Q385.125 67.104164 384.48438 66.822914Q383.85938 66.541664 383.54688 66.11979Q383.23438 65.68229 383.10938 65.072914Q383.03125 64.65104 383.03125 63.760414L383.03125 58.61979L384.4375 58.61979L384.4375 63.21354Q384.4375 64.322914 384.51562 64.697914Q384.65625 65.260414 385.07812 65.572914Q385.51562 65.885414 386.14062 65.885414Q386.78125 65.885414 387.32812 65.572914Q387.89062 65.24479 388.10938 64.68229Q388.34375 64.11979 388.34375 63.05729L388.34375 58.61979L389.75 58.61979L389.75 66.916664L388.5 66.916664ZM390.5 64.43229L391.89062 64.21354Q392.0 65.05729 392.53125 65.510414Q393.07812 65.947914 394.03125 65.947914Q395.0 65.947914 395.46875 65.55729Q395.9375 65.15104 395.9375 64.61979Q395.9375 64.15104 395.53125 63.86979Q395.23438 63.68229 394.09375 63.40104Q392.54688 63.010414 391.9375 62.729164Q391.34375 62.43229 391.03125 61.93229Q390.73438 61.43229 390.73438 60.822914Q390.73438 60.260414 390.98438 59.791664Q391.23438 59.322914 391.67188 59.010414Q392.0 58.760414 392.5625 58.604164Q393.14062 58.43229 393.78125 58.43229Q394.76562 58.43229 395.5 58.71354Q396.23438 58.99479 396.57812 59.479164Q396.9375 59.947914 397.07812 60.760414L395.70312 60.947914Q395.60938 60.30729 395.15625 59.947914Q394.70312 59.58854 393.89062 59.58854Q392.92188 59.58854 392.5 59.916664Q392.09375 60.229164 392.09375 60.65104Q392.09375 60.93229 392.26562 61.15104Q392.4375 61.36979 392.79688 61.52604Q393.01562 61.604164 394.04688 61.885414Q395.53125 62.27604 396.125 62.541664Q396.71875 62.791664 397.04688 63.27604Q397.39062 63.760414 397.39062 64.479164Q397.39062 65.18229 396.96875 65.80729Q396.5625 66.416664 395.78125 66.760414Q395.01562 67.104164 394.04688 67.104164Q392.42188 67.104164 391.57812 66.43229Q390.73438 65.760414 390.5 64.43229ZM402.125 65.65104L402.32812 66.90104Q401.73438 67.02604 401.26562 67.02604Q400.5 67.02604 400.07812 66.791664Q399.65625 66.541664 399.48438 66.15104Q399.3125 65.74479 399.3125 64.479164L399.3125 59.71354L398.28125 59.71354L398.28125 58.61979L399.3125 58.61979L399.3125 56.55729L400.71875 55.71354L400.71875 58.61979L402.125 58.61979L402.125 59.71354L400.71875 59.71354L400.71875 64.55729Q400.71875 65.166664 400.78125 65.33854Q400.85938 65.510414 401.03125 65.61979Q401.20312 65.71354 401.51562 65.71354Q401.75 65.71354 402.125 65.65104ZM408.73438 64.24479L410.1875 64.416664Q409.84375 65.697914 408.90625 66.40104Q407.98438 67.104164 406.54688 67.104164Q404.71875 67.104164 403.65625 65.979164Q402.59375 64.854164 402.59375 62.83854Q402.59375 60.74479 403.67188 59.58854Q404.75 58.43229 406.46875 58.43229Q408.125 58.43229 409.17188 59.572914Q410.23438 60.697914 410.23438 62.74479Q410.23438 62.86979 410.23438 63.11979L404.04688 63.11979Q404.125 64.49479 404.8125 65.229164Q405.51562 65.947914 406.54688 65.947914Q407.32812 65.947914 407.875 65.541664Q408.42188 65.135414 408.73438 64.24479ZM404.125 61.96354L408.75 61.96354Q408.65625 60.916664 408.21875 60.40104Q407.54688 59.58854 406.48438 59.58854Q405.51562 59.58854 404.84375 60.24479Q404.1875 60.885414 404.125 61.96354ZM412.04688 66.916664L412.04688 58.61979L413.3125 58.61979L413.3125 59.86979Q413.79688 58.99479 414.20312 58.71354Q414.60938 58.43229 415.10938 58.43229Q415.8125 58.43229 416.54688 58.885414L416.0625 60.18229Q415.54688 59.885414 415.03125 59.885414Q414.57812 59.885414 414.20312 60.166664Q413.84375 60.43229 413.6875 60.93229Q413.45312 61.68229 413.45312 62.572914L413.45312 66.916664L412.04688 66.916664Z" fill-rule="nonzero"/><path stroke="#34a853" stroke-width="4.0" stroke-linecap="butt" d="M432.0 61.416668L444.0 61.416668" fill-rule="nonzero"/><path fill="#1a1a1a" d="M453.17188 66.916664L453.17188 55.46354L457.46875 55.46354Q458.78125 55.46354 459.57812 55.80729Q460.375 56.15104 460.8125 56.885414Q461.26562 57.604164 461.26562 58.385414Q461.26562 59.11979 460.85938 59.77604Q460.46875 60.416664 459.67188 60.822914Q460.70312 61.11979 461.26562 61.854164Q461.82812 62.58854 461.82812 63.58854Q461.82812 64.40104 461.48438 65.08854Q461.14062 65.77604 460.64062 66.15104Q460.14062 66.52604 459.39062 66.729164Q458.64062 66.916664 457.54688 66.916664L453.17188 66.916664ZM454.6875 60.27604L457.17188 60.27604Q458.17188 60.27604 458.60938 60.135414Q459.1875 59.96354 459.48438 59.572914Q459.78125 59.166664 459.78125 58.572914Q459.78125 57.99479 459.5 57.572914Q459.23438 57.135414 458.71875 56.979164Q458.21875 56.80729 456.98438 56.80729L454.6875 56.80729L454.6875 60.27604ZM454.6875 65.55729L457.54688 65.55729Q458.28125 65.55729 458.57812 65.510414Q459.09375 65.416664 459.4375 65.197914Q459.79688 64.979164 460.01562 64.55729Q460.25 64.135414 460.25 63.58854Q460.25 62.947914 459.92188 62.479164Q459.59375 62.010414 459.01562 61.822914Q458.4375 61.61979 457.34375 61.61979L454.6875 61.61979L454.6875 65.55729ZM466.23438 66.916664L463.20312 55.46354L464.75 55.46354L466.5 62.96354Q466.78125 64.15104 466.98438 65.30729Q467.42188 63.479164 467.5 63.197914L469.67188 55.46354L471.5 55.46354L473.14062 61.260414Q473.76562 63.416664 474.03125 65.30729Q474.25 64.229164 474.60938 62.822914L476.40625 55.46354L477.92188 55.46354L474.78125 66.916664L473.32812 66.916664L470.90625 58.18229Q470.60938 57.08854 470.54688 56.83854Q470.375 57.635414 470.21875 58.18229L467.78125 66.916664L466.23438 66.916664ZM478.51562 63.479164L478.51562 62.05729L482.82812 62.05729L482.82812 63.479164L478.51562 63.479164ZM492.40625 62.90104L493.92188 63.27604Q493.45312 65.15104 492.20312 66.135414Q490.96875 67.11979 489.1875 67.11979Q487.32812 67.11979 486.17188 66.36979Q485.01562 65.604164 484.40625 64.18229Q483.79688 62.74479 483.79688 61.104164Q483.79688 59.30729 484.48438 57.979164Q485.17188 56.65104 486.42188 55.96354Q487.6875 55.260414 489.20312 55.260414Q490.92188 55.260414 492.09375 56.135414Q493.26562 57.010414 493.73438 58.604164L492.23438 58.947914Q491.84375 57.697914 491.07812 57.135414Q490.32812 56.55729 489.17188 56.55729Q487.85938 56.55729 486.96875 57.197914Q486.07812 57.822914 485.71875 58.90104Q485.35938 59.96354 485.35938 61.08854Q485.35938 62.55729 485.78125 63.65104Q486.21875 64.729164 487.10938 65.27604Q488.01562 65.80729 489.0625 65.80729Q490.32812 65.80729 491.20312 65.072914Q492.09375 64.33854 492.40625 62.90104ZM496.03125 66.916664L496.03125 55.46354L497.4375 55.46354L497.4375 66.916664L496.03125 66.916664ZM504.5 66.916664L504.5 65.697914Q503.53125 67.104164 501.85938 67.104164Q501.125 67.104164 500.48438 66.822914Q499.85938 66.541664 499.54688 66.11979Q499.23438 65.68229 499.10938 65.072914Q499.03125 64.65104 499.03125 63.760414L499.03125 58.61979L500.4375 58.61979L500.4375 63.21354Q500.4375 64.322914 500.51562 64.697914Q500.65625 65.260414 501.07812 65.572914Q501.51562 65.885414 502.14062 65.885414Q502.78125 65.885414 503.32812 65.572914Q503.89062 65.24479 504.10938 64.68229Q504.34375 64.11979 504.34375 63.05729L504.34375 58.61979L505.75 58.61979L505.75 66.916664L504.5 66.916664ZM506.5 64.43229L507.89062 64.21354Q508.0 65.05729 508.53125 65.510414Q509.07812 65.947914 510.03125 65.947914Q511.0 65.947914 511.46875 65.55729Q511.9375 65.15104 511.9375 64.61979Q511.9375 64.15104 511.53125 63.86979Q511.23438 63.68229 510.09375 63.40104Q508.54688 63.010414 507.9375 62.729164Q507.34375 62.43229 507.03125 61.93229Q506.73438 61.43229 506.73438 60.822914Q506.73438 60.260414 506.98438 59.791664Q507.23438 59.322914 507.67188 59.010414Q508.0 58.760414 508.5625 58.604164Q509.14062 58.43229 509.78125 58.43229Q510.76562 58.43229 511.5 58.71354Q512.2344 58.99479 512.5781 59.479164Q512.9375 59.947914 513.0781 60.760414L511.70312 60.947914Q511.60938 60.30729 511.15625 59.947914Q510.70312 59.58854 509.89062 59.58854Q508.92188 59.58854 508.5 59.916664Q508.09375 60.229164 508.09375 60.65104Q508.09375 60.93229 508.26562 61.15104Q508.4375 61.36979 508.79688 61.52604Q509.01562 61.604164 510.04688 61.885414Q511.53125 62.27604 512.125 62.541664Q512.71875 62.791664 513.0469 63.27604Q513.3906 63.760414 513.3906 64.479164Q513.3906 65.18229 512.96875 65.80729Q512.5625 66.416664 511.78125 66.760414Q511.01562 67.104164 510.04688 67.104164Q508.42188 67.104164 507.57812 66.43229Q506.73438 65.760414 506.5 64.43229ZM518.125 65.65104L518.3281 66.90104Q517.7344 67.02604 517.2656 67.02604Q516.5 67.02604 516.0781 66.791664Q515.65625 66.541664 515.4844 66.15104Q515.3125 65.74479 515.3125 64.479164L515.3125 59.71354L514.28125 59.71354L514.28125 58.61979L515.3125 58.61979L515.3125 56.55729L516.71875 55.71354L516.71875 58.61979L518.125 58.61979L518.125 59.71354L516.71875 59.71354L516.71875 64.55729Q516.71875 65.166664 516.78125 65.33854Q516.8594 65.510414 517.03125 65.61979Q517.2031 65.71354 517.5156 65.71354Q517.75 65.71354 518.125 65.65104ZM524.7344 64.24479L526.1875 64.416664Q525.84375 65.697914 524.90625 66.40104Q523.9844 67.104164 522.5469 67.104164Q520.71875 67.104164 519.65625 65.979164Q518.59375 64.854164 518.59375 62.83854Q518.59375 60.74479 519.6719 59.58854Q520.75 58.43229 522.46875 58.43229Q524.125 58.43229 525.1719 59.572914Q526.2344 60.697914 526.2344 62.74479Q526.2344 62.86979 526.2344 63.11979L520.0469 63.11979Q520.125 64.49479 520.8125 65.229164Q521.5156 65.947914 522.5469 65.947914Q523.3281 65.947914 523.875 65.541664Q524.4219 65.135414 524.7344 64.24479ZM520.125 61.96354L524.75 61.96354Q524.65625 60.916664 524.21875 60.40104Q523.5469 59.58854 522.4844 59.58854Q521.5156 59.58854 520.84375 60.24479Q520.1875 60.885414 520.125 61.96354ZM528.0469 66.916664L528.0469 58.61979L529.3125 58.61979L529.3125 59.86979Q529.7969 58.99479 530.2031 58.71354Q530.6094 58.43229 531.1094 58.43229Q531.8125 58.43229 532.5469 58.885414L532.0625 60.18229Q531.5469 59.885414 531.03125 59.885414Q530.5781 59.885414 530.2031 60.166664Q529.84375 60.43229 529.6875 60.93229Q529.4531 61.68229 529.4531 62.572914L529.4531 66.916664L528.0469 66.916664Z" fill-rule="nonzero"/><path fill="#757575" d="M141.07812 30.034374L142.78125 30.45625Q142.25 32.565624 140.85938 33.675Q139.46875 34.76875 137.45312 34.76875Q135.375 34.76875 134.0625 33.925Q132.76562 33.065624 132.07812 31.471874Q131.39062 29.8625 131.39062 28.003124Q131.39062 26.003124 132.15625 24.503124Q132.9375 23.003124 134.35938 22.221874Q135.78125 21.440624 137.48438 21.440624Q139.40625 21.440624 140.71875 22.425Q142.04688 23.409374 142.5625 25.190624L140.89062 25.596874Q140.4375 24.190624 139.57812 23.55Q138.73438 22.909374 137.4375 22.909374Q135.95312 22.909374 134.95312 23.628124Q133.96875 24.33125 133.5625 25.534374Q133.15625 26.721874 133.15625 28.003124Q133.15625 29.64375 133.625 30.878124Q134.10938 32.096874 135.125 32.70625Q136.14062 33.315624 137.3125 33.315624Q138.75 33.315624 139.73438 32.4875Q140.73438 31.659374 141.07812 30.034374ZM144.89062 34.55L144.89062 21.659374L149.75 21.659374Q151.03125 21.659374 151.70312 21.784374Q152.65625 21.940624 153.29688 22.39375Q153.9375 22.83125 154.32812 23.64375Q154.71875 24.440624 154.71875 25.39375Q154.71875 27.034374 153.67188 28.175Q152.625 29.315624 149.90625 29.315624L146.59375 29.315624L146.59375 34.55L144.89062 34.55ZM146.59375 27.784374L149.92188 27.784374Q151.57812 27.784374 152.26562 27.175Q152.96875 26.565624 152.96875 25.440624Q152.96875 24.628124 152.5625 24.065624Q152.15625 23.4875 151.48438 23.3Q151.04688 23.190624 149.89062 23.190624L146.59375 23.190624L146.59375 27.784374ZM165.34375 21.659374L167.04688 21.659374L167.04688 29.1125Q167.04688 31.05 166.60938 32.190624Q166.17188 33.33125 165.01562 34.05Q163.875 34.76875 162.01562 34.76875Q160.20312 34.76875 159.04688 34.14375Q157.90625 33.51875 157.40625 32.346874Q156.92188 31.159374 156.92188 29.1125L156.92188 21.659374L158.625 21.659374L158.625 29.096874Q158.625 30.784374 158.9375 31.58125Q159.25 32.3625 160.0 32.8Q160.76562 33.2375 161.85938 33.2375Q163.75 33.2375 164.54688 32.378124Q165.34375 31.51875 165.34375 29.096874L165.34375 21.659374ZM169.07812 30.675L169.07812 29.096874L173.9375 29.096874L173.9375 30.675L169.07812 30.675ZM175.8125 34.55L175.8125 21.659374L180.65625 21.659374Q182.125 21.659374 183.01562 22.05Q183.90625 22.440624 184.40625 23.253124Q184.92188 24.065624 184.92188 24.95625Q184.92188 25.784374 184.46875 26.51875Q184.03125 27.253124 183.125 27.690624Q184.29688 28.034374 184.92188 28.8625Q185.54688 29.690624 185.54688 30.815624Q185.54688 31.721874 185.15625 32.503124Q184.78125 33.26875 184.21875 33.690624Q183.65625 34.1125 182.8125 34.33125Q181.96875 34.55 180.73438 34.55L175.8125 34.55ZM177.53125 27.08125L180.3125 27.08125Q181.4375 27.08125 181.9375 26.925Q182.59375 26.7375 182.92188 26.3Q183.25 25.846874 183.25 25.159374Q183.25 24.51875 182.9375 24.034374Q182.625 23.55 182.04688 23.378124Q181.48438 23.190624 180.09375 23.190624L177.53125 23.190624L177.53125 27.08125ZM177.53125 33.034374L180.73438 33.034374Q181.5625 33.034374 181.89062 32.971874Q182.48438 32.8625 182.875 32.6125Q183.26562 32.3625 183.51562 31.89375Q183.78125 31.425 183.78125 30.815624Q183.78125 30.096874 183.40625 29.565624Q183.04688 29.034374 182.39062 28.815624Q181.73438 28.596874 180.5 28.596874L177.53125 28.596874L177.53125 33.034374ZM187.375 28.26875Q187.375 25.065624 189.09375 23.253124Q190.8125 21.440624 193.54688 21.440624Q195.32812 21.440624 196.75 22.3Q198.1875 23.14375 198.9375 24.675Q199.6875 26.190624 199.6875 28.128124Q199.6875 30.08125 198.89062 31.628124Q198.10938 33.175 196.65625 33.971874Q195.20312 34.76875 193.53125 34.76875Q191.71875 34.76875 190.28125 33.89375Q188.84375 33.01875 188.10938 31.503124Q187.375 29.971874 187.375 28.26875ZM189.125 28.3Q189.125 30.628124 190.375 31.971874Q191.64062 33.315624 193.51562 33.315624Q195.45312 33.315624 196.6875 31.95625Q197.9375 30.596874 197.9375 28.1125Q197.9375 26.55 197.40625 25.378124Q196.875 24.190624 195.84375 23.55Q194.82812 22.909374 193.54688 22.909374Q191.73438 22.909374 190.42188 24.159374Q189.125 25.39375 189.125 28.3ZM210.34375 21.659374L212.04688 21.659374L212.04688 29.1125Q212.04688 31.05 211.60938 32.190624Q211.17188 33.33125 210.01562 34.05Q208.875 34.76875 207.01562 34.76875Q205.20312 34.76875 204.04688 34.14375Q202.90625 33.51875 202.40625 32.346874Q201.92188 31.159374 201.92188 29.1125L201.92188 21.659374L203.625 21.659374L203.625 29.096874Q203.625 30.784374 203.9375 31.58125Q204.25 32.3625 205.0 32.8Q205.76562 33.2375 206.85938 33.2375Q208.75 33.2375 209.54688 32.378124Q210.34375 31.51875 210.34375 29.096874L210.34375 21.659374ZM214.875 34.55L214.875 21.659374L216.625 21.659374L223.39062 31.784374L223.39062 21.659374L225.01562 21.659374L225.01562 34.55L223.28125 34.55L216.5 24.425L216.5 34.55L214.875 34.55ZM227.89062 34.55L227.89062 21.659374L232.32812 21.659374Q233.82812 21.659374 234.625 21.846874Q235.73438 22.096874 236.51562 22.76875Q237.53125 23.628124 238.03125 24.971874Q238.54688 26.315624 238.54688 28.034374Q238.54688 29.503124 238.20312 30.64375Q237.85938 31.76875 237.3125 32.51875Q236.78125 33.253124 236.14062 33.690624Q235.51562 34.1125 234.60938 34.33125Q233.70312 34.55 232.53125 34.55L227.89062 34.55ZM229.59375 33.034374L232.34375 33.034374Q233.625 33.034374 234.34375 32.8Q235.0625 32.55 235.5 32.128124Q236.10938 31.51875 236.4375 30.503124Q236.78125 29.471874 236.78125 28.003124Q236.78125 25.9875 236.10938 24.909374Q235.45312 23.815624 234.5 23.45625Q233.82812 23.190624 232.29688 23.190624L229.59375 23.190624L229.59375 33.034374ZM380.8125 34.55L380.8125 21.659374L385.65625 21.659374Q387.125 21.659374 388.01562 22.05Q388.90625 22.440624 389.40625 23.253124Q389.92188 24.065624 389.92188 24.95625Q389.92188 25.784374 389.46875 26.51875Q389.03125 27.253124 388.125 27.690624Q389.29688 28.034374 389.92188 28.8625Q390.54688 29.690624 390.54688 30.815624Q390.54688 31.721874 390.15625 32.503124Q389.78125 33.26875 389.21875 33.690624Q388.65625 34.1125 387.8125 34.33125Q386.96875 34.55 385.73438 34.55L380.8125 34.55ZM382.53125 27.08125L385.3125 27.08125Q386.4375 27.08125 386.9375 26.925Q387.59375 26.7375 387.92188 26.3Q388.25 25.846874 388.25 25.159374Q388.25 24.51875 387.9375 24.034374Q387.625 23.55 387.04688 23.378124Q386.48438 23.190624 385.09375 23.190624L382.53125 23.190624L382.53125 27.08125ZM382.53125 33.034374L385.73438 33.034374Q386.5625 33.034374 386.89062 32.971874Q387.48438 32.8625 387.875 32.6125Q388.26562 32.3625 388.51562 31.89375Q388.78125 31.425 388.78125 30.815624Q388.78125 30.096874 388.40625 29.565624Q388.04688 29.034374 387.39062 28.815624Q386.73438 28.596874 385.5 28.596874L382.53125 28.596874L382.53125 33.034374ZM395.14062 34.55L391.71875 21.659374L393.46875 21.659374L395.42188 30.1125Q395.75 31.440624 395.96875 32.753124Q396.46875 30.675 396.54688 30.3625L399.0 21.659374L401.0625 21.659374L402.90625 28.190624Q403.60938 30.6125 403.90625 32.753124Q404.15625 31.51875 404.54688 29.940624L406.57812 21.659374L408.28125 21.659374L404.75 34.55L403.10938 34.55L400.39062 24.7375Q400.04688 23.503124 399.98438 23.221874Q399.78125 24.1125 399.60938 24.7375L396.875 34.55L395.14062 34.55ZM409.07812 30.675L409.07812 29.096874L413.9375 29.096874L413.9375 30.675L409.07812 30.675ZM415.8125 34.55L415.8125 21.659374L420.65625 21.659374Q422.125 21.659374 423.01562 22.05Q423.90625 22.440624 424.40625 23.253124Q424.92188 24.065624 424.92188 24.95625Q424.92188 25.784374 424.46875 26.51875Q424.03125 27.253124 423.125 27.690624Q424.29688 28.034374 424.92188 28.8625Q425.54688 29.690624 425.54688 30.815624Q425.54688 31.721874 425.15625 32.503124Q424.78125 33.26875 424.21875 33.690624Q423.65625 34.1125 422.8125 34.33125Q421.96875 34.55 420.73438 34.55L415.8125 34.55ZM417.53125 27.08125L420.3125 27.08125Q421.4375 27.08125 421.9375 26.925Q422.59375 26.7375 422.92188 26.3Q423.25 25.846874 423.25 25.159374Q423.25 24.51875 422.9375 24.034374Q422.625 23.55 422.04688 23.378124Q421.48438 23.190624 420.09375 23.190624L417.53125 23.190624L417.53125 27.08125ZM417.53125 33.034374L420.73438 33.034374Q421.5625 33.034374 421.89062 32.971874Q422.48438 32.8625 422.875 32.6125Q423.26562 32.3625 423.51562 31.89375Q423.78125 31.425 423.78125 30.815624Q423.78125 30.096874 423.40625 29.565624Q423.04688 29.034374 422.39062 28.815624Q421.73438 28.596874 420.5 28.596874L417.53125 28.596874L417.53125 33.034374ZM427.375 28.26875Q427.375 25.065624 429.09375 23.253124Q430.8125 21.440624 433.54688 21.440624Q435.32812 21.440624 436.75 22.3Q438.1875 23.14375 438.9375 24.675Q439.6875 26.190624 439.6875 28.128124Q439.6875 30.08125 438.89062 31.628124Q438.10938 33.175 436.65625 33.971874Q435.20312 34.76875 433.53125 34.76875Q431.71875 34.76875 430.28125 33.89375Q428.84375 33.01875 428.10938 31.503124Q427.375 29.971874 427.375 28.26875ZM429.125 28.3Q429.125 30.628124 430.375 31.971874Q431.64062 33.315624 433.51562 33.315624Q435.45312 33.315624 436.6875 31.95625Q437.9375 30.596874 437.9375 28.1125Q437.9375 26.55 437.40625 25.378124Q436.875 24.190624 435.84375 23.55Q434.82812 22.909374 433.54688 22.909374Q431.73438 22.909374 430.42188 24.159374Q429.125 25.39375 429.125 28.3ZM450.34375 21.659374L452.04688 21.659374L452.04688 29.1125Q452.04688 31.05 451.60938 32.190624Q451.17188 33.33125 450.01562 34.05Q448.875 34.76875 447.01562 34.76875Q445.20312 34.76875 444.04688 34.14375Q442.90625 33.51875 442.40625 32.346874Q441.92188 31.159374 441.92188 29.1125L441.92188 21.659374L443.625 21.659374L443.625 29.096874Q443.625 30.784374 443.9375 31.58125Q444.25 32.3625 445.0 32.8Q445.76562 33.2375 446.85938 33.2375Q448.75 33.2375 449.54688 32.378124Q450.34375 31.51875 450.34375 29.096874L450.34375 21.659374ZM454.875 34.55L454.875 21.659374L456.625 21.659374L463.39062 31.784374L463.39062 21.659374L465.01562 21.659374L465.01562 34.55L463.28125 34.55L456.5 24.425L456.5 34.55L454.875 34.55ZM467.89062 34.55L467.89062 21.659374L472.32812 21.659374Q473.82812 21.659374 474.625 21.846874Q475.73438 22.096874 476.51562 22.76875Q477.53125 23.628124 478.03125 24.971874Q478.54688 26.315624 478.54688 28.034374Q478.54688 29.503124 478.20312 30.64375Q477.85938 31.76875 477.3125 32.51875Q476.78125 33.253124 476.14062 33.690624Q475.51562 34.1125 474.60938 34.33125Q473.70312 34.55 472.53125 34.55L467.89062 34.55ZM469.59375 33.034374L472.34375 33.034374Q473.625 33.034374 474.34375 32.8Q475.0625 32.55 475.5 32.128124Q476.10938 31.51875 476.4375 30.503124Q476.78125 29.471874 476.78125 28.003124Q476.78125 25.9875 476.10938 24.909374Q475.45312 23.815624 474.5 23.45625Q473.82812 23.190624 472.29688 23.190624L469.59375 23.190624L469.59375 33.034374Z" fill-rule="nonzero"/></svg>